<svg width="39" height="38" viewBox="0 0 39 38" fill="none" xmlns="http://www.w3.org/2000/svg">
<g clip-path="url(#clip0_393_3502)">
<g clip-path="url(#clip1_393_3502)">
<g clip-path="url(#clip2_393_3502)">
<path fill-rule="evenodd" clip-rule="evenodd" d="M19.9707 38C23.7285 38 27.402 36.8857 30.5265 34.7979C33.6511 32.7102 36.0863 29.7428 37.5244 26.271C38.9625 22.7992 39.3387 18.9789 38.6056 15.2933C37.8725 11.6077 36.0629 8.22218 33.4057 5.56498C30.7485 2.90778 27.3631 1.09821 23.6774 0.365088C19.9918 -0.368031 16.1715 0.00823236 12.6997 1.4463C9.22792 2.88436 6.26053 5.31964 4.17278 8.44417C2.08503 11.5687 0.970703 15.2422 0.970703 19C0.970703 24.0391 2.97248 28.8718 6.53567 32.435C10.0989 35.9982 14.9316 38 19.9707 38ZM19.9707 37.263C23.5828 37.263 27.1137 36.1919 30.1171 34.1851C33.1204 32.1784 35.4612 29.3261 36.8435 25.989C38.2258 22.6518 38.5875 18.9797 37.8828 15.4371C37.1781 11.8944 35.4387 8.64024 32.8846 6.08612C30.3305 3.53199 27.0763 1.79261 23.5336 1.08793C19.991 0.383245 16.3189 0.744914 12.9818 2.1272C9.64463 3.50948 6.79234 5.85029 4.78557 8.85363C2.77881 11.857 1.7077 15.3879 1.7077 19C1.7077 23.8437 3.63183 28.4889 7.05681 31.9139C10.4818 35.3389 15.1271 37.263 19.9707 37.263Z" fill="black"/>
<path fill-rule="evenodd" clip-rule="evenodd" d="M19.9707 32.293C22.5998 32.293 25.1699 31.5134 27.3559 30.0528C29.542 28.5921 31.2457 26.516 32.2519 24.087C33.258 21.6581 33.5212 18.9853 33.0083 16.4067C32.4954 13.8281 31.2294 11.4595 29.3703 9.60047C27.5112 7.74141 25.1427 6.47537 22.5641 5.96246C19.9855 5.44955 17.3127 5.71279 14.8837 6.71891C12.4547 7.72502 10.3787 9.42882 8.91801 11.6148C7.45736 13.8009 6.67773 16.3709 6.67773 19C6.68434 22.5235 8.08697 25.9008 10.5785 28.3923C13.07 30.8838 16.4472 32.2864 19.9707 32.293ZM20.1147 31.593C23.4261 31.5513 26.5876 30.2066 28.9145 27.8502C31.2413 25.4939 32.5461 22.3156 32.5461 19.004C32.5461 15.6924 31.2413 12.5142 28.9145 10.1578C26.5876 7.80149 23.4261 6.45678 20.1147 6.41504V31.593ZM19.5697 6.41404C18.1459 6.39391 16.7344 6.68004 15.4307 7.25304V17.286H19.5697V6.41404ZM19.5697 20.831H15.4337V30.731C16.7534 31.2541 18.1539 31.5441 19.5727 31.588L19.5697 20.831ZM11.8597 9.36504C9.46676 11.374 7.89988 14.1958 7.45974 17.289H11.8217L11.8597 9.36504ZM7.43774 20.836C7.91438 23.8872 9.48642 26.6601 11.8597 28.636L11.8677 20.827L7.43774 20.836Z" fill="black"/>
<path fill-rule="evenodd" clip-rule="evenodd" d="M22.9648 14.1504C22.8328 14.0394 22.8378 13.8404 22.8398 13.6504C22.8398 13.3294 22.8518 12.9614 22.8398 12.6504C22.826 12.575 22.7828 12.5081 22.7198 12.4644C22.4258 12.2474 22.1318 12.0414 21.8378 11.8234C21.5278 11.5234 21.2378 11.9974 21.4208 12.2014C21.7131 12.3965 21.9848 12.6206 22.2318 12.8704C22.3011 13.2577 22.3182 13.6526 22.2828 14.0444C22.2218 14.2824 21.8768 14.4054 21.5628 14.3354C21.4408 14.3084 21.3918 14.1934 21.2218 14.1684C20.2858 14.0324 20.1418 15.3684 21.2218 15.2294C21.3928 15.2084 21.4408 15.0894 21.5628 15.0624C21.8768 14.9934 22.2218 15.1154 22.2828 15.3534C22.3182 15.7453 22.3011 16.1401 22.2318 16.5274C21.9848 16.7773 21.7131 17.0014 21.4208 17.1964C21.2348 17.3964 21.5278 17.8734 21.8378 17.5744C22.1318 17.3574 22.4258 17.1514 22.7198 16.9344C22.7827 16.8907 22.8259 16.8238 22.8398 16.7484C22.8518 16.4414 22.8398 16.0734 22.8398 15.7484C22.8235 15.661 22.8262 15.5711 22.8478 15.4848C22.8694 15.3985 22.9093 15.3179 22.9648 15.2484C23.1448 15.0934 23.3478 14.8324 23.5268 14.6754C23.3493 14.4861 23.1617 14.3065 22.9648 14.1374" fill="black"/>
<path fill-rule="evenodd" clip-rule="evenodd" d="M23.4062 13.4454C24.3382 13.4604 25.0922 13.5264 26.0232 13.4914C26.3132 13.4804 26.8052 13.2914 26.7442 12.9764C26.6832 12.6614 26.7652 12.5664 27.0672 12.5594C27.5372 12.5474 28.0082 12.5684 28.4792 12.5594C28.5961 12.571 28.714 12.5518 28.8213 12.504C28.9286 12.4561 29.0216 12.3812 29.0912 12.2865C29.2182 12.1335 29.3762 12.3115 29.5002 12.4005C30.2067 12.8174 30.7565 13.4552 31.0648 14.2154C31.373 14.9756 31.4227 15.8162 31.2062 16.6075C31.0132 17.2894 30.6232 17.8993 30.0851 18.3606C29.547 18.8219 28.8847 19.114 28.1812 19.2004H23.7232C23.7159 19.5038 23.7082 19.8068 23.7002 20.1095H28.2002C28.4692 20.0892 28.7393 20.1293 28.9908 20.2267C29.2424 20.3242 29.469 20.4765 29.6542 20.6726C29.8394 20.8687 29.9785 21.1037 30.0614 21.3604C30.1442 21.6171 30.1688 21.8891 30.1332 22.1564C30.1468 22.4252 30.1059 22.6939 30.0128 22.9464C29.9197 23.1989 29.7763 23.4298 29.5915 23.6254C29.4066 23.8209 29.184 23.9769 28.9371 24.084C28.6903 24.1911 28.4243 24.247 28.1552 24.2485C26.6922 24.2485 25.2282 24.2345 23.7652 24.2485C23.3172 24.2485 23.2252 25.0884 23.7652 25.0894C24.8502 25.0894 25.9342 25.1054 27.0182 25.0894C27.1777 25.1006 27.3331 25.1451 27.4742 25.2203C27.6154 25.2954 27.7391 25.3994 27.8374 25.5255C27.9357 25.6517 28.0063 25.797 28.0447 25.9523C28.0831 26.1075 28.0884 26.2691 28.0602 26.4265C28.0642 26.5748 28.0373 26.7224 27.9813 26.8598C27.9254 26.9973 27.8415 27.1216 27.735 27.225C27.6285 27.3284 27.5018 27.4086 27.3627 27.4604C27.2237 27.5123 27.0754 27.5348 26.9272 27.5265C26.2605 27.5265 25.5939 27.5265 24.9272 27.5265C24.4492 27.5265 24.4952 28.3344 24.9822 28.3364C25.4522 28.3364 25.8672 28.3064 26.3362 28.3364C26.7492 28.3624 26.8442 28.7634 26.6362 29.1184C26.4742 29.3894 26.1992 29.3444 26.1362 29.0724C26.0872 28.8634 26.0102 28.8425 25.8632 28.8455C25.5752 28.8505 25.2872 28.8455 24.9982 28.8455C24.3452 28.8565 23.9372 28.4964 23.9332 27.9584C23.9149 27.8286 23.9247 27.6964 23.9618 27.5706C23.9989 27.4449 24.0625 27.3285 24.1483 27.2294C24.2342 27.1303 24.3402 27.0507 24.4594 26.9961C24.5786 26.9414 24.7081 26.9129 24.8392 26.9125C25.4082 26.9125 25.9762 26.9205 26.5452 26.9125C27.0282 26.9055 27.2942 26.7535 27.2732 26.4805C27.2452 26.1255 26.9922 26.0444 26.6822 26.0484C25.7269 26.0618 24.7715 26.0618 23.8162 26.0484C23.4134 26.0485 23.025 25.8983 22.7271 25.6271C22.4293 25.3558 22.2434 24.9832 22.2058 24.5821C22.1683 24.181 22.2818 23.7804 22.5242 23.4586C22.7666 23.1368 23.1203 22.9171 23.5162 22.8425C25.0162 22.8225 26.5162 22.8545 28.0162 22.8425C28.6712 22.8375 28.6952 21.9234 28.0842 21.9324C26.5152 21.9564 24.9452 21.9404 23.3762 21.9324C22.8339 21.937 22.3118 21.7266 21.9241 21.3474C21.5364 20.9681 21.3146 20.4508 21.3072 19.9084C21.2615 19.2807 21.4611 18.6597 21.8639 18.1761C22.2668 17.6925 22.8415 17.384 23.4672 17.3155C24.9222 17.3155 26.1672 17.2995 27.6262 17.3155C27.7328 17.322 27.8396 17.3062 27.9397 17.269C28.0398 17.2319 28.1311 17.1742 28.2076 17.0997C28.2841 17.0252 28.3442 16.9355 28.384 16.8364C28.4238 16.7373 28.4424 16.631 28.4387 16.5243C28.435 16.4175 28.409 16.3128 28.3624 16.2167C28.3158 16.1206 28.2497 16.0353 28.1682 15.9663C28.0867 15.8973 27.9916 15.8461 27.8892 15.816C27.7867 15.7859 27.6791 15.7775 27.5732 15.7914H23.4452C23.4332 15.2124 23.8262 15.0105 24.3322 15.0405H26.4932C26.8852 15.0705 26.8022 14.1875 26.4932 14.1755H24.0142C23.9228 14.1779 23.8321 14.1598 23.7487 14.1225C23.6653 14.0851 23.5913 14.0295 23.5323 13.9596C23.4734 13.8898 23.4309 13.8076 23.408 13.7191C23.3851 13.6306 23.3824 13.5381 23.4002 13.4484" fill="black"/>
<path fill-rule="evenodd" clip-rule="evenodd" d="M27.3135 10.0269C27.3776 10.0271 27.4403 10.0083 27.4937 9.97279C27.5472 9.93731 27.5889 9.88678 27.6135 9.82759C27.6382 9.76841 27.6448 9.70323 27.6324 9.64031C27.62 9.5774 27.5892 9.51957 27.5439 9.47416C27.4987 9.42875 27.4409 9.39779 27.3781 9.38521C27.3152 9.37263 27.25 9.37898 27.1907 9.40348C27.1315 9.42797 27.0808 9.46949 27.0451 9.5228C27.0095 9.5761 26.9905 9.63878 26.9905 9.70291C26.9905 9.78867 27.0245 9.87092 27.085 9.93166C27.1456 9.99239 27.2277 10.0266 27.3135 10.0269ZM26.3285 10.0269C26.3926 10.0269 26.4552 10.0079 26.5085 9.9723C26.5618 9.9367 26.6033 9.8861 26.6278 9.8269C26.6523 9.76769 26.6588 9.70255 26.6462 9.6397C26.6337 9.57685 26.6029 9.51912 26.5576 9.4738C26.5123 9.42849 26.4545 9.39763 26.3917 9.38513C26.3288 9.37263 26.2637 9.37905 26.2045 9.40357C26.1453 9.42809 26.0947 9.46962 26.0591 9.5229C26.0235 9.57619 26.0045 9.63883 26.0045 9.70291C26.0045 9.78884 26.0386 9.87125 26.0994 9.93201C26.1601 9.99277 26.2425 10.0269 26.3285 10.0269ZM25.3435 10.0269C25.4076 10.0269 25.4702 10.0079 25.5235 9.9723C25.5768 9.9367 25.6183 9.8861 25.6428 9.8269C25.6673 9.76769 25.6738 9.70255 25.6612 9.6397C25.6487 9.57685 25.6179 9.51912 25.5726 9.4738C25.5273 9.42849 25.4695 9.39763 25.4067 9.38513C25.3438 9.37263 25.2787 9.37905 25.2195 9.40357C25.1603 9.42809 25.1097 9.46962 25.0741 9.5229C25.0385 9.57619 25.0195 9.63883 25.0195 9.70291C25.0195 9.78884 25.0536 9.87125 25.1144 9.93201C25.1751 9.99277 25.2575 10.0269 25.3435 10.0269ZM24.4145 10.0269C24.4786 10.0269 24.5412 10.0079 24.5945 9.9723C24.6478 9.9367 24.6893 9.8861 24.7138 9.8269C24.7383 9.76769 24.7447 9.70255 24.7322 9.6397C24.7197 9.57685 24.6889 9.51912 24.6436 9.4738C24.5983 9.42849 24.5405 9.39763 24.4777 9.38513C24.4148 9.37263 24.3497 9.37905 24.2905 9.40357C24.2313 9.42809 24.1807 9.46962 24.1451 9.5229C24.1095 9.57619 24.0905 9.63883 24.0905 9.70291C24.0903 9.74549 24.0986 9.78768 24.1149 9.82705C24.1311 9.86642 24.155 9.90219 24.1851 9.9323C24.2152 9.96242 24.251 9.98628 24.2903 10.0025C24.3297 10.0188 24.3719 10.027 24.4145 10.0269ZM23.4295 10.0269C23.4936 10.0269 23.5562 10.0079 23.6095 9.9723C23.6628 9.9367 23.7043 9.8861 23.7288 9.8269C23.7533 9.76769 23.7597 9.70255 23.7472 9.6397C23.7347 9.57685 23.7039 9.51912 23.6586 9.4738C23.6133 9.42849 23.5555 9.39763 23.4927 9.38513C23.4298 9.37263 23.3647 9.37905 23.3055 9.40357C23.2463 9.42809 23.1957 9.46962 23.1601 9.5229C23.1245 9.57619 23.1055 9.63883 23.1055 9.70291C23.1053 9.74549 23.1136 9.78768 23.1299 9.82705C23.1461 9.86642 23.17 9.90219 23.2001 9.9323C23.2302 9.96242 23.266 9.98628 23.3053 10.0025C23.3447 10.0188 23.3869 10.027 23.4295 10.0269Z" fill="black"/>
<path d="M27.6076 10.375H23.2246V11.787H27.6076V10.375Z" fill="black"/>
<path d="M5.77805 16.2453L5.60005 17.6533L6.24905 18.0113L6.11305 19.0903L2.37305 17.0843L2.51405 15.9703L6.63205 14.9883L6.49405 16.0783L5.77805 16.2453ZM4.96505 16.4243L3.66505 16.6843L4.86505 17.2723L4.96505 16.4243Z" fill="black"/>
<path d="M3.98941 11.375L6.80441 12.643L7.31341 11.517L8.11341 11.877L7.17741 13.943L3.56641 12.311L3.98941 11.375Z" fill="black"/>
<path d="M7.92725 7.18047L7.11325 8.11847L7.61325 8.55047L8.35325 7.69847L9.01225 8.27147L8.27225 9.12347L9.44725 10.1435L8.77325 10.9195L5.78125 8.31947L7.26825 6.60547L7.92725 7.18047Z" fill="black"/>
<path d="M12.8554 6.39784L11.6554 7.16384L11.7974 7.89184L10.8824 8.47784L10.0254 4.32084L10.9704 3.71484L14.3634 6.24684L13.4474 6.83684L12.8554 6.39784ZM12.1974 5.88784L11.1624 5.05484L11.4764 6.34884L12.1974 5.88784Z" fill="black"/>
<path d="M19.6038 3.60485L20.9658 5.12685L19.6918 5.22685L18.5918 3.78585L18.7078 5.30185L17.6828 5.38085L17.3828 1.42985L18.9828 1.30685C19.3253 1.26521 19.6708 1.3549 19.9498 1.55785C20.0832 1.66722 20.191 1.80447 20.2656 1.95996C20.3402 2.11544 20.3799 2.28539 20.3818 2.45785C20.412 2.71076 20.3503 2.96611 20.2078 3.17725C20.0653 3.38839 19.8517 3.54123 19.6058 3.60785M18.5438 3.12285L18.6508 3.11485C18.6864 3.11222 18.7218 3.10755 18.7568 3.10085C18.9019 3.07987 19.0416 3.0317 19.1688 2.95885C19.2317 2.91724 19.2806 2.85774 19.3093 2.78805C19.338 2.71835 19.3451 2.64165 19.3298 2.56785C19.3324 2.49608 19.3142 2.4251 19.2773 2.3635C19.2404 2.30191 19.1863 2.25235 19.1218 2.22085C18.9923 2.1659 18.8535 2.13604 18.7128 2.13285C18.6688 2.13285 18.6278 2.13885 18.5878 2.13985C18.5478 2.14085 18.5088 2.13985 18.4688 2.14585L18.5438 3.12285Z" fill="black"/>
<path d="M22.4812 3.34419C22.5515 3.07172 22.6782 2.81702 22.853 2.59654C23.0278 2.37606 23.247 2.1947 23.4962 2.06419C24.0146 1.806 24.6107 1.75054 25.1677 1.90868C25.7248 2.06682 26.2028 2.42716 26.5082 2.91919C26.6459 3.16333 26.7338 3.43233 26.767 3.71065C26.8001 3.98897 26.7777 4.27109 26.7012 4.54073C26.6247 4.81036 26.4955 5.06217 26.3211 5.2816C26.1467 5.50103 25.9306 5.68374 25.6852 5.81919C25.1662 6.07347 24.5714 6.12683 24.0154 5.96899C23.4593 5.81115 22.9813 5.45326 22.6732 4.96419C22.5295 4.72327 22.438 4.4548 22.4047 4.17622C22.3715 3.89764 22.3972 3.61517 22.4802 3.34719M23.5152 3.64119C23.473 3.78118 23.46 3.92839 23.4772 4.07361C23.4944 4.21884 23.5414 4.35895 23.6152 4.48519C23.7407 4.70864 23.9397 4.8817 24.1784 4.9749C24.4171 5.0681 24.6807 5.07569 24.9244 4.99636C25.1681 4.91703 25.3767 4.75569 25.5148 4.53982C25.6529 4.32395 25.7119 4.06689 25.6817 3.81242C25.6516 3.55794 25.5341 3.32179 25.3494 3.14416C25.1647 2.96654 24.9242 2.85842 24.6687 2.83823C24.4133 2.81804 24.1587 2.88702 23.9484 3.03343C23.7381 3.17983 23.585 3.39461 23.5152 3.64119Z" fill="black"/>
<path d="M27.1777 7.05119L30.2777 4.49219L31.0467 5.15619L30.2707 7.28119L32.2967 6.23619L33.0747 6.90819L30.9327 10.2942L30.1547 9.62219L31.4257 7.70619L29.2107 8.80619L28.9007 8.53819L29.7007 6.21419L27.9527 7.71419L27.1777 7.05119Z" fill="black"/>
<path d="M35.3215 11.929L34.7075 10.87L34.1375 11.201L34.7185 12.201L33.9625 12.639L33.3815 11.639L32.7905 11.982L33.4045 13.041L32.6495 13.479L31.5195 11.531L34.9475 9.54297L36.0775 11.49L35.3215 11.929Z" fill="black"/>
<path d="M35.072 14.2024C35.3481 14.1449 35.6333 14.1461 35.9089 14.2059C36.1845 14.2657 36.4445 14.3827 36.672 14.5494C37.132 14.9012 37.4442 15.412 37.5474 15.9819C37.6506 16.5517 37.5374 17.1396 37.23 17.6304C37.0713 17.8611 36.8686 18.0582 36.6334 18.2102C36.3983 18.3622 36.1354 18.4661 35.8598 18.516C35.5843 18.566 35.3016 18.5608 35.0281 18.501C34.7545 18.4412 34.4955 18.3278 34.266 18.1674C33.8094 17.8133 33.4999 17.3029 33.3969 16.7343C33.2939 16.1658 33.4047 15.5792 33.708 15.0874C33.8608 14.852 34.0615 14.6515 34.2971 14.499C34.5326 14.3465 34.7977 14.2454 35.075 14.2024M35.267 15.2604C35.1226 15.2845 34.9848 15.3382 34.8621 15.418C34.7394 15.4979 34.6346 15.6022 34.554 15.7244C34.4705 15.8447 34.4116 15.9804 34.3805 16.1235C34.3494 16.2666 34.3469 16.4145 34.373 16.5586C34.3991 16.7027 34.4533 16.8403 34.5326 16.9635C34.6119 17.0866 34.7146 17.193 34.835 17.2764C34.9861 17.3801 35.1603 17.445 35.3424 17.4654C35.5245 17.4857 35.7088 17.4609 35.879 17.3931C36.0492 17.3252 36.2 17.2165 36.3182 17.0765C36.4364 16.9365 36.5183 16.7696 36.5566 16.5904C36.5949 16.4112 36.5885 16.2254 36.5379 16.0493C36.4872 15.8732 36.394 15.7123 36.2664 15.5808C36.1388 15.4493 35.9808 15.3513 35.8063 15.2954C35.6318 15.2395 35.4473 15.2275 35.267 15.2604Z" fill="black"/>
</g>
</g>
</g>
<defs>
<clipPath id="clip0_393_3502">
<rect width="38" height="38" fill="white" transform="translate(0.970703)"/>
</clipPath>
<clipPath id="clip1_393_3502">
<rect width="38" height="38" fill="white" transform="translate(0.970703)"/>
</clipPath>
<clipPath id="clip2_393_3502">
<rect width="38" height="38" fill="white" transform="translate(0.970703)"/>
</clipPath>
</defs>
</svg>
