<svg width="142" height="28" viewBox="0 0 142 28" fill="none" xmlns="http://www.w3.org/2000/svg">
<g clip-path="url(#clip0_393_3486)">
<g clip-path="url(#clip1_393_3486)">
<g clip-path="url(#clip2_393_3486)">
<path d="M135.601 3.54557C135.597 2.78014 135.895 2.04406 136.432 1.49787C136.968 0.951673 137.698 0.639678 138.464 0.629924C139.221 0.638323 139.946 0.939683 140.486 1.47082C141.026 2.01674 141.328 2.7532 141.328 3.52058C141.328 4.28795 141.026 5.02441 140.486 5.57033C140.09 5.98067 139.58 6.26226 139.021 6.37847C138.463 6.49468 137.882 6.44013 137.355 6.22192C136.828 6.0037 136.379 5.63193 136.066 5.15496C135.753 4.67799 135.591 4.11791 135.601 3.54757M135.365 3.54757C135.362 4.37982 135.689 5.17936 136.275 5.77038C136.861 6.36139 137.657 6.69549 138.49 6.69919C138.897 6.70438 139.3 6.62544 139.675 6.46732C140.051 6.3092 140.389 6.07531 140.669 5.7803C141.253 5.18285 141.582 4.38262 141.588 3.54757C141.591 3.13301 141.512 2.72202 141.354 2.33864C141.196 1.95527 140.963 1.60721 140.669 1.31484C140.386 1.02391 140.047 0.792714 139.673 0.634896C139.298 0.477077 138.896 0.395832 138.49 0.395952C138.078 0.397656 137.67 0.480526 137.29 0.639833C136.909 0.799139 136.564 1.03176 136.274 1.32442C135.984 1.61707 135.754 1.96403 135.598 2.34548C135.442 2.72693 135.362 3.1354 135.364 3.54757M137.313 5.41035H137.76V3.93953H138.76C138.893 3.9276 139.028 3.94571 139.154 3.99252C139.224 4.04417 139.282 4.11128 139.323 4.18872C139.364 4.26617 139.387 4.35193 139.39 4.43946L139.443 5.0174V5.27936C139.469 5.33236 139.469 5.35835 139.496 5.38435H140.047V5.30536C139.969 5.27936 139.943 5.20037 139.917 5.09539C139.891 5.00139 139.882 4.90352 139.891 4.80642L139.865 4.35947C139.872 4.21217 139.835 4.06596 139.76 3.93953C139.67 3.84901 139.563 3.77758 139.445 3.72955C139.587 3.66057 139.705 3.55097 139.786 3.41459C139.866 3.26085 139.902 3.0878 139.891 2.91465C139.903 2.75025 139.867 2.58578 139.788 2.44127C139.709 2.29675 139.589 2.17844 139.444 2.10075C139.254 2.02163 139.049 1.98577 138.844 1.99576H137.344L137.313 5.41035ZM137.733 3.54557V2.36372H138.784C138.911 2.35596 139.038 2.38328 139.152 2.44271C139.234 2.49533 139.3 2.57018 139.342 2.65864C139.383 2.74709 139.399 2.84554 139.388 2.94265C139.388 3.17862 139.335 3.3366 139.204 3.41559C139.064 3.509 138.898 3.55494 138.731 3.54657L137.733 3.54557ZM13.2928 7.87905L0.529297 27.9436H9.24825L21.5398 8.77194L13.2928 7.87905ZM65.8454 7.4321V0H41.0244C39.8748 0.0437581 38.7479 0.333637 37.7199 0.850071C36.6918 1.3665 35.7866 2.09747 35.0651 2.99364C34.1971 4.13318 33.5711 5.43804 33.2254 6.82818V0.0529936H20.0169C19.4916 0.04944 18.9738 0.177292 18.5105 0.424918C18.0472 0.672543 17.6532 1.03208 17.3643 1.47082C16.6294 2.44271 13.6087 7.4321 13.6087 7.4321H65.8454ZM133.337 7.4321V0H106.79C105.641 0.0470719 104.515 0.338394 103.487 0.854575C102.459 1.37076 101.553 2.09996 100.829 2.99364C99.9616 4.13327 99.3358 5.43812 98.9904 6.82818V7.4281L133.337 7.4321ZM74.5654 0.0259969H67.1333V7.4321H74.5654V0.0259969ZM98.9114 0.0259969H91.5053V7.4321H98.9114V0.0259969ZM98.9114 10.1108L91.6123 9.66384V18.2518C91.6182 18.5732 91.56 18.8926 91.4413 19.1914C91.3225 19.4901 91.1456 19.7623 90.9207 19.992C90.6958 20.2217 90.4275 20.4044 90.1313 20.5295C89.8352 20.6546 89.5171 20.7195 89.1956 20.7205H76.6971C76.0974 20.6625 75.5427 20.377 75.147 19.9227C74.7513 19.4684 74.5446 18.8798 74.5694 18.2778V8.50897L67.2113 7.98404V21.1415C67.4665 22.8674 68.2756 24.4637 69.5167 25.6899C70.7577 26.9162 72.3636 27.7061 74.0924 27.9406C74.0924 27.9406 74.6704 27.9666 74.7753 27.9936H91.7183C91.7183 27.9936 98.9674 27.4157 98.9674 20.4295L98.9114 10.1108ZM25.6633 27.9436H60.3831C62.0571 27.658 63.5999 26.8565 64.796 25.6511C65.9922 24.4456 66.7817 22.8966 67.0543 21.2204C67.2282 20.2413 67.2723 19.2435 67.1853 18.2528C67.0013 17.1529 64.9005 12.2645 60.3861 11.8446C57.6814 11.5816 33.5973 9.66484 33.5973 9.66484C33.8549 11.3231 34.6582 12.848 35.88 13.9983C37.1253 15.0461 38.6165 15.76 40.2135 16.0731L58.7813 17.6229C58.9851 17.6064 59.1902 17.6315 59.3841 17.6965C59.5779 17.7615 59.7566 17.8652 59.9093 18.0012C60.062 18.1372 60.1856 18.3028 60.2725 18.4879C60.3594 18.673 60.4078 18.8739 60.4149 19.0782C60.422 19.2826 60.3876 19.4863 60.3138 19.677C60.2399 19.8677 60.1282 20.0415 59.9853 20.1878C59.8424 20.3341 59.6714 20.4499 59.4825 20.5282C59.2936 20.6066 59.0908 20.6458 58.8863 20.6435H32.9114V9.61284L25.6893 9.0879C25.6633 9.0879 25.6633 27.9436 25.6633 27.9436ZM98.9644 27.9966H125.543C127.389 27.9113 129.15 27.1984 130.535 25.9757C131.92 24.7531 132.846 23.0941 133.159 21.2734C133.302 20.2726 133.32 19.258 133.212 18.2528C133.028 16.753 130.902 12.2385 126.357 11.7916C123.678 11.5286 99.4374 10.1108 99.4374 10.1108C99.7805 11.657 100.631 13.0438 101.854 14.0503C103.035 15.0889 104.48 15.781 106.03 16.0501L124.781 17.6259C125.359 17.6519 126.541 17.7049 126.541 19.1257C126.533 19.54 126.363 19.9348 126.068 20.2256C125.685 20.4257 125.264 20.5419 124.833 20.5665H99.0424L98.9644 27.9966Z" fill="black"/>
</g>
</g>
</g>
<defs>
<clipPath id="clip0_393_3486">
<rect width="141.06" height="28" fill="white" transform="translate(0.529297)"/>
</clipPath>
<clipPath id="clip1_393_3486">
<rect width="141.06" height="28" fill="white" transform="translate(0.529297)"/>
</clipPath>
<clipPath id="clip2_393_3486">
<rect width="141.06" height="27.9966" fill="white" transform="translate(0.529297)"/>
</clipPath>
</defs>
</svg>
