<svg width="39" height="38" viewBox="0 0 39 38" fill="none" xmlns="http://www.w3.org/2000/svg">
<g clip-path="url(#clip0_393_3476)">
<g clip-path="url(#clip1_393_3476)">
<g clip-path="url(#clip2_393_3476)">
<path d="M19.5294 8.34752e-05C14.492 0.00564193 9.66263 2.00921 6.10065 5.57119C2.53866 9.13318 0.534916 13.9627 0.529357 19.0001C0.523043 21.4955 1.01164 23.9675 1.96686 26.2729C2.92208 28.5783 4.32515 30.6714 6.09454 32.4311C7.85479 34.2009 9.94834 35.604 12.2545 36.5592C14.5606 37.5144 17.0332 38.0028 19.5294 37.9961C22.0255 38.0029 24.4984 37.5146 26.8045 36.5594C29.1106 35.6041 31.2042 34.201 32.9644 32.4311C34.7343 30.6709 36.1376 28.5772 37.0928 26.271C38.0481 23.9649 38.5362 21.4922 38.5294 18.9961C38.5362 16.5 38.0481 14.0273 37.0928 11.7211C36.1376 9.41501 34.7343 7.32126 32.9644 5.56108C31.2039 3.79189 29.1101 2.38942 26.804 1.43488C24.4979 0.480333 22.0252 -0.00733922 19.5294 8.34752e-05ZM19.5294 37.3421C17.1197 37.3487 14.7327 36.8773 12.5064 35.9552C10.2801 35.0331 8.25872 33.6786 6.55939 31.9701C4.85085 30.2708 3.49638 28.2495 2.57428 26.0232C1.65217 23.7969 1.18092 21.4098 1.18756 19.0001C1.18045 16.5909 1.65109 14.2042 2.57233 11.9781C3.49356 9.75204 4.84704 7.73071 6.5545 6.03108C8.2538 4.32255 10.275 2.96803 12.5013 2.04592C14.7276 1.12382 17.1148 0.652442 19.5245 0.659084C21.9342 0.652497 24.3211 1.12389 26.5474 2.046C28.7737 2.9681 30.7951 4.32259 32.4944 6.03108C34.2031 7.73033 35.5578 9.7516 36.48 11.9779C37.4023 14.2042 37.8739 16.5913 37.8675 19.0011C37.8617 23.8633 35.9277 28.5247 32.4898 31.963C29.0519 35.4013 24.3916 37.3357 19.5294 37.3421Z" fill="black"/>
<path d="M19.6256 11.9735L19.6116 11.9375L19.5977 11.9735H19.6256Z" fill="black"/>
<path d="M19.5237 1.41406C14.8595 1.41433 10.3864 3.26735 7.08838 6.56552C3.79039 9.86369 1.9375 14.3369 1.9375 19.0011C1.9375 23.6653 3.79039 28.1384 7.08838 31.4366C10.3864 34.7348 14.8595 36.5878 19.5237 36.5881C24.188 36.5881 28.6613 34.7352 31.9595 31.437C35.2577 28.1387 37.1106 23.6654 37.1106 19.0011C37.1106 14.3367 35.2577 9.86337 31.9595 6.56517C28.6613 3.26697 24.188 1.41406 19.5237 1.41406ZM16.9546 2.37406H18.3467L19.6067 5.67406L20.8667 2.37406H22.2585V7.00107H21.3315V3.77106L20.1125 7.00307H19.0996L17.8806 3.77106V7.00107H16.9536L16.9546 2.37406ZM5.28052 9.98906L7.53955 7.29706C8.00655 6.74006 8.66049 6.29706 9.28149 6.81606C9.50149 6.98283 9.67569 7.20269 9.7876 7.45506C9.86547 7.67917 9.86325 7.92333 9.78149 8.14606C10.0071 7.99353 10.2786 7.92374 10.5498 7.94853C10.821 7.97332 11.0753 8.09116 11.2695 8.28206C11.8425 8.83806 11.7576 9.48207 11.2136 10.1301L8.83154 12.9691L5.28052 9.98906ZM19.5247 30.2341C16.5454 30.2338 13.6881 29.0501 11.5815 26.9433C9.47498 24.8366 8.2915 21.9793 8.2915 19.0001C8.2915 16.0208 9.47498 13.1635 11.5815 11.0568C13.6881 8.95002 16.5454 7.76633 19.5247 7.76607C22.5041 7.76607 25.3615 8.94964 27.4683 11.0564C29.575 13.1632 30.7585 16.0206 30.7585 19.0001C30.7585 20.4754 30.4679 21.9363 29.9033 23.2994C29.3387 24.6624 28.5111 25.9009 27.4678 26.944C26.4245 27.9872 25.1861 28.8147 23.823 29.3792C22.4599 29.9437 21 30.2342 19.5247 30.2341ZM33.5347 10.1151L34.2515 10.9991L29.9937 13.0631L29.1526 12.0171L30.8276 9.56807L30.8176 9.55606L28.0735 10.6851L27.2246 9.64507L30.1245 5.91006L30.8406 6.79407L29.0215 9.17307L31.8015 7.98006L32.5696 8.92906L30.8245 11.3991L33.5347 10.1151Z" fill="black"/>
<path d="M19.5286 8.48828C16.7409 8.48828 14.0674 9.5957 12.0962 11.5669C10.125 13.5381 9.01758 16.2116 9.01758 18.9993H19.5286V29.5103C22.3162 29.51 24.9896 28.4025 26.9607 26.4314C28.9318 24.4603 30.0393 21.7869 30.0396 18.9993H19.5286V8.48828Z" fill="black"/>
<path d="M10.4241 9.85034C10.4701 9.79076 10.5039 9.72257 10.5232 9.64978C10.5425 9.57699 10.5469 9.50101 10.5364 9.42645C10.5258 9.35189 10.5006 9.28024 10.4619 9.21564C10.4232 9.15103 10.3718 9.09478 10.311 9.05029C10.2019 8.96004 10.0628 8.9145 9.92139 8.92285C9.77999 8.9312 9.64685 8.99286 9.54907 9.09534L8.12305 10.7953L9.01025 11.5393L10.4241 9.85034Z" fill="black"/>
<path d="M8.77856 7.97633C8.67834 7.88317 8.54722 7.83041 8.4104 7.8282C8.27358 7.82598 8.14079 7.87444 8.0376 7.96431L6.68164 9.58131L7.52051 10.2813L8.86157 8.68135C8.90439 8.63045 8.93648 8.57129 8.95557 8.50758C8.97466 8.44387 8.98043 8.37692 8.97266 8.31086C8.96488 8.24481 8.94352 8.18102 8.91016 8.12349C8.87679 8.06595 8.83203 8.01589 8.77856 7.97633Z" fill="black"/>
</g>
</g>
</g>
<defs>
<clipPath id="clip0_393_3476">
<rect width="38" height="38" fill="white" transform="translate(0.529297)"/>
</clipPath>
<clipPath id="clip1_393_3476">
<rect width="38" height="38" fill="white" transform="translate(0.529297)"/>
</clipPath>
<clipPath id="clip2_393_3476">
<rect width="38" height="38" fill="white" transform="translate(0.529297)"/>
</clipPath>
</defs>
</svg>
