<svg width="41" height="27" viewBox="0 0 41 27" fill="none" xmlns="http://www.w3.org/2000/svg">
<g opacity="0.01">
<path opacity="0.75" d="M21.4893 19.6992L40.4373 1.72123C40.5348 1.6302 40.6125 1.52012 40.6656 1.39781C40.7187 1.2755 40.7461 1.14358 40.7461 1.01023C40.7461 0.876888 40.7187 0.744967 40.6656 0.622658C40.6125 0.500348 40.5348 0.390262 40.4373 0.299232C40.2337 0.10944 39.9657 0.00390625 39.6873 0.00390625C39.409 0.00390625 39.141 0.10944 38.9373 0.299232L20.7373 17.5692L2.56333 0.316232C2.3597 0.12644 2.09169 0.0209063 1.81333 0.0209063C1.53497 0.0209063 1.26696 0.12644 1.06333 0.316232C0.965253 0.407304 0.887024 0.51763 0.833527 0.640312C0.78003 0.762994 0.752415 0.895394 0.752415 1.02923C0.752415 1.16307 0.78003 1.29547 0.833527 1.41815C0.887024 1.54083 0.965253 1.65116 1.06333 1.74223L19.9863 19.6992C20.1901 19.8899 20.4588 19.996 20.7378 19.996C21.0169 19.996 21.2855 19.8899 21.4893 19.6992Z" fill="#D3D3D3"/>
</g>
</svg>
