<svg width="38" height="28" viewBox="0 0 38 28" fill="none" xmlns="http://www.w3.org/2000/svg">
<g clip-path="url(#clip0_393_3497)">
<g clip-path="url(#clip1_393_3497)">
<g clip-path="url(#clip2_393_3497)">
<path d="M16.6059 0.0318987L16.5839 27.9854H20.3569L20.3849 15.3638H24.5838C24.9587 17.6701 24.9977 27.1856 24.9977 27.9294V27.9914H28.8486C28.9666 20.8933 28.9046 7.67884 24.9307 0.0378971H16.6059V0.0318987ZM20.3449 12.1106V3.22204H22.3714C23.1066 4.99308 23.6271 6.84577 23.9219 8.74055C24.2469 10.5711 24.4148 12.1106 24.4148 12.1106H20.3449ZM10.4366 27.9964L14.6175 27.9904V0.0378971L10.4756 0.0488941L10.4366 27.9964ZM0.910156 27.9684L5.04704 27.9964L5.08103 15.3348H8.12021V12.0886H5.08003V3.25003H8.99797V0.00390625H0.916155L0.910156 27.9684ZM27.8169 0.0318987V3.26203H30.8021L30.8131 27.9854H34.95L34.939 3.26203H37.9702V0.00990463L27.8169 0.0318987Z" fill="black"/>
</g>
</g>
</g>
<defs>
<clipPath id="clip0_393_3497">
<rect width="37.06" height="28" fill="white" transform="translate(0.910156)"/>
</clipPath>
<clipPath id="clip1_393_3497">
<rect width="37.06" height="28" fill="white" transform="translate(0.910156)"/>
</clipPath>
<clipPath id="clip2_393_3497">
<rect width="37.06" height="27.9924" fill="white" transform="translate(0.910156 0.00390625)"/>
</clipPath>
</defs>
</svg>
