<svg width="14" height="8" viewBox="0 0 14 8" fill="none" xmlns="http://www.w3.org/2000/svg">
<g clip-path="url(#clip0_393_4445)">
<g clip-path="url(#clip1_393_4445)">
<g clip-path="url(#clip2_393_4445)">
<path d="M0.501479 1.08105C0.501479 0.931063 0.562273 0.790753 0.672655 0.685948C0.891792 0.477957 1.24831 0.477957 1.46741 0.685938L6.74534 5.69478L12.0302 0.679331C12.2493 0.47148 12.6058 0.47148 12.8248 0.679291C12.9353 0.784156 12.9961 0.924466 12.9961 1.07447C12.9961 1.22447 12.9353 1.36478 12.8249 1.46957L7.14269 6.86214C6.92361 7.07011 6.56709 7.07011 6.34798 6.86212L0.672695 1.47618C0.562243 1.37121 0.501479 1.23092 0.501479 1.08105Z" fill="#373737"/>
<path d="M12.7463 1.07311C12.7463 0.995704 12.7152 0.918302 12.653 0.859232C12.5285 0.741183 12.3268 0.741183 12.2023 0.859232L6.74544 6.03793L1.29547 0.865819C1.17102 0.74769 0.969266 0.74769 0.844819 0.865819C0.720388 0.983931 0.720436 1.17537 0.844819 1.29356L6.52012 6.67952C6.64456 6.79765 6.84633 6.79765 6.97077 6.67952L12.653 1.28698C12.7152 1.22791 12.7463 1.15051 12.7463 1.07311ZM13.2461 1.0731C13.2461 1.28913 13.1553 1.49919 12.9971 1.64943L7.31482 7.04204C6.99556 7.34508 6.49533 7.34508 6.17603 7.042L0.500777 1.65608C0.342394 1.50559 0.251683 1.29558 0.251683 1.07969C0.251683 0.86365 0.342464 0.65358 0.500737 0.503335C0.820029 0.200254 1.32026 0.200254 1.63955 0.503335L6.74544 5.34891L11.8583 0.496708C12.1776 0.193817 12.6777 0.193817 12.9969 0.496638C13.1553 0.646983 13.2461 0.857063 13.2461 1.0731Z" fill="#373737"/>
</g>
</g>
</g>
<defs>
<clipPath id="clip0_393_4445">
<rect width="13" height="7" fill="white" transform="translate(0.25 0.269531)"/>
</clipPath>
<clipPath id="clip1_393_4445">
<rect width="13" height="7" fill="white" transform="translate(0.25 0.269531)"/>
</clipPath>
<clipPath id="clip2_393_4445">
<rect width="12.9944" height="7" fill="white" transform="translate(0.251953 0.269531)"/>
</clipPath>
</defs>
</svg>
