<svg width="105" height="15" viewBox="0 0 105 15" fill="none" xmlns="http://www.w3.org/2000/svg">
<path d="M60.8225 13.4913C62.5592 13.4137 64.3189 13.2924 66.0527 13.1372C66.2646 13.1252 66.4646 13.0355 66.6144 12.8851C66.7642 12.7348 66.8532 12.5345 66.8644 12.3225C66.8582 12.2222 66.831 12.1243 66.7847 12.0352C66.7383 11.946 66.6738 11.8675 66.5952 11.8048C66.5167 11.7421 66.4259 11.6966 66.3287 11.6711C66.2315 11.6457 66.13 11.6409 66.0308 11.6571C64.3249 11.8122 62.5941 11.9286 60.8841 12.0052H60.8752C59.8586 12.051 58.8271 12.0828 57.8065 12.1047C57.5952 12.1046 57.3909 12.1807 57.231 12.319C57.0712 12.4573 56.9665 12.6485 56.9361 12.8577C56.9321 12.9576 56.9494 13.0573 56.9869 13.15C57.0243 13.2427 57.0812 13.3264 57.1536 13.3954C57.226 13.4644 57.3123 13.5171 57.4067 13.5502C57.5011 13.5832 57.6014 13.5957 57.7011 13.5868C58.7366 13.5689 59.79 13.5361 60.8185 13.4873L60.8225 13.4913ZM46.7483 13.2397C46.9429 13.2336 47.1302 13.1644 47.2819 13.0423C47.4336 12.9202 47.5413 12.7521 47.5888 12.5633C47.6063 12.4653 47.6022 12.3647 47.577 12.2684C47.5517 12.1722 47.5059 12.0825 47.4426 12.0057C47.3793 11.9289 47.3001 11.8668 47.2105 11.8236C47.1208 11.7804 47.0229 11.7572 46.9234 11.7555C44.2148 11.5337 41.5141 11.2065 38.895 10.7827C38.6828 10.7481 38.4652 10.7898 38.2808 10.9003C38.0963 11.0108 37.957 11.1831 37.8874 11.3865C37.8601 11.4818 37.8541 11.582 37.8697 11.6799C37.8853 11.7778 37.9222 11.8711 37.9778 11.9533C38.0333 12.0354 38.1062 12.1043 38.1913 12.1552C38.2764 12.2062 38.3716 12.2378 38.4703 12.2479C41.1341 12.6786 43.8805 13.0119 46.6339 13.2377C46.672 13.2406 46.7102 13.2413 46.7483 13.2397ZM77.0403 11.5914C77.0854 11.5893 77.1302 11.584 77.1746 11.5755C79.9598 11.0433 82.733 10.4007 85.4227 9.66665C85.6273 9.62246 85.8069 9.50117 85.9244 9.32797C86.0418 9.15476 86.088 8.94297 86.0534 8.73659C86.0227 8.63928 85.9728 8.54911 85.9067 8.47141C85.8405 8.39372 85.7595 8.33008 85.6683 8.28427C85.5771 8.23845 85.4777 8.21139 85.3759 8.20468C85.2741 8.19797 85.172 8.21175 85.0756 8.2452C82.4336 8.96637 79.7041 9.59801 76.9706 10.1212C76.7621 10.1513 76.5726 10.259 76.44 10.4228C76.3074 10.5865 76.2415 10.7943 76.2554 11.0045C76.2885 11.1831 76.3876 11.3427 76.5331 11.4515C76.6785 11.5602 76.8596 11.6102 77.0403 11.5914ZM28.1591 9.94915C28.3274 9.94312 28.4908 9.8907 28.6313 9.79766C28.7717 9.70463 28.8837 9.57461 28.9549 9.42195C28.9957 9.33187 29.0161 9.23387 29.0145 9.13499C29.0129 9.0361 28.9895 8.93879 28.9458 8.85005C28.9022 8.76132 28.8394 8.68335 28.762 8.62177C28.6846 8.56018 28.5946 8.51651 28.4983 8.49388C28.3381 8.44813 28.179 8.40336 28.0208 8.35761C25.8782 7.73889 23.7257 7.0237 21.6437 6.33237L20.9375 6.09364C20.7309 6.02851 20.5079 6.03828 20.3078 6.12124C20.1077 6.20419 19.9432 6.35503 19.8433 6.54723C19.7978 6.63494 19.7723 6.73166 19.7687 6.83042C19.7651 6.92918 19.7834 7.0275 19.8225 7.1183C19.8615 7.20909 19.9202 7.29009 19.9943 7.35544C20.0684 7.42079 20.1562 7.46886 20.2511 7.49618L20.9544 7.72994C23.0512 8.42624 25.2197 9.14641 27.3922 9.77408L27.8796 9.91334C27.9702 9.94052 28.0646 9.95261 28.1591 9.94915ZM95.8563 6.1583C95.9607 6.15354 96.0635 6.13135 96.1606 6.09265C98.8215 5.03626 101.428 3.8625 103.904 2.60518C103.998 2.56568 104.083 2.50757 104.154 2.43435C104.225 2.36113 104.28 2.27431 104.317 2.17914C104.353 2.08397 104.37 1.9824 104.366 1.88057C104.362 1.77873 104.338 1.67873 104.294 1.5866C104.18 1.41148 104.003 1.28666 103.8 1.23767C103.596 1.18868 103.382 1.2192 103.2 1.323C100.774 2.55445 98.2267 3.70434 95.6155 4.73884C95.4193 4.80387 95.2568 4.94399 95.1635 5.12854C95.0703 5.3131 95.054 5.52706 95.1182 5.72361C95.1818 5.86301 95.2867 5.97949 95.4187 6.05725C95.5507 6.135 95.7035 6.17028 95.8563 6.1583ZM10.3289 4.59461C10.5062 4.58863 10.6779 4.53067 10.8226 4.42791C10.9672 4.32516 11.0785 4.18216 11.1425 4.01668C11.1767 3.92317 11.1896 3.82325 11.1804 3.72413C11.1712 3.62501 11.1402 3.52917 11.0894 3.44351C11.0387 3.35786 10.9696 3.28454 10.8871 3.22885C10.8046 3.17315 10.7108 3.13646 10.6124 3.12144C9.65247 2.9225 8.70252 2.74643 7.78838 2.60916C5.98024 2.34036 4.15441 2.20835 2.32641 2.21426C2.11281 2.20917 1.90467 2.28212 1.74098 2.41944C1.57728 2.55677 1.46926 2.74906 1.43714 2.9603C1.43037 3.06022 1.44524 3.16042 1.48073 3.25408C1.51622 3.34773 1.57149 3.43262 1.64278 3.50297C1.71407 3.57331 1.79969 3.62745 1.89381 3.66168C1.98793 3.69592 2.08832 3.70945 2.18815 3.70136C3.92642 3.69798 5.66247 3.82566 7.38154 4.08333C8.26186 4.21463 9.177 4.38174 10.1041 4.58068C10.1781 4.59477 10.2537 4.59945 10.3289 4.59461Z" fill="white" stroke="white" stroke-width="0.994713"/>
</svg>
