<svg width="47" height="45" viewBox="0 0 47 45" fill="none" xmlns="http://www.w3.org/2000/svg">
<g clip-path="url(#clip0_393_1392)">
<g clip-path="url(#clip1_393_1392)">
<g clip-path="url(#clip2_393_1392)">
<path d="M46.5637 0.831812C46.3403 0.62388 46.0472 0.506949 45.742 0.503965C45.4368 0.500981 45.1416 0.612159 44.9141 0.815683C44.9046 0.824481 44.8973 0.828879 44.887 0.83841L34.3031 11.4545L29.4643 6.65236C29.2419 6.43361 28.943 6.31011 28.6311 6.30805C28.3191 6.306 28.0187 6.42556 27.7934 6.64136L27.7831 6.65089L27.7648 6.66922C27.5559 6.88454 27.4374 7.17174 27.4337 7.47175C27.43 7.77176 27.5414 8.06178 27.745 8.28217C28.5302 9.06885 31.9555 12.4949 33.6616 14.1914C33.7654 14.2939 33.8906 14.372 34.0282 14.4202C34.1192 14.4508 34.2144 14.4671 34.3105 14.4686C34.4337 14.4612 34.5542 14.429 34.6646 14.374C34.7751 14.3189 34.8734 14.2421 34.9534 14.1482L46.5637 2.51954C46.7778 2.29101 46.897 1.98958 46.897 1.67641C46.897 1.36325 46.7778 1.06181 46.5637 0.833278V0.831812Z" fill="#6546BD"/>
<path d="M46.7525 15.7994C46.7051 15.5799 46.6436 15.3637 46.5684 15.1521C46.5369 15.0648 46.4995 14.9812 46.4636 14.8969C46.385 14.7109 46.2954 14.5297 46.1953 14.3544C46.1461 14.2693 46.097 14.1858 46.0435 14.1051C45.9383 13.9473 45.824 13.7958 45.7011 13.6513C45.6373 13.578 45.5772 13.4973 45.5098 13.4269C45.3752 13.2891 45.2322 13.1598 45.0816 13.0398C45.0134 12.9841 44.9511 12.9196 44.8792 12.8683C44.6672 12.7146 44.4417 12.5804 44.2055 12.4672C44.0999 12.4167 43.9855 12.3844 43.8763 12.3419C43.767 12.2993 43.6468 12.2422 43.5258 12.2084C43.4987 12.2011 43.4694 12.2011 43.443 12.1945C43.2807 12.1572 43.1165 12.1291 42.951 12.1102C42.8363 12.0846 42.7203 12.0648 42.6035 12.0508H41.7706C41.6084 12.0497 41.4476 12.0806 41.2972 12.1416C41.1469 12.2027 41.0101 12.2927 40.8946 12.4067C40.7791 12.5206 40.6872 12.6562 40.6241 12.8056C40.561 12.9551 40.5279 13.1155 40.5268 13.2778C40.5257 13.44 40.5566 13.6008 40.6177 13.7511C40.6787 13.9015 40.7688 14.0383 40.8827 14.1538C40.9966 14.2693 41.1322 14.3612 41.2817 14.4243C41.4311 14.4874 41.5915 14.5204 41.7538 14.5215C41.7596 14.5215 41.7648 14.5215 41.7706 14.5215H42.4422C42.5127 14.5255 42.583 14.5333 42.6526 14.545C42.8825 14.5719 43.1058 14.6389 43.3125 14.743C43.3513 14.7628 43.3858 14.7884 43.4239 14.8112C43.6264 14.9303 43.8085 15.0811 43.9635 15.2576C43.9899 15.2884 44.0112 15.3244 44.0368 15.3573C44.1941 15.5551 44.32 15.776 44.41 16.0121C44.4195 16.037 44.4232 16.0648 44.432 16.0905C44.5253 16.3597 44.5748 16.6422 44.5786 16.927C44.5786 16.9344 44.5786 16.9417 44.5786 16.949V19.4132H2.87293V16.9578C2.83982 16.3494 3.04834 15.7525 3.45312 15.2971C3.8579 14.8416 4.42618 14.5645 5.03428 14.526H26.8164C27.1442 14.526 27.4585 14.3958 27.6902 14.164C27.922 13.9323 28.0522 13.618 28.0522 13.2902C28.0522 12.9625 27.922 12.6482 27.6902 12.4164C27.4585 12.1847 27.1442 12.0545 26.8164 12.0545H5.03428C2.56427 12.0545 0.554688 14.254 0.554688 16.9578V39.589C0.554688 42.2914 2.56501 44.4909 5.03428 44.4909H42.4122C44.8822 44.4909 46.8918 42.2914 46.8918 39.589V16.9468C46.8899 16.6367 46.8609 16.3274 46.8052 16.0223C46.792 15.9468 46.7693 15.875 46.7525 15.7994ZM44.5735 39.589C44.6066 40.1974 44.3981 40.7943 43.9933 41.2497C43.5885 41.7052 43.0203 41.9823 42.4122 42.0209H5.03428C4.42625 41.9821 3.85808 41.7049 3.45334 41.2495C3.0486 40.7941 2.84001 40.1973 2.87293 39.589V26.7286H44.5735V39.589Z" fill="#6546BD"/>
</g>
</g>
</g>
<defs>
<clipPath id="clip0_393_1392">
<rect width="46.34" height="44" fill="white" transform="translate(0.554688 0.5)"/>
</clipPath>
<clipPath id="clip1_393_1392">
<rect width="46.34" height="44" fill="white" transform="translate(0.554688 0.5)"/>
</clipPath>
<clipPath id="clip2_393_1392">
<rect width="46.34" height="43.9895" fill="white" transform="translate(0.554688 0.503906)"/>
</clipPath>
</defs>
</svg>
