<svg width="45" height="45" viewBox="0 0 45 45" fill="none" xmlns="http://www.w3.org/2000/svg">
<g clip-path="url(#clip0_393_1400)">
<g clip-path="url(#clip1_393_1400)">
<g clip-path="url(#clip2_393_1400)">
<path d="M22.6806 0.5C16.8509 0.511251 11.2634 2.83307 7.14245 6.95663C3.02151 11.0802 0.70287 16.6692 0.695312 22.4989C0.702105 28.3313 3.02191 33.9228 7.14603 38.0469C11.2702 42.171 16.8618 44.491 22.6942 44.4978C28.5271 44.4893 34.1185 42.168 38.2424 38.043C42.3663 33.918 44.6861 28.3259 44.6931 22.493C44.6797 16.6608 42.3561 11.0716 38.2302 6.94947C34.1043 2.8273 28.5128 0.508133 22.6806 0.5ZM22.6949 42.2678C19.5755 42.2639 16.5015 41.5237 13.7221 40.1075C13.7617 39.21 13.8293 38.3939 13.9276 37.6804C14.1395 36.1024 14.6711 35.8038 15.1844 35.5149C15.6335 35.3438 16.0052 35.0151 16.2299 34.5902C16.4545 34.1654 16.5168 33.6733 16.4053 33.2058C16.3775 32.7297 16.4854 32.2554 16.7154 31.8375C17.2625 30.7665 17.3932 29.5307 17.0821 28.369C16.634 26.7968 15.3683 26.1859 14.0286 25.5384C12.4491 24.8297 10.9821 23.8925 9.67533 22.7571C7.42704 20.797 6.06375 20.7706 5.24906 20.7545C5.07087 20.7545 5.07104 20.7544 4.84445 19.9229C4.78652 19.708 4.65742 19.2343 4.63249 19.0524L4.69264 19.0259C5.27302 18.7869 5.79922 18.4336 6.24015 17.9869C6.68108 17.5401 7.02772 17.0092 7.25918 16.4258C8.03016 14.9026 9.18058 13.6038 10.5998 12.6551C10.7326 12.7867 10.8905 12.8906 11.0639 12.9605C11.2373 13.0304 11.4226 13.065 11.6095 13.0622C12.2695 13.0622 12.9139 12.6537 13.7543 11.6975C14.0516 11.4296 14.2915 11.1044 14.4597 10.7413C14.6278 10.3782 14.7206 9.9847 14.7325 9.58475C14.7053 9.32507 14.6237 9.07396 14.494 8.84734C14.3644 8.62071 14.1892 8.42359 13.9792 8.26854C14.1017 8.05731 14.2422 7.85696 14.3988 7.66951C14.4941 7.54779 14.5775 7.43928 14.6523 7.34028C14.6853 7.49913 14.732 7.65491 14.7912 7.80593C14.8841 8.12543 15.0746 8.40777 15.3362 8.61335C15.5978 8.81892 15.9168 8.9374 16.2492 8.95207C16.4752 8.95032 16.698 8.8944 16.898 8.78915C17.0981 8.6839 17.2698 8.53224 17.3993 8.34695C17.5966 8.08443 18.6196 7.48399 23.2607 6.41704C24.0748 6.23367 24.823 5.83157 25.4255 5.25408C26.0279 4.67658 26.4618 3.9456 26.6794 3.13994C27.8155 3.37375 28.9289 3.70714 30.0064 4.13641C29.7781 4.36939 29.4945 4.54086 29.1822 4.635L28.8284 4.7451C27.9888 4.99662 27.2647 5.21366 26.9164 5.96016C26.811 6.23073 26.761 6.51953 26.7682 6.80982C26.7753 7.10012 26.84 7.38605 26.9586 7.65107C26.2206 7.92507 25.4464 8.08917 24.6607 8.13803C24.4854 8.149 24.3149 8.20254 24.1651 8.29414C23.6467 8.6149 23.1992 9.03794 22.8496 9.53731C22.5 10.0367 22.2561 10.602 22.1321 11.1989C22.0783 11.735 22.1501 12.2763 22.3419 12.7799C22.5337 13.2834 22.8402 13.7354 23.237 14.0998L23.2685 14.1335C23.1615 14.2295 22.9594 14.3952 22.5839 14.6724C21.0249 15.8302 18.6702 17.58 19.7775 21.8691C20.7968 25.8201 23.3584 26.6493 25.3273 26.6493C26.2713 26.6385 27.2069 26.4677 28.0937 26.1441C28.6165 26.804 29.378 28.3844 28.9072 31.7906C28.5559 34.3571 28.9323 36.4278 29.9692 37.6172C30.2478 37.9507 30.5965 38.2188 30.9903 38.4023C31.3842 38.5858 31.814 38.6802 32.2486 38.679C33.6418 38.679 35.1082 37.7368 36.3827 36.0253C39.604 31.6937 40.3324 29.7014 39.7663 26.7572C39.6299 26.0504 39.7822 25.8215 40.7832 25.2239C41.1551 25.0739 41.4845 24.835 41.7427 24.5282C42.001 24.2214 42.1805 23.8559 42.2648 23.4639C42.2978 23.4375 42.3377 23.4097 42.3722 23.3811L42.4116 23.3518L42.451 23.3224C42.2476 28.3543 40.1212 33.1165 36.5108 36.6274C32.8263 40.251 27.8628 42.2774 22.6949 42.2678ZM12.3808 9.837C12.2853 9.97273 12.1821 10.1028 12.0714 10.2264L11.9919 10.3166C11.8935 10.1463 11.7509 10.0056 11.5795 9.90897C11.4081 9.81237 11.214 9.76338 11.0173 9.76736C10.8218 9.7664 10.6294 9.81465 10.4573 9.90754C10.2853 10.0004 10.1392 10.1351 10.0327 10.2991C9.85929 10.4444 9.67747 10.5796 9.48843 10.7039C7.67797 11.8801 6.2143 13.5185 5.24906 15.4497C5.03306 16.0285 4.62803 16.5173 4.09898 16.8364C5.46655 12.5055 8.25053 8.76048 12.0041 6.20364C12.0379 6.25831 12.0761 6.31022 12.118 6.35903C12.2003 6.45583 12.2959 6.54032 12.4023 6.60985C11.4585 7.93712 11.4539 8.96658 12.3808 9.837ZM14.9316 28.9842C15.0935 29.6718 14.9906 30.3952 14.643 31.0102C14.2559 31.7837 14.1007 32.6528 14.1969 33.5123L14.1489 33.5393L14.0887 33.5732C13.288 34.0227 12.0785 34.701 11.7148 37.3863C11.6584 37.8131 11.6091 38.2663 11.568 38.7458C9.01177 36.8998 6.92592 34.4784 5.47821 31.6773C4.0305 28.8761 3.26134 25.7737 3.23392 22.6206C3.23392 22.4007 3.23438 22.1807 3.24538 21.9607C3.43981 22.3008 3.727 22.578 4.07392 22.7599C4.42084 22.9418 4.81294 23.0208 5.20323 22.9873C5.74513 22.9968 6.56332 23.0123 8.20444 24.4422C9.66166 25.708 11.2954 26.7549 13.0539 27.5505C14.3189 28.1592 14.7644 28.3998 14.9309 28.9835L14.9316 28.9842ZM22.7529 4.24132C20.749 4.6203 18.7918 5.21429 16.9152 6.01297C16.9928 5.82105 17.1124 5.64875 17.2647 5.50847C17.5317 5.31632 17.7287 5.04292 17.8275 4.72917C17.9264 4.41541 17.9211 4.07812 17.8125 3.76761C17.7855 3.69881 17.753 3.63235 17.7151 3.56889C19.8864 2.97441 22.1424 2.74782 24.3885 2.89861C24.2423 3.23441 24.0181 3.5309 23.7354 3.76385C23.4528 3.99681 23.1191 4.15973 22.7615 4.23917L22.7794 4.31239L22.7529 4.24132ZM40.834 18.7606C40.6813 19.0604 40.615 19.3965 40.6421 19.7319C40.6691 20.0672 40.7885 20.3884 40.9872 20.6598C41.3759 21.3263 41.3761 21.3264 41.071 21.5567C40.8054 21.7177 40.5771 21.9335 40.4015 22.1897C40.2258 22.4459 40.1064 22.7365 40.052 23.0422C39.9787 23.0921 39.8551 23.1742 39.641 23.3026C38.8211 23.7887 37.1139 24.8 37.5685 27.1751C37.996 29.386 37.382 30.9311 34.5859 34.69C33.7932 35.7547 32.9318 36.4059 32.2851 36.4315C32.1638 36.4396 32.0425 36.418 31.9313 36.3687C31.8202 36.3194 31.7225 36.2438 31.647 36.1485C31.0479 35.4614 30.8532 33.9823 31.1128 32.0919C32.0038 25.6338 28.9718 23.9318 28.8427 23.8629C28.6807 23.7759 28.4997 23.7304 28.3157 23.7308C28.1442 23.7304 27.975 23.7693 27.8208 23.8445C27.0341 24.1996 26.1845 24.3948 25.3216 24.4186C23.6035 24.4186 22.4617 23.3729 21.933 21.3102C21.1997 18.4694 22.5834 17.4451 23.9202 16.4544C24.7268 15.8546 25.4922 15.2885 25.5758 14.3139C25.5916 13.9854 25.5337 13.6573 25.4068 13.3538C25.28 13.0503 25.0874 12.7788 24.8425 12.5591C24.6845 12.4271 24.5573 12.2621 24.4702 12.0756C24.383 11.889 24.3376 11.6856 24.3377 11.4798C24.4659 11.0179 24.7477 10.6134 25.1369 10.3334C26.3101 10.2147 28.3592 9.84811 29.0397 8.7247C29.187 8.48565 29.2737 8.21417 29.2917 7.93394C29.3098 7.65371 29.2583 7.37318 29.1428 7.11721C29.1237 7.07322 29.1073 7.03377 29.0927 6.99637C29.2312 6.95164 29.3763 6.90749 29.4657 6.88036L29.8417 6.76596C30.7399 6.49315 31.5168 5.91944 32.0416 5.14111C34.4907 6.47392 36.6298 8.31051 38.3176 10.53C40.0053 12.7495 41.2038 15.3014 41.8337 18.0177C41.6257 18.0683 41.4298 18.1603 41.2579 18.288C41.0861 18.4157 40.9417 18.5767 40.8333 18.7613L40.834 18.7606Z" fill="#6546BD"/>
</g>
</g>
</g>
<defs>
<clipPath id="clip0_393_1400">
<rect width="44" height="44" fill="white" transform="translate(0.695312 0.5)"/>
</clipPath>
<clipPath id="clip1_393_1400">
<rect width="44" height="44" fill="white" transform="translate(0.695312 0.5)"/>
</clipPath>
<clipPath id="clip2_393_1400">
<rect width="44" height="43.9978" fill="white" transform="translate(0.695312 0.5)"/>
</clipPath>
</defs>
</svg>
