<svg width="29" height="45" viewBox="0 0 29 45" fill="none" xmlns="http://www.w3.org/2000/svg">
<g clip-path="url(#clip0_393_1385)">
<g clip-path="url(#clip1_393_1385)">
<g clip-path="url(#clip2_393_1385)">
<path fill-rule="evenodd" clip-rule="evenodd" d="M12.691 1.04688C12.6162 1.04918 12.5426 1.06637 12.4745 1.09743C12.4065 1.12849 12.3453 1.1728 12.2945 1.22779C12.2438 1.28277 12.2045 1.34731 12.1789 1.41764C12.1534 1.48798 12.1422 1.5627 12.1458 1.63743V5.99556C12.1445 6.14323 12.2006 6.28565 12.3024 6.39262C12.4043 6.49959 12.5437 6.56272 12.6913 6.56862C12.8389 6.57453 12.9829 6.52275 13.093 6.42426C13.203 6.32577 13.2704 6.1883 13.2808 6.04098V1.63743C13.2782 1.48174 13.2153 1.33314 13.1052 1.22296C12.9952 1.11279 12.8467 1.04966 12.691 1.04688ZM5.51635 3.31679C5.36054 3.31939 5.21183 3.38244 5.10164 3.49264C4.99145 3.60283 4.92839 3.75153 4.9258 3.90735C4.92171 3.98499 4.93605 4.06251 4.96762 4.13356C4.9992 4.20461 5.04713 4.26719 5.1075 4.31619L8.24198 7.35765C8.35032 7.46599 8.49726 7.52685 8.65047 7.52685C8.80368 7.52685 8.95061 7.46599 9.05895 7.35765C9.16729 7.24932 9.22815 7.10238 9.22815 6.94917C9.22815 6.79596 9.16729 6.64902 9.05895 6.54068L5.92664 3.4985C5.87468 3.4413 5.81135 3.39558 5.74069 3.36429C5.67004 3.333 5.59362 3.31682 5.51635 3.31679ZM19.8173 3.31679C19.7402 3.31702 19.6641 3.3333 19.5937 3.36458C19.5233 3.39587 19.4602 3.44148 19.4084 3.4985L16.2776 6.54068C16.1728 6.64852 16.1105 6.79057 16.1022 6.94068C16.0938 7.09079 16.14 7.23887 16.2321 7.35765C16.34 7.46242 16.482 7.5247 16.6321 7.53305C16.7822 7.5414 16.9303 7.49524 17.0491 7.40308L20.1821 4.36378C20.2359 4.3102 20.2785 4.24653 20.3076 4.17643C20.3367 4.10634 20.3517 4.03119 20.3517 3.9553C20.3517 3.87941 20.3367 3.80426 20.3076 3.73416C20.2785 3.66407 20.2359 3.6004 20.1821 3.54681C20.1569 3.47357 20.1074 3.41114 20.0418 3.36984C19.9763 3.32854 19.8986 3.31085 19.8216 3.31968L19.8173 3.31679ZM12.7364 7.90206C12.387 7.8918 12.0391 7.95082 11.7126 8.07574C11.3862 8.20065 11.0877 8.38897 10.8345 8.62984C10.5812 8.87071 10.3781 9.15935 10.237 9.47911C10.0959 9.79887 10.0195 10.1434 10.0122 10.4929L10.0591 25.6086L5.2921 21.0659C4.84209 20.6288 4.23932 20.3846 3.61201 20.3852C3.30814 20.3854 3.00731 20.4457 2.72679 20.5625C2.44627 20.6793 2.19158 20.8504 1.97735 21.0659L1.70479 21.3384C1.49166 21.5598 1.32862 21.8243 1.22673 22.1142C1.12484 22.4041 1.08647 22.7125 1.11424 23.0185C1.17766 23.6034 1.41474 24.1559 1.79492 24.6049L9.73964 34.7344C9.76433 34.7589 9.78029 34.7908 9.78507 34.8253C9.83049 34.8707 9.87592 34.9615 9.83049 34.9161C9.86156 34.9877 9.87705 35.0652 9.87592 35.1432V37.0497H8.55925C8.34997 37.0514 8.14537 37.1118 7.96878 37.2241C7.79219 37.3364 7.65074 37.4961 7.56057 37.685C7.36023 38.0303 7.25082 38.4208 7.24258 38.82V42.1794C7.22876 42.5815 7.33985 42.978 7.56057 43.3144C7.65825 43.4973 7.80151 43.6519 7.97648 43.7632C8.15144 43.8745 8.35218 43.9387 8.55925 43.9496H27.0373C27.2466 43.948 27.4512 43.8876 27.6278 43.7753C27.8044 43.663 27.9458 43.5032 28.036 43.3144C28.2363 42.9691 28.3457 42.5786 28.354 42.1794V38.82C28.3678 38.4179 28.2567 38.0214 28.036 37.685C27.9383 37.5021 27.7951 37.3475 27.6201 37.2362C27.4451 37.1249 27.2444 37.0607 27.0373 37.0497H25.8115C25.7825 36.2929 25.7977 35.5349 25.8569 34.7798C25.8987 34.4867 26.0075 34.2071 26.1749 33.9629C26.4815 33.3574 26.7103 32.7156 26.8556 32.0528C27.1679 30.0408 27.2887 28.0038 27.2161 25.9691C27.2161 23.6538 27.1707 21.5656 27.1707 21.5656C27.1799 21.0725 27.0454 20.5874 26.7836 20.1694C26.5218 19.7515 26.144 19.4187 25.6963 19.2118C25.2487 19.0049 24.7505 18.9327 24.2625 19.004C23.7745 19.0754 23.3178 19.2872 22.9481 19.6136C22.7492 19.1755 22.4307 18.8024 22.0291 18.5374C21.6275 18.2723 21.1593 18.126 20.6782 18.1153C20.0723 18.1112 19.4877 18.3384 19.0436 18.7505C18.8446 18.3124 18.5261 17.9393 18.1245 17.6742C17.7229 17.4092 17.2547 17.2629 16.7736 17.2521C16.2832 17.2567 15.8066 17.4156 15.4116 17.7064V10.4929C15.4091 10.146 15.3375 9.80312 15.2008 9.4843C15.0642 9.16548 14.8653 8.87712 14.6159 8.63612C14.3664 8.39512 14.0714 8.20631 13.748 8.08076C13.4247 7.95521 13.0795 7.89544 12.7328 7.90494L12.7364 7.90206ZM12.7364 9.03702C13.1391 9.02057 13.532 9.16414 13.8292 9.43637C14.1264 9.70859 14.3038 10.0874 14.3227 10.49V22.839C14.3174 22.9149 14.3273 22.9911 14.3519 23.063C14.3766 23.135 14.4154 23.2013 14.4661 23.258C14.5169 23.3147 14.5785 23.3606 14.6473 23.3931C14.7161 23.4255 14.7908 23.4438 14.8668 23.4468C14.9428 23.4499 15.0187 23.4376 15.0899 23.4108C15.1611 23.3839 15.2262 23.3431 15.2813 23.2906C15.3364 23.2382 15.3804 23.1752 15.4107 23.1054C15.441 23.0356 15.457 22.9605 15.4577 22.8844V19.8884C15.437 19.6971 15.4569 19.5037 15.5159 19.3207C15.5749 19.1376 15.6718 18.969 15.8003 18.8259C15.9288 18.6828 16.086 18.5683 16.2616 18.49C16.4373 18.4116 16.6275 18.3711 16.8198 18.3711C17.0121 18.3711 17.2023 18.4116 17.378 18.49C17.5536 18.5683 17.7108 18.6828 17.8393 18.8259C17.9678 18.969 18.0647 19.1376 18.1237 19.3207C18.1827 19.5037 18.2026 19.6971 18.1819 19.8884V23.6567C18.1765 23.7325 18.1864 23.8087 18.2111 23.8807C18.2357 23.9527 18.2746 24.019 18.3253 24.0757C18.376 24.1324 18.4376 24.1783 18.5065 24.2107C18.5753 24.2432 18.6499 24.2615 18.7259 24.2645C18.802 24.2675 18.8778 24.2553 18.949 24.2285C19.0202 24.2016 19.0853 24.1608 19.1404 24.1083C19.1955 24.0559 19.2395 23.9929 19.2698 23.9231C19.3002 23.8533 19.3161 23.7782 19.3169 23.7021V20.7508C19.3076 20.5629 19.3356 20.375 19.3991 20.198C19.4626 20.0209 19.5604 19.8581 19.687 19.7189C19.8135 19.5797 19.9662 19.4669 20.1365 19.3868C20.3067 19.3067 20.491 19.2611 20.6789 19.2524C20.8681 19.2572 21.0544 19.3002 21.2264 19.379C21.3985 19.4577 21.5528 19.5705 21.6801 19.7105C21.8074 19.8506 21.905 20.0149 21.9671 20.1937C22.0291 20.3725 22.0542 20.562 22.041 20.7508V21.5252V24.4311C22.0397 24.5788 22.0958 24.7212 22.1976 24.8281C22.2995 24.9351 22.4389 24.9982 22.5865 25.0041C22.7341 25.0101 22.8781 24.9583 22.9882 24.8598C23.0982 24.7613 23.1656 24.6238 23.176 24.4765V21.5706C23.1677 21.3792 23.1978 21.1881 23.2644 21.0085C23.3311 20.829 23.433 20.6645 23.5641 20.5249C23.6953 20.3853 23.853 20.2733 24.0281 20.1956C24.2032 20.1178 24.392 20.0759 24.5835 20.0722C24.7741 20.0662 24.9638 20.0999 25.1405 20.1713C25.3173 20.2428 25.4772 20.3503 25.61 20.487C25.7428 20.6238 25.8456 20.7868 25.9118 20.9655C25.9781 21.1443 26.0063 21.3349 25.9947 21.5252V21.616C25.9947 21.616 26.0401 23.6588 26.0401 25.9742C26.084 27.9179 25.9634 29.8618 25.6795 31.7852C25.5384 32.378 25.3407 32.9558 25.089 33.5108C24.8964 33.8663 24.7585 34.249 24.6801 34.6457C24.585 35.4592 24.5547 36.279 24.5893 37.0973H10.9655V35.1C10.9529 34.9455 10.9224 34.7931 10.8746 34.6457C10.8327 34.517 10.7714 34.3954 10.6929 34.2852C10.6633 34.2131 10.6479 34.136 10.6475 34.058L2.70419 23.9285C2.45492 23.6539 2.31019 23.3004 2.29534 22.9298C2.27039 22.7886 2.28238 22.6434 2.33013 22.5082C2.37789 22.373 2.4598 22.2525 2.56791 22.1583L2.84047 21.8857C3.07432 21.6666 3.38277 21.5447 3.70323 21.5447C4.02368 21.5447 4.33213 21.6666 4.56598 21.8857L9.65095 26.7435C9.69637 26.789 9.69637 26.8344 9.7418 26.8798C9.83134 26.9868 9.9421 27.0741 10.0671 27.1362C10.1921 27.1982 10.3285 27.2337 10.4679 27.2404C10.5562 27.2411 10.6434 27.2209 10.7223 27.1814C10.8013 27.1419 10.8698 27.0843 10.9222 27.0132C10.9981 26.9336 11.0596 26.8413 11.1039 26.7407C11.1557 26.61 11.1863 26.472 11.1948 26.3318C11.223 26.182 11.2382 26.03 11.2402 25.8775L11.1926 10.4929C11.1852 10.2922 11.2207 10.0922 11.297 9.90647C11.3732 9.72069 11.4883 9.55337 11.6345 9.41575C11.7807 9.27812 11.9547 9.17338 12.1448 9.10856C12.3348 9.04373 12.5365 9.02032 12.7364 9.0399V9.03702ZM3.656 10.808C3.5801 10.8026 3.50391 10.8125 3.43192 10.8371C3.35994 10.8618 3.29363 10.9006 3.23694 10.9514C3.18025 11.0021 3.13433 11.0637 3.1019 11.1325C3.06947 11.2014 3.05119 11.276 3.04814 11.352C3.0451 11.428 3.05736 11.5039 3.08418 11.5751C3.11101 11.6463 3.15186 11.7114 3.20432 11.7665C3.25677 11.8216 3.31976 11.8656 3.38954 11.8959C3.45933 11.9262 3.53449 11.9422 3.61057 11.9429H7.96798C8.04387 11.9483 8.12007 11.9384 8.19205 11.9137C8.26404 11.8891 8.33034 11.8503 8.38703 11.7995C8.44372 11.7488 8.48964 11.6872 8.52208 11.6183C8.55451 11.5495 8.57279 11.4749 8.57583 11.3989C8.57887 11.3228 8.56662 11.247 8.53979 11.1758C8.51296 11.1046 8.47211 11.0395 8.41966 10.9844C8.3672 10.9293 8.30421 10.8853 8.23443 10.855C8.16464 10.8247 8.08948 10.8087 8.0134 10.808H3.656ZM17.3217 10.808C17.2458 10.8026 17.1696 10.8125 17.0976 10.8371C17.0256 10.8618 16.9593 10.9006 16.9026 10.9514C16.8459 11.0021 16.8 11.0637 16.7676 11.1325C16.7351 11.2014 16.7168 11.276 16.7138 11.352C16.7108 11.428 16.723 11.5039 16.7498 11.5751C16.7767 11.6463 16.8175 11.7114 16.87 11.7665C16.9224 11.8216 16.9854 11.8656 17.0552 11.8959C17.125 11.9262 17.2002 11.9422 17.2762 11.9429H21.6344C21.7103 11.9483 21.7864 11.9384 21.8584 11.9137C21.9304 11.8891 21.9967 11.8503 22.0534 11.7995C22.1101 11.7488 22.156 11.6872 22.1885 11.6183C22.2209 11.5495 22.2392 11.4749 22.2422 11.3989C22.2453 11.3228 22.233 11.247 22.2062 11.1758C22.1793 11.1046 22.1385 11.0395 22.086 10.9844C22.0336 10.9293 21.9706 10.8853 21.9008 10.855C21.831 10.8247 21.7559 10.8087 21.6798 10.808H17.3217ZM8.60468 38.1818H27.0827C27.0373 38.1818 27.0373 38.1364 27.1282 38.2727C27.2265 38.4369 27.2739 38.6266 27.2645 38.8178V42.1773C27.2804 42.369 27.2325 42.5607 27.1282 42.7224C27.1025 42.7462 27.0864 42.7784 27.0827 42.8132H8.60468C8.57999 42.7887 8.56403 42.7568 8.55925 42.7224C8.4759 42.5523 8.42946 42.3665 8.42297 42.1773V38.82C8.40704 38.6282 8.45495 38.4366 8.55925 38.2748C8.65011 38.1386 8.65011 38.184 8.60468 38.184V38.1818Z" fill="#6546BD" stroke="#6546BD" stroke-width="1.0816"/>
</g>
</g>
</g>
<defs>
<clipPath id="clip0_393_1385">
<rect width="28.33" height="44" fill="white" transform="translate(0.564453 0.5)"/>
</clipPath>
<clipPath id="clip1_393_1385">
<rect width="28.33" height="44" fill="white" transform="translate(0.564453 0.5)"/>
</clipPath>
<clipPath id="clip2_393_1385">
<rect width="28.33" height="43.9851" fill="white" transform="translate(0.564453 0.507812)"/>
</clipPath>
</defs>
</svg>
