<svg width="75" height="45" viewBox="0 0 75 45" fill="none" xmlns="http://www.w3.org/2000/svg">
<g clip-path="url(#clip0_393_1296)">
<g clip-path="url(#clip1_393_1296)">
<g clip-path="url(#clip2_393_1296)">
<path d="M14.6755 25.9204C14.659 25.9885 14.6511 26.0583 14.652 26.1284C14.6471 26.4315 14.723 26.7306 14.8718 26.9948C15.0173 27.2486 15.2144 27.4692 15.4503 27.6422C15.695 27.8226 15.969 27.9594 16.2603 28.0465C16.5636 28.1395 16.8791 28.1864 17.1963 28.1856C17.7307 28.1961 18.2605 28.0854 18.746 27.8619C19.1965 27.6435 19.6041 27.3458 19.9493 26.983L22.2841 28.814C21.6003 29.5605 20.7548 30.1407 19.8123 30.5101C18.8738 30.8622 17.8786 31.0384 16.8763 31.0301C16.1194 31.0367 15.3663 30.9238 14.6447 30.6954C13.9864 30.4881 13.3768 30.1498 12.8526 29.7009C12.3369 29.2522 11.9261 28.6957 11.6493 28.0706C11.3456 27.371 11.1957 26.6142 11.2099 25.8515C11.2021 24.9052 11.3787 23.9664 11.7299 23.0876C12.0594 22.258 12.5467 21.5002 13.1646 20.856C13.7832 20.2165 14.5248 19.7087 15.3449 19.3635C16.2308 18.9943 17.1828 18.8096 18.1425 18.8208C18.8456 18.8128 19.5451 18.9222 20.2122 19.1445C20.8065 19.3427 21.3535 19.6613 21.819 20.0805C22.2744 20.5017 22.6301 21.0191 22.8604 21.595C23.1177 22.2579 23.2434 22.9647 23.2303 23.6757C23.225 24.0275 23.1983 24.3787 23.1505 24.7274C23.101 25.1283 23.0276 25.526 22.9308 25.9182H14.6755V25.9204ZM19.9251 23.65C19.9409 23.5739 19.9488 23.4964 19.9485 23.4186V23.1872C19.9539 22.9487 19.9082 22.7119 19.8146 22.4925C19.721 22.2731 19.5817 22.0762 19.4059 21.9151C18.9705 21.5509 18.4115 21.3686 17.8452 21.4061C17.4602 21.4 17.0782 21.4749 16.7239 21.6258C16.4092 21.7615 16.117 21.9445 15.8575 22.1685C15.6199 22.3736 15.4168 22.6157 15.2563 22.8854C15.1122 23.1229 15.0032 23.38 14.9325 23.6486H19.9258L19.9251 23.65Z" fill="#6546BD"/>
<path d="M33.9495 18.5683C33.5936 18.1263 33.1381 17.775 32.6202 17.543C32.1265 17.3014 31.5857 17.1714 31.0361 17.1621C30.7688 17.1626 30.502 17.1859 30.2386 17.2317C29.9814 17.2735 29.7344 17.3634 29.5106 17.4968C29.2963 17.627 29.1115 17.8003 28.9679 18.0058C28.8134 18.2423 28.7366 18.5211 28.7482 18.8034C28.739 19.0465 28.7989 19.2872 28.921 19.4976C29.0509 19.6966 29.2251 19.8629 29.43 19.9832C29.6828 20.136 29.9499 20.2635 30.2276 20.364C30.5357 20.4798 30.8828 20.5989 31.269 20.7214C31.8241 20.9065 32.402 21.1106 33.0025 21.3337C33.5894 21.5496 34.142 21.8494 34.643 22.2235C35.1385 22.5965 35.5552 23.064 35.869 23.5989C36.2122 24.2248 36.3799 24.9318 36.3546 25.6452C36.3759 26.4879 36.1977 27.3238 35.8346 28.0847C35.5041 28.7506 35.0256 29.332 34.4358 29.7845C33.8336 30.239 33.1514 30.5763 32.4247 30.7791C31.6653 30.9951 30.8794 31.1041 30.0899 31.1028C28.9294 31.1044 27.778 30.897 26.691 30.4905C25.6604 30.124 24.7273 29.5268 23.9629 28.7445L26.5525 26.108C26.987 26.6279 27.527 27.0495 28.1367 27.345C28.7395 27.6629 29.4092 27.8331 30.0906 27.8415C30.3785 27.8424 30.6657 27.8115 30.9468 27.7493C31.2059 27.6948 31.4528 27.5927 31.6747 27.4482C31.8843 27.3079 32.0551 27.117 32.1713 26.8931C32.3005 26.635 32.3641 26.349 32.3566 26.0604C32.365 25.7803 32.2839 25.5048 32.1252 25.2738C31.946 25.0372 31.7221 24.8381 31.466 24.6879C31.1299 24.488 30.7731 24.3252 30.4019 24.2024C29.9781 24.0559 29.4964 23.8982 28.9569 23.7293C28.4325 23.5603 27.9189 23.3595 27.4189 23.128C26.928 22.9033 26.4752 22.6031 26.0772 22.2382C25.6754 21.8664 25.3517 21.4183 25.1252 20.9199C24.8712 20.325 24.7493 19.6821 24.7678 19.0355C24.7444 18.222 24.9359 17.4167 25.3229 16.7007C25.6817 16.0652 26.18 15.5193 26.7803 15.1042C27.398 14.6803 28.0869 14.3709 28.8141 14.1909C29.5619 13.9995 30.3308 13.9026 31.1028 13.9023C32.0691 13.9095 33.0272 14.0816 33.9356 14.4113C34.873 14.7356 35.7346 15.2472 36.4681 15.9149L33.9495 18.5683Z" fill="#6546BD"/>
<path d="M42.54 14.3125H38.5625V30.6832H42.54V14.3125Z" fill="#6546BD"/>
<path d="M59.9057 30.6832L59.998 19.1H59.9284L55.6733 30.6832H52.8991L48.7597 19.1H48.6902L48.7824 30.6832H45.0605V14.3125H50.6859L54.4144 24.8103H54.5067L58.0711 14.3125H63.7887V30.6832H59.9057Z" fill="#6546BD"/>
<path d="M66.0293 43.6237C66.0293 43.4509 66.0806 43.282 66.1766 43.1383C66.2726 42.9946 66.409 42.8826 66.5687 42.8165C66.7283 42.7504 66.904 42.7331 67.0735 42.7668C67.243 42.8005 67.3986 42.8837 67.5208 43.0059C67.643 43.1281 67.7262 43.2838 67.76 43.4533C67.7937 43.6228 67.7764 43.7984 67.7102 43.9581C67.6441 44.1177 67.5321 44.2542 67.3884 44.3502C67.2447 44.4462 67.0758 44.4974 66.903 44.4974C66.6714 44.4972 66.4492 44.4051 66.2854 44.2413C66.1216 44.0775 66.0295 43.8554 66.0293 43.6237Z" fill="#6546BD"/>
<path d="M63.0918 43.6237C63.0918 43.4509 63.143 43.282 63.239 43.1383C63.335 42.9946 63.4715 42.8826 63.6312 42.8165C63.7908 42.7504 63.9665 42.7331 64.136 42.7668C64.3054 42.8005 64.4611 42.8837 64.5833 43.0059C64.7055 43.1281 64.7887 43.2838 64.8224 43.4533C64.8561 43.6228 64.8388 43.7984 64.7727 43.9581C64.7066 44.1177 64.5946 44.2542 64.4509 44.3502C64.3072 44.4462 64.1383 44.4974 63.9655 44.4974C63.7338 44.4972 63.5117 44.4051 63.3479 44.2413C63.1841 44.0775 63.092 43.8554 63.0918 43.6237Z" fill="#6546BD"/>
<path d="M60.1543 43.6237C60.1543 43.4509 60.2055 43.282 60.3015 43.1383C60.3975 42.9946 60.534 42.8826 60.6937 42.8165C60.8533 42.7504 61.029 42.7331 61.1985 42.7668C61.368 42.8005 61.5236 42.8837 61.6458 43.0059C61.768 43.1281 61.8512 43.2838 61.8849 43.4533C61.9186 43.6228 61.9014 43.7984 61.8352 43.9581C61.7691 44.1177 61.6571 44.2542 61.5134 44.3502C61.3697 44.4462 61.2008 44.4974 61.028 44.4974C60.7963 44.4972 60.5742 44.4051 60.4104 44.2413C60.2466 44.0775 60.1545 43.8554 60.1543 43.6237Z" fill="#6546BD"/>
<path d="M57.2148 43.6237C57.2148 43.4509 57.2661 43.282 57.3621 43.1383C57.4581 42.9946 57.5946 42.8826 57.7542 42.8165C57.9139 42.7504 58.0895 42.7331 58.259 42.7668C58.4285 42.8005 58.5842 42.8837 58.7064 43.0059C58.8286 43.1281 58.9118 43.2838 58.9455 43.4533C58.9792 43.6228 58.9619 43.7984 58.8958 43.9581C58.8296 44.1177 58.7177 44.2542 58.574 44.3502C58.4303 44.4462 58.2614 44.4974 58.0886 44.4974C57.8569 44.4972 57.6348 44.4051 57.471 44.2413C57.3072 44.0775 57.215 43.8554 57.2148 43.6237Z" fill="#6546BD"/>
<path d="M54.2754 43.6237C54.2754 43.4509 54.3266 43.282 54.4226 43.1383C54.5186 42.9946 54.6551 42.8826 54.8147 42.8165C54.9744 42.7504 55.1501 42.7331 55.3196 42.7668C55.4891 42.8005 55.6447 42.8837 55.7669 43.0059C55.8891 43.1281 55.9723 43.2838 56.006 43.4533C56.0397 43.6228 56.0225 43.7984 55.9563 43.9581C55.8902 44.1177 55.7782 44.2542 55.6345 44.3502C55.4908 44.4462 55.3219 44.4974 55.1491 44.4974C54.9174 44.4972 54.6953 44.4051 54.5315 44.2413C54.3677 44.0775 54.2756 43.8554 54.2754 43.6237Z" fill="#6546BD"/>
<path d="M51.3379 43.6237C51.3379 43.4509 51.3891 43.282 51.4851 43.1383C51.5811 42.9946 51.7176 42.8826 51.8772 42.8165C52.0369 42.7504 52.2126 42.7331 52.3821 42.7668C52.5516 42.8005 52.7072 42.8837 52.8294 43.0059C52.9516 43.1281 53.0348 43.2838 53.0686 43.4533C53.1023 43.6228 53.085 43.7984 53.0188 43.9581C52.9527 44.1177 52.8407 44.2542 52.697 44.3502C52.5533 44.4462 52.3844 44.4974 52.2116 44.4974C51.9799 44.4972 51.7578 44.4051 51.594 44.2413C51.4302 44.0775 51.3381 43.8554 51.3379 43.6237Z" fill="#6546BD"/>
<path d="M48.4004 43.6237C48.4004 43.4509 48.4516 43.282 48.5476 43.1383C48.6436 42.9946 48.7801 42.8826 48.9397 42.8165C49.0994 42.7504 49.2751 42.7331 49.4445 42.7668C49.614 42.8005 49.7697 42.8837 49.8919 43.0059C50.0141 43.1281 50.0973 43.2838 50.131 43.4533C50.1647 43.6228 50.1474 43.7984 50.0813 43.9581C50.0152 44.1177 49.9032 44.2542 49.7595 44.3502C49.6158 44.4462 49.4469 44.4974 49.2741 44.4974C49.0424 44.4972 48.8203 44.4051 48.6565 44.2413C48.4927 44.0775 48.4006 43.8554 48.4004 43.6237Z" fill="#6546BD"/>
<path d="M45.459 43.6237C45.459 43.4509 45.5102 43.282 45.6062 43.1383C45.7022 42.9946 45.8387 42.8826 45.9983 42.8165C46.158 42.7504 46.3337 42.7331 46.5032 42.7668C46.6726 42.8005 46.8283 42.8837 46.9505 43.0059C47.0727 43.1281 47.1559 43.2838 47.1896 43.4533C47.2233 43.6228 47.206 43.7984 47.1399 43.9581C47.0738 44.1177 46.9618 44.2542 46.8181 44.3502C46.6744 44.4462 46.5055 44.4974 46.3327 44.4974C46.101 44.4972 45.8789 44.4051 45.7151 44.2413C45.5513 44.0775 45.4592 43.8554 45.459 43.6237Z" fill="#6546BD"/>
<path d="M42.5215 43.6237C42.5215 43.4509 42.5727 43.282 42.6687 43.1383C42.7647 42.9946 42.9012 42.8826 43.0608 42.8165C43.2205 42.7504 43.3962 42.7331 43.5656 42.7668C43.7351 42.8005 43.8908 42.8837 44.013 43.0059C44.1352 43.1281 44.2184 43.2838 44.2521 43.4533C44.2858 43.6228 44.2685 43.7984 44.2024 43.9581C44.1363 44.1177 44.0243 44.2542 43.8806 44.3502C43.7369 44.4462 43.568 44.4974 43.3952 44.4974C43.1635 44.4972 42.9414 44.4051 42.7776 44.2413C42.6138 44.0775 42.5217 43.8554 42.5215 43.6237Z" fill="#6546BD"/>
<path d="M39.584 43.6237C39.584 43.4509 39.6352 43.282 39.7312 43.1383C39.8272 42.9946 39.9637 42.8826 40.1233 42.8165C40.283 42.7504 40.4587 42.7331 40.6281 42.7668C40.7976 42.8005 40.9533 42.8837 41.0755 43.0059C41.1977 43.1281 41.2809 43.2838 41.3146 43.4533C41.3483 43.6228 41.331 43.7984 41.2649 43.9581C41.1988 44.1177 41.0868 44.2542 40.9431 44.3502C40.7994 44.4462 40.6305 44.4974 40.4577 44.4974C40.226 44.4972 40.0039 44.4051 39.8401 44.2413C39.6763 44.0775 39.5842 43.8554 39.584 43.6237Z" fill="#6546BD"/>
<path d="M36.6445 43.6237C36.6445 43.4509 36.6958 43.282 36.7918 43.1383C36.8878 42.9946 37.0242 42.8826 37.1839 42.8165C37.3435 42.7504 37.5192 42.7331 37.6887 42.7668C37.8582 42.8005 38.0139 42.8837 38.1361 43.0059C38.2582 43.1281 38.3415 43.2838 38.3752 43.4533C38.4089 43.6228 38.3916 43.7984 38.3255 43.9581C38.2593 44.1177 38.1473 44.2542 38.0037 44.3502C37.86 44.4462 37.6911 44.4974 37.5183 44.4974C37.2866 44.4972 37.0645 44.4051 36.9007 44.2413C36.7368 44.0775 36.6447 43.8554 36.6445 43.6237Z" fill="#6546BD"/>
<path d="M33.7051 43.6237C33.7051 43.4509 33.7563 43.282 33.8523 43.1383C33.9483 42.9946 34.0848 42.8826 34.2444 42.8165C34.4041 42.7504 34.5798 42.7331 34.7492 42.7668C34.9187 42.8005 35.0744 42.8837 35.1966 43.0059C35.3188 43.1281 35.402 43.2838 35.4357 43.4533C35.4694 43.6228 35.4521 43.7984 35.386 43.9581C35.3199 44.1177 35.2079 44.2542 35.0642 44.3502C34.9205 44.4462 34.7516 44.4974 34.5788 44.4974C34.3471 44.4972 34.125 44.4051 33.9612 44.2413C33.7974 44.0775 33.7053 43.8554 33.7051 43.6237Z" fill="#6546BD"/>
<path d="M30.7676 43.6237C30.7676 43.4509 30.8188 43.282 30.9148 43.1383C31.0108 42.9946 31.1473 42.8826 31.3069 42.8165C31.4666 42.7504 31.6423 42.7331 31.8118 42.7668C31.9812 42.8005 32.1369 42.8837 32.2591 43.0059C32.3813 43.1281 32.4645 43.2838 32.4982 43.4533C32.5319 43.6228 32.5146 43.7984 32.4485 43.9581C32.3824 44.1177 32.2704 44.2542 32.1267 44.3502C31.983 44.4462 31.8141 44.4974 31.6413 44.4974C31.4096 44.4972 31.1875 44.4051 31.0237 44.2413C30.8599 44.0775 30.7678 43.8554 30.7676 43.6237Z" fill="#6546BD"/>
<path d="M27.8281 43.6237C27.8281 43.4509 27.8794 43.282 27.9754 43.1383C28.0714 42.9946 28.2078 42.8826 28.3675 42.8165C28.5271 42.7504 28.7028 42.7331 28.8723 42.7668C29.0418 42.8005 29.1975 42.8837 29.3197 43.0059C29.4418 43.1281 29.5251 43.2838 29.5588 43.4533C29.5925 43.6228 29.5752 43.7984 29.509 43.9581C29.4429 44.1177 29.3309 44.2542 29.1872 44.3502C29.0436 44.4462 28.8746 44.4974 28.7018 44.4974C28.4702 44.4972 28.2481 44.4051 28.0842 44.2413C27.9204 44.0775 27.8283 43.8554 27.8281 43.6237Z" fill="#6546BD"/>
<path d="M24.8887 43.6237C24.8887 43.4509 24.9399 43.282 25.0359 43.1383C25.1319 42.9946 25.2684 42.8826 25.428 42.8165C25.5877 42.7504 25.7634 42.7331 25.9328 42.7668C26.1023 42.8005 26.258 42.8837 26.3802 43.0059C26.5024 43.1281 26.5856 43.2838 26.6193 43.4533C26.653 43.6228 26.6357 43.7984 26.5696 43.9581C26.5035 44.1177 26.3915 44.2542 26.2478 44.3502C26.1041 44.4462 25.9352 44.4974 25.7624 44.4974C25.5307 44.4972 25.3086 44.4051 25.1448 44.2413C24.981 44.0775 24.8889 43.8554 24.8887 43.6237Z" fill="#6546BD"/>
<path d="M21.9512 43.6237C21.9512 43.4509 22.0024 43.282 22.0984 43.1383C22.1944 42.9946 22.3309 42.8826 22.4905 42.8165C22.6502 42.7504 22.8259 42.7331 22.9953 42.7668C23.1648 42.8005 23.3205 42.8837 23.4427 43.0059C23.5649 43.1281 23.6481 43.2838 23.6818 43.4533C23.7155 43.6228 23.6982 43.7984 23.6321 43.9581C23.566 44.1177 23.454 44.2542 23.3103 44.3502C23.1666 44.4462 22.9977 44.4974 22.8249 44.4974C22.5932 44.4972 22.3711 44.4051 22.2073 44.2413C22.0435 44.0775 21.9514 43.8554 21.9512 43.6237Z" fill="#6546BD"/>
<path d="M73.7097 9.08337C73.5369 9.08337 73.3679 9.03213 73.2243 8.93612C73.0806 8.84012 72.9686 8.70366 72.9025 8.54401C72.8363 8.38436 72.819 8.20868 72.8527 8.0392C72.8864 7.86972 72.9697 7.71403 73.0918 7.59184C73.214 7.46965 73.3697 7.38644 73.5392 7.35273C73.7087 7.31901 73.8844 7.33631 74.044 7.40244C74.2037 7.46857 74.3401 7.58056 74.4361 7.72424C74.5321 7.86792 74.5834 8.03685 74.5834 8.20965C74.5832 8.44132 74.4911 8.66344 74.3273 8.82725C74.1634 8.99106 73.9413 9.08318 73.7097 9.08337Z" fill="#6546BD"/>
<path d="M73.7097 11.931C73.5369 11.931 73.3679 11.8798 73.2243 11.7838C73.0806 11.6878 72.9686 11.5513 72.9025 11.3917C72.8363 11.232 72.819 11.0563 72.8527 10.8869C72.8864 10.7174 72.9697 10.5617 73.0918 10.4395C73.214 10.3173 73.3697 10.2341 73.5392 10.2004C73.7087 10.1667 73.8844 10.184 74.044 10.2501C74.2037 10.3162 74.3401 10.4282 74.4361 10.5719C74.5321 10.7156 74.5834 10.8845 74.5834 11.0573C74.5832 11.289 74.4911 11.5111 74.3273 11.6749C74.1634 11.8387 73.9413 11.9308 73.7097 11.931Z" fill="#6546BD"/>
<path d="M73.7097 14.7826C73.5369 14.7826 73.3679 14.7313 73.2243 14.6353C73.0806 14.5393 72.9686 14.4029 72.9025 14.2432C72.8363 14.0836 72.819 13.9079 72.8527 13.7384C72.8864 13.5689 72.9697 13.4132 73.0918 13.2911C73.214 13.1689 73.3697 13.0857 73.5392 13.0519C73.7087 13.0182 73.8844 13.0355 74.044 13.1017C74.2037 13.1678 74.3401 13.2798 74.4361 13.4235C74.5321 13.5671 74.5834 13.7361 74.5834 13.9089C74.5832 14.1405 74.4911 14.3627 74.3273 14.5265C74.1634 14.6903 73.9413 14.7824 73.7097 14.7826Z" fill="#6546BD"/>
<path d="M73.7097 17.6302C73.5369 17.6302 73.3679 17.579 73.2243 17.483C73.0806 17.387 72.9686 17.2505 72.9025 17.0909C72.8363 16.9312 72.819 16.7556 72.8527 16.5861C72.8864 16.4166 72.9697 16.2609 73.0918 16.1387C73.214 16.0165 73.3697 15.9333 73.5392 15.8996C73.7087 15.8659 73.8844 15.8832 74.044 15.9493C74.2037 16.0154 74.3401 16.1274 74.4361 16.2711C74.5321 16.4148 74.5834 16.5837 74.5834 16.7565C74.5832 16.9882 74.4911 17.2103 74.3273 17.3741C74.1634 17.5379 73.9413 17.6301 73.7097 17.6302Z" fill="#6546BD"/>
<path d="M73.7097 20.4779C73.5369 20.4779 73.3679 20.4267 73.2243 20.3307C73.0806 20.2347 72.9686 20.0982 72.9025 19.9385C72.8363 19.7789 72.819 19.6032 72.8527 19.4337C72.8864 19.2643 72.9697 19.1086 73.0918 18.9864C73.214 18.8642 73.3697 18.781 73.5392 18.7473C73.7087 18.7135 73.8844 18.7309 74.044 18.797C74.2037 18.8631 74.3401 18.9751 74.4361 19.1188C74.5321 19.2625 74.5834 19.4314 74.5834 19.6042C74.5832 19.8359 74.4911 20.058 74.3273 20.2218C74.1634 20.3856 73.9413 20.4777 73.7097 20.4779Z" fill="#6546BD"/>
<path d="M73.7097 23.3256C73.5369 23.3256 73.3679 23.2743 73.2243 23.1783C73.0806 23.0823 72.9686 22.9458 72.9025 22.7862C72.8363 22.6265 72.819 22.4509 72.8527 22.2814C72.8864 22.1119 72.9697 21.9562 73.0918 21.834C73.214 21.7118 73.3697 21.6286 73.5392 21.5949C73.7087 21.5612 73.8844 21.5785 74.044 21.6446C74.2037 21.7108 74.3401 21.8228 74.4361 21.9664C74.5321 22.1101 74.5834 22.279 74.5834 22.4518C74.5832 22.6835 74.4911 22.9056 74.3273 23.0694C74.1634 23.2333 73.9413 23.3254 73.7097 23.3256Z" fill="#6546BD"/>
<path d="M73.7097 26.1732C73.5369 26.1732 73.3679 26.122 73.2243 26.026C73.0806 25.93 72.9686 25.7935 72.9025 25.6339C72.8363 25.4742 72.819 25.2985 72.8527 25.129C72.8864 24.9596 72.9697 24.8039 73.0918 24.6817C73.214 24.5595 73.3697 24.4763 73.5392 24.4426C73.7087 24.4089 73.8844 24.4262 74.044 24.4923C74.2037 24.5584 74.3401 24.6704 74.4361 24.8141C74.5321 24.9578 74.5834 25.1267 74.5834 25.2995C74.5832 25.5312 74.4911 25.7533 74.3273 25.9171C74.1634 26.0809 73.9413 26.173 73.7097 26.1732Z" fill="#6546BD"/>
<path d="M73.7097 29.0209C73.5369 29.0209 73.3679 28.9696 73.2243 28.8736C73.0806 28.7776 72.9686 28.6412 72.9025 28.4815C72.8363 28.3219 72.819 28.1462 72.8527 27.9767C72.8864 27.8072 72.9697 27.6515 73.0918 27.5293C73.214 27.4072 73.3697 27.3239 73.5392 27.2902C73.7087 27.2565 73.8844 27.2738 74.044 27.34C74.2037 27.4061 74.3401 27.5181 74.4361 27.6618C74.5321 27.8054 74.5834 27.9744 74.5834 28.1472C74.5832 28.3788 74.4911 28.6009 74.3273 28.7648C74.1634 28.9286 73.9413 29.0207 73.7097 29.0209Z" fill="#6546BD"/>
<path d="M73.7097 31.8685C73.5369 31.8685 73.3679 31.8173 73.2243 31.7213C73.0806 31.6253 72.9686 31.4888 72.9025 31.3292C72.8363 31.1695 72.819 30.9938 72.8527 30.8244C72.8864 30.6549 72.9697 30.4992 73.0918 30.377C73.214 30.2548 73.3697 30.1716 73.5392 30.1379C73.7087 30.1042 73.8844 30.1215 74.044 30.1876C74.2037 30.2537 74.3401 30.3657 74.4361 30.5094C74.5321 30.6531 74.5834 30.822 74.5834 30.9948C74.5832 31.2265 74.4911 31.4486 74.3273 31.6124C74.1634 31.7762 73.9413 31.8683 73.7097 31.8685Z" fill="#6546BD"/>
<path d="M73.7097 34.7162C73.5369 34.7162 73.3679 34.6649 73.2243 34.5689C73.0806 34.4729 72.9686 34.3365 72.9025 34.1768C72.8363 34.0172 72.819 33.8415 72.8527 33.672C72.8864 33.5025 72.9697 33.3468 73.0918 33.2247C73.214 33.1025 73.3697 33.0193 73.5392 32.9855C73.7087 32.9518 73.8844 32.9691 74.044 33.0353C74.2037 33.1014 74.3401 33.2134 74.4361 33.3571C74.5321 33.5007 74.5834 33.6697 74.5834 33.8425C74.5832 34.0741 74.4911 34.2963 74.3273 34.4601C74.1634 34.6239 73.9413 34.716 73.7097 34.7162Z" fill="#6546BD"/>
<path d="M73.7097 37.5638C73.5369 37.5638 73.3679 37.5126 73.2243 37.4166C73.0806 37.3206 72.9686 37.1841 72.9025 37.0245C72.8363 36.8648 72.819 36.6892 72.8527 36.5197C72.8864 36.3502 72.9697 36.1945 73.0918 36.0723C73.214 35.9501 73.3697 35.8669 73.5392 35.8332C73.7087 35.7995 73.8844 35.8168 74.044 35.8829C74.2037 35.949 74.3401 36.061 74.4361 36.2047C74.5321 36.3484 74.5834 36.5173 74.5834 36.6901C74.5832 36.9218 74.4911 37.1439 74.3273 37.3077C74.1634 37.4715 73.9413 37.5636 73.7097 37.5638Z" fill="#6546BD"/>
<path d="M1.41864 12.0335C1.21676 12.0348 1.02069 11.966 0.863881 11.8388C0.70707 11.7116 0.599226 11.534 0.558737 11.3362C0.518249 11.1385 0.547625 10.9327 0.641856 10.7542C0.736087 10.5756 0.889337 10.4353 1.07547 10.3571C1.26161 10.2789 1.4691 10.2677 1.66257 10.3254C1.85604 10.3832 2.0235 10.5062 2.13639 10.6736C2.24929 10.8409 2.30063 11.0423 2.28166 11.2433C2.26269 11.4443 2.17459 11.6325 2.03237 11.7758C1.95237 11.8574 1.85688 11.9222 1.75149 11.9665C1.64611 12.0108 1.53295 12.0336 1.41864 12.0335Z" fill="#6546BD"/>
<path d="M3.24064 9.99987C3.06805 10.0007 2.89907 9.95041 2.75506 9.85528C2.61105 9.76014 2.49848 9.62445 2.43156 9.46535C2.36465 9.30625 2.34639 9.13089 2.37911 8.96142C2.41182 8.79196 2.49404 8.63599 2.61536 8.51323C2.73669 8.39047 2.89168 8.30643 3.06075 8.27173C3.22982 8.23703 3.40539 8.25323 3.56526 8.31827C3.72513 8.38332 3.86213 8.49429 3.95895 8.63717C4.05578 8.78005 4.10807 8.94843 4.10923 9.12102C4.1102 9.23584 4.08846 9.34972 4.04528 9.45611C4.0021 9.5625 3.93832 9.65931 3.85761 9.74098C3.77689 9.82265 3.68084 9.88756 3.57496 9.93199C3.46908 9.97642 3.35546 9.99948 3.24064 9.99987Z" fill="#6546BD"/>
<path d="M5.18595 8.06236C5.01336 8.06323 4.84438 8.01291 4.70037 7.91778C4.55637 7.82264 4.44379 7.68695 4.37688 7.52785C4.30996 7.36875 4.2917 7.19339 4.32442 7.02392C4.35713 6.85446 4.43935 6.69849 4.56067 6.57573C4.682 6.45297 4.83699 6.36893 5.00606 6.33423C5.17514 6.29953 5.3507 6.31573 5.51057 6.38077C5.67044 6.44582 5.80745 6.55679 5.90427 6.69967C6.00109 6.84255 6.05338 7.01093 6.05454 7.18352C6.05551 7.29834 6.03378 7.41222 5.99059 7.51861C5.94741 7.625 5.88363 7.72181 5.80292 7.80348C5.7222 7.88515 5.62615 7.95006 5.52027 7.99449C5.41439 8.03891 5.30077 8.06198 5.18595 8.06236Z" fill="#6546BD"/>
<path d="M7.13519 6.12877C6.96241 6.12964 6.79326 6.07922 6.64915 5.98389C6.50504 5.88856 6.39247 5.75261 6.32568 5.59326C6.25888 5.4339 6.24088 5.25831 6.27395 5.08872C6.30702 4.91913 6.38967 4.76317 6.51143 4.64058C6.6332 4.518 6.7886 4.4343 6.95797 4.40009C7.12733 4.36588 7.30304 4.38271 7.46284 4.44842C7.62264 4.51414 7.75934 4.6258 7.85563 4.76926C7.95193 4.91273 8.00349 5.08154 8.00378 5.25432C8.00475 5.36914 7.98301 5.48302 7.93983 5.58941C7.89665 5.6958 7.83287 5.79261 7.75215 5.87428C7.67144 5.95595 7.57538 6.02086 7.46951 6.06529C7.36363 6.10972 7.25001 6.13278 7.13519 6.13317" fill="#6546BD"/>
<path d="M9.08244 4.19127C8.90984 4.19214 8.74087 4.14182 8.59686 4.04668C8.45285 3.95154 8.34028 3.81585 8.27336 3.65676C8.20644 3.49766 8.18819 3.3223 8.2209 3.15283C8.25362 2.98336 8.33583 2.82739 8.45716 2.70464C8.57848 2.58188 8.73347 2.49784 8.90255 2.46314C9.07162 2.42844 9.24718 2.44463 9.40705 2.50968C9.56692 2.57472 9.70393 2.6857 9.80075 2.82858C9.89757 2.97146 9.94987 3.13984 9.95103 3.31243C9.95199 3.42725 9.93026 3.54112 9.88708 3.64752C9.8439 3.75391 9.78012 3.85072 9.6994 3.93239C9.61869 4.01405 9.52263 4.07897 9.41675 4.12339C9.31087 4.16782 9.19726 4.19089 9.08244 4.19127Z" fill="#6546BD"/>
<path d="M1.28778 14.7826C1.11497 14.7826 0.946051 14.7313 0.802369 14.6353C0.658687 14.5393 0.5467 14.4029 0.480571 14.2432C0.414441 14.0836 0.397139 13.9079 0.430851 13.7384C0.464564 13.5689 0.547777 13.4132 0.669969 13.2911C0.79216 13.1689 0.947842 13.0857 1.11733 13.0519C1.28681 13.0182 1.46249 13.0355 1.62214 13.1017C1.78179 13.1678 1.91824 13.2798 2.01425 13.4235C2.11025 13.5671 2.1615 13.7361 2.1615 13.9089C2.1613 14.1405 2.06919 14.3627 1.90538 14.5265C1.74157 14.6903 1.51944 14.7824 1.28778 14.7826Z" fill="#6546BD"/>
<path d="M1.28827 17.6288C1.11561 17.6286 0.946868 17.5773 0.803387 17.4813C0.659906 17.3852 0.548128 17.2488 0.482188 17.0892C0.416248 16.9296 0.399107 16.7541 0.432933 16.5848C0.46676 16.4155 0.550034 16.26 0.672225 16.138C0.794417 16.016 0.950037 15.933 1.11941 15.8994C1.28878 15.8659 1.46429 15.8833 1.62375 15.9495C1.78322 16.0158 1.91946 16.1278 2.01527 16.2714C2.11107 16.415 2.16213 16.5839 2.16198 16.7565C2.1616 16.988 2.06937 17.2099 1.90556 17.3734C1.74175 17.5369 1.51974 17.6288 1.28827 17.6288Z" fill="#6546BD"/>
<path d="M1.28778 20.4779C1.11497 20.4779 0.946051 20.4267 0.802369 20.3307C0.658687 20.2347 0.5467 20.0982 0.480571 19.9385C0.414441 19.7789 0.397139 19.6032 0.430851 19.4337C0.464564 19.2643 0.547777 19.1086 0.669969 18.9864C0.79216 18.8642 0.947842 18.781 1.11733 18.7473C1.28681 18.7135 1.46249 18.7309 1.62214 18.797C1.78179 18.8631 1.91824 18.9751 2.01425 19.1188C2.11025 19.2625 2.1615 19.4314 2.1615 19.6042C2.1613 19.8359 2.06919 20.058 1.90538 20.2218C1.74157 20.3856 1.51944 20.4777 1.28778 20.4779Z" fill="#6546BD"/>
<path d="M1.28778 23.3256C1.11497 23.3256 0.946051 23.2743 0.802369 23.1783C0.658687 23.0823 0.5467 22.9458 0.480571 22.7862C0.414441 22.6265 0.397139 22.4509 0.430851 22.2814C0.464564 22.1119 0.547777 21.9562 0.669969 21.834C0.79216 21.7118 0.947842 21.6286 1.11733 21.5949C1.28681 21.5612 1.46249 21.5785 1.62214 21.6446C1.78179 21.7108 1.91824 21.8228 2.01425 21.9664C2.11025 22.1101 2.1615 22.279 2.1615 22.4518C2.1613 22.6835 2.06919 22.9056 1.90538 23.0694C1.74157 23.2333 1.51944 23.3254 1.28778 23.3256Z" fill="#6546BD"/>
<path d="M1.28778 26.1732C1.11497 26.1732 0.946051 26.122 0.802369 26.026C0.658687 25.93 0.5467 25.7935 0.480571 25.6339C0.414441 25.4742 0.397139 25.2985 0.430851 25.129C0.464564 24.9596 0.547777 24.8039 0.669969 24.6817C0.79216 24.5595 0.947842 24.4763 1.11733 24.4426C1.28681 24.4089 1.46249 24.4262 1.62214 24.4923C1.78179 24.5584 1.91824 24.6704 2.01425 24.8141C2.11025 24.9578 2.1615 25.1267 2.1615 25.2995C2.1613 25.5312 2.06919 25.7533 1.90538 25.9171C1.74157 26.0809 1.51944 26.173 1.28778 26.1732Z" fill="#6546BD"/>
<path d="M1.28778 29.0209C1.11497 29.0209 0.946051 28.9696 0.802369 28.8736C0.658687 28.7776 0.5467 28.6412 0.480571 28.4815C0.414441 28.3219 0.397139 28.1462 0.430851 27.9767C0.464564 27.8072 0.547777 27.6515 0.669969 27.5293C0.79216 27.4072 0.947842 27.3239 1.11733 27.2902C1.28681 27.2565 1.46249 27.2738 1.62214 27.34C1.78179 27.4061 1.91824 27.5181 2.01425 27.6618C2.11025 27.8054 2.1615 27.9744 2.1615 28.1472C2.1613 28.3788 2.06919 28.6009 1.90538 28.7648C1.74157 28.9286 1.51944 29.0207 1.28778 29.0209Z" fill="#6546BD"/>
<path d="M1.28778 31.8685C1.11497 31.8685 0.946051 31.8173 0.802369 31.7213C0.658687 31.6253 0.5467 31.4888 0.480571 31.3292C0.414441 31.1695 0.397139 30.9938 0.430851 30.8244C0.464564 30.6549 0.547777 30.4992 0.669969 30.377C0.79216 30.2548 0.947842 30.1716 1.11733 30.1379C1.28681 30.1042 1.46249 30.1215 1.62214 30.1876C1.78179 30.2537 1.91824 30.3657 2.01425 30.5094C2.11025 30.6531 2.1615 30.822 2.1615 30.9948C2.1613 31.2265 2.06919 31.4486 1.90538 31.6124C1.74157 31.7762 1.51944 31.8683 1.28778 31.8685Z" fill="#6546BD"/>
<path d="M1.28778 34.7162C1.11497 34.7162 0.946051 34.6649 0.802369 34.5689C0.658687 34.4729 0.5467 34.3365 0.480571 34.1768C0.414441 34.0172 0.397139 33.8415 0.430851 33.672C0.464564 33.5025 0.547777 33.3468 0.669969 33.2247C0.79216 33.1025 0.947842 33.0193 1.11733 32.9855C1.28681 32.9518 1.46249 32.9691 1.62214 33.0353C1.78179 33.1014 1.91824 33.2134 2.01425 33.3571C2.11025 33.5007 2.1615 33.6697 2.1615 33.8425C2.1613 34.0741 2.06919 34.2963 1.90538 34.4601C1.74157 34.6239 1.51944 34.716 1.28778 34.7162Z" fill="#6546BD"/>
<path d="M1.28778 37.5638C1.11497 37.5638 0.946051 37.5126 0.802369 37.4166C0.658687 37.3206 0.5467 37.1841 0.480571 37.0245C0.414441 36.8648 0.397139 36.6892 0.430851 36.5197C0.464564 36.3502 0.547777 36.1945 0.669969 36.0723C0.79216 35.9501 0.947842 35.8669 1.11733 35.8332C1.28681 35.7995 1.46249 35.8168 1.62214 35.8829C1.78179 35.949 1.91824 36.061 2.01425 36.2047C2.11025 36.3484 2.1615 36.5173 2.1615 36.6901C2.1613 36.9218 2.06919 37.1439 1.90538 37.3077C1.74157 37.4715 1.51944 37.5636 1.28778 37.5638Z" fill="#6546BD"/>
<path d="M19.0117 43.6237C19.0117 43.4509 19.063 43.282 19.159 43.1383C19.255 42.9946 19.3914 42.8826 19.5511 42.8165C19.7107 42.7504 19.8864 42.7331 20.0559 42.7668C20.2254 42.8005 20.3811 42.8837 20.5032 43.0059C20.6254 43.1281 20.7087 43.2838 20.7424 43.4533C20.7761 43.6228 20.7588 43.7984 20.6926 43.9581C20.6265 44.1177 20.5145 44.2542 20.3708 44.3502C20.2272 44.4462 20.0582 44.4974 19.8854 44.4974C19.6538 44.4972 19.4316 44.4051 19.2678 44.2413C19.104 44.0775 19.0119 43.8554 19.0117 43.6237Z" fill="#6546BD"/>
<path d="M16.0742 43.6237C16.0742 43.4509 16.1255 43.282 16.2215 43.1383C16.3175 42.9946 16.4539 42.8826 16.6136 42.8165C16.7732 42.7504 16.9489 42.7331 17.1184 42.7668C17.2879 42.8005 17.4436 42.8837 17.5657 43.0059C17.6879 43.1281 17.7712 43.2838 17.8049 43.4533C17.8386 43.6228 17.8213 43.7984 17.7551 43.9581C17.689 44.1177 17.577 44.2542 17.4333 44.3502C17.2897 44.4462 17.1207 44.4974 16.9479 44.4974C16.7163 44.4972 16.4942 44.4051 16.3303 44.2413C16.1665 44.0775 16.0744 43.8554 16.0742 43.6237Z" fill="#6546BD"/>
<path d="M13.1348 43.6237C13.1348 43.4509 13.186 43.282 13.282 43.1383C13.378 42.9946 13.5145 42.8826 13.6741 42.8165C13.8338 42.7504 14.0095 42.7331 14.1789 42.7668C14.3484 42.8005 14.5041 42.8837 14.6263 43.0059C14.7485 43.1281 14.8317 43.2838 14.8654 43.4533C14.8991 43.6228 14.8818 43.7984 14.8157 43.9581C14.7496 44.1177 14.6376 44.2542 14.4939 44.3502C14.3502 44.4462 14.1813 44.4974 14.0085 44.4974C13.7768 44.4972 13.5547 44.4051 13.3909 44.2413C13.2271 44.0775 13.135 43.8554 13.1348 43.6237Z" fill="#6546BD"/>
<path d="M10.1973 43.6237C10.1973 43.4509 10.2485 43.282 10.3445 43.1383C10.4405 42.9946 10.577 42.8826 10.7366 42.8165C10.8963 42.7504 11.072 42.7331 11.2414 42.7668C11.4109 42.8005 11.5666 42.8837 11.6888 43.0059C11.811 43.1281 11.8942 43.2838 11.9279 43.4533C11.9616 43.6228 11.9443 43.7984 11.8782 43.9581C11.8121 44.1177 11.7001 44.2542 11.5564 44.3502C11.4127 44.4462 11.2438 44.4974 11.071 44.4974C10.8393 44.4972 10.6172 44.4051 10.4534 44.2413C10.2896 44.0775 10.1975 43.8554 10.1973 43.6237Z" fill="#6546BD"/>
<path d="M7.25977 43.6237C7.25977 43.4509 7.31101 43.282 7.40701 43.1383C7.50302 42.9946 7.63947 42.8826 7.79912 42.8165C7.95878 42.7504 8.13445 42.7331 8.30394 42.7668C8.47342 42.8005 8.6291 42.8837 8.75129 43.0059C8.87349 43.1281 8.9567 43.2838 8.99041 43.4533C9.02413 43.6228 9.00682 43.7984 8.94069 43.9581C8.87456 44.1177 8.76258 44.2542 8.61889 44.3502C8.47521 44.4462 8.30629 44.4974 8.13348 44.4974C7.90182 44.4972 7.6797 44.4051 7.51589 44.2413C7.35208 44.0775 7.25996 43.8554 7.25977 43.6237Z" fill="#6546BD"/>
<path d="M66.0295 1.37371C66.0295 1.20082 66.0808 1.03181 66.1769 0.888076C66.273 0.744347 66.4096 0.632362 66.5694 0.566297C66.7292 0.500233 66.905 0.483059 67.0745 0.51695C67.2441 0.550841 67.3997 0.634273 67.5219 0.756684C67.644 0.879096 67.727 1.03498 67.7605 1.20461C67.7939 1.37424 67.7763 1.54998 67.7098 1.7096C67.6434 1.86921 67.531 2.00551 67.3871 2.10125C67.2431 2.19699 67.074 2.24787 66.9011 2.24743C66.6694 2.24724 66.4473 2.15512 66.2835 1.99131C66.1196 1.8275 66.0275 1.60538 66.0273 1.37371" fill="#6546BD"/>
<path d="M63.0918 1.37372C63.0918 1.20091 63.143 1.03199 63.239 0.888306C63.335 0.744624 63.4715 0.632638 63.6312 0.566508C63.7908 0.500379 63.9665 0.483076 64.136 0.516789C64.3054 0.550501 64.4611 0.633715 64.5833 0.755906C64.7055 0.878098 64.7887 1.03378 64.8224 1.20326C64.8561 1.37275 64.8388 1.54842 64.7727 1.70807C64.7066 1.86773 64.5946 2.00418 64.4509 2.10019C64.3072 2.19619 64.1383 2.24743 63.9655 2.24743C63.7338 2.24724 63.5117 2.15513 63.3479 1.99131C63.1841 1.8275 63.092 1.60538 63.0918 1.37372Z" fill="#6546BD"/>
<path d="M60.1543 1.37372C60.1543 1.20091 60.2055 1.03199 60.3015 0.888306C60.3975 0.744624 60.534 0.632638 60.6937 0.566508C60.8533 0.500379 61.029 0.483076 61.1985 0.516789C61.368 0.550501 61.5236 0.633715 61.6458 0.755906C61.768 0.878098 61.8512 1.03378 61.8849 1.20326C61.9186 1.37275 61.9014 1.54842 61.8352 1.70807C61.7691 1.86773 61.6571 2.00418 61.5134 2.10019C61.3697 2.19619 61.2008 2.24743 61.028 2.24743C60.7963 2.24724 60.5742 2.15513 60.4104 1.99131C60.2466 1.8275 60.1545 1.60538 60.1543 1.37372Z" fill="#6546BD"/>
<path d="M57.2148 1.37372C57.2148 1.20091 57.2661 1.03199 57.3621 0.888306C57.4581 0.744624 57.5946 0.632638 57.7542 0.566508C57.9139 0.500379 58.0895 0.483076 58.259 0.516789C58.4285 0.550501 58.5842 0.633715 58.7064 0.755906C58.8286 0.878098 58.9118 1.03378 58.9455 1.20326C58.9792 1.37275 58.9619 1.54842 58.8958 1.70807C58.8296 1.86773 58.7177 2.00418 58.574 2.10019C58.4303 2.19619 58.2614 2.24743 58.0886 2.24743C57.8569 2.24724 57.6348 2.15513 57.471 1.99131C57.3072 1.8275 57.215 1.60538 57.2148 1.37372Z" fill="#6546BD"/>
<path d="M54.2754 1.37372C54.2754 1.20091 54.3266 1.03199 54.4226 0.888306C54.5186 0.744624 54.6551 0.632638 54.8147 0.566508C54.9744 0.500379 55.1501 0.483076 55.3196 0.516789C55.4891 0.550501 55.6447 0.633715 55.7669 0.755906C55.8891 0.878098 55.9723 1.03378 56.006 1.20326C56.0397 1.37275 56.0225 1.54842 55.9563 1.70807C55.8902 1.86773 55.7782 2.00418 55.6345 2.10019C55.4908 2.19619 55.3219 2.24743 55.1491 2.24743C54.9174 2.24724 54.6953 2.15513 54.5315 1.99131C54.3677 1.8275 54.2756 1.60538 54.2754 1.37372Z" fill="#6546BD"/>
<path d="M51.3379 1.37372C51.3379 1.20091 51.3891 1.03199 51.4851 0.888306C51.5811 0.744624 51.7176 0.632638 51.8772 0.566508C52.0369 0.500379 52.2126 0.483076 52.3821 0.516789C52.5516 0.550501 52.7072 0.633715 52.8294 0.755906C52.9516 0.878098 53.0348 1.03378 53.0686 1.20326C53.1023 1.37275 53.085 1.54842 53.0188 1.70807C52.9527 1.86773 52.8407 2.00418 52.697 2.10019C52.5533 2.19619 52.3844 2.24743 52.2116 2.24743C51.9799 2.24724 51.7578 2.15513 51.594 1.99131C51.4302 1.8275 51.3381 1.60538 51.3379 1.37372Z" fill="#6546BD"/>
<path d="M48.4004 1.37372C48.4004 1.20091 48.4516 1.03199 48.5476 0.888306C48.6436 0.744624 48.7801 0.632638 48.9397 0.566508C49.0994 0.500379 49.2751 0.483076 49.4445 0.516789C49.614 0.550501 49.7697 0.633715 49.8919 0.755906C50.0141 0.878098 50.0973 1.03378 50.131 1.20326C50.1647 1.37275 50.1474 1.54842 50.0813 1.70807C50.0152 1.86773 49.9032 2.00418 49.7595 2.10019C49.6158 2.19619 49.4469 2.24743 49.2741 2.24743C49.0424 2.24724 48.8203 2.15513 48.6565 1.99131C48.4927 1.8275 48.4006 1.60538 48.4004 1.37372Z" fill="#6546BD"/>
<path d="M45.459 1.37372C45.459 1.20091 45.5102 1.03199 45.6062 0.888306C45.7022 0.744624 45.8387 0.632638 45.9983 0.566508C46.158 0.500379 46.3337 0.483076 46.5032 0.516789C46.6726 0.550501 46.8283 0.633715 46.9505 0.755906C47.0727 0.878098 47.1559 1.03378 47.1896 1.20326C47.2233 1.37275 47.206 1.54842 47.1399 1.70807C47.0738 1.86773 46.9618 2.00418 46.8181 2.10019C46.6744 2.19619 46.5055 2.24743 46.3327 2.24743C46.101 2.24724 45.8789 2.15513 45.7151 1.99131C45.5513 1.8275 45.4592 1.60538 45.459 1.37372Z" fill="#6546BD"/>
<path d="M42.5217 1.37371C42.5217 1.20082 42.573 1.03181 42.6691 0.888076C42.7652 0.744347 42.9018 0.632362 43.0616 0.566297C43.2214 0.500233 43.3972 0.483059 43.5667 0.51695C43.7363 0.550841 43.8919 0.634273 44.014 0.756684C44.1361 0.879096 44.2192 1.03498 44.2526 1.20461C44.2861 1.37424 44.2685 1.54998 44.202 1.7096C44.1356 1.86921 44.0232 2.00551 43.8793 2.10125C43.7353 2.19699 43.5662 2.24787 43.3933 2.24743C43.1616 2.24724 42.9395 2.15512 42.7757 1.99131C42.6118 1.8275 42.5197 1.60538 42.5195 1.37371" fill="#6546BD"/>
<path d="M39.584 1.37372C39.584 1.20091 39.6352 1.03199 39.7312 0.888306C39.8272 0.744624 39.9637 0.632638 40.1233 0.566508C40.283 0.500379 40.4587 0.483076 40.6281 0.516789C40.7976 0.550501 40.9533 0.633715 41.0755 0.755906C41.1977 0.878098 41.2809 1.03378 41.3146 1.20326C41.3483 1.37275 41.331 1.54842 41.2649 1.70807C41.1988 1.86773 41.0868 2.00418 40.9431 2.10019C40.7994 2.19619 40.6305 2.24743 40.4577 2.24743C40.226 2.24724 40.0039 2.15513 39.8401 1.99131C39.6763 1.8275 39.5842 1.60538 39.584 1.37372Z" fill="#6546BD"/>
<path d="M36.6445 1.37372C36.6445 1.20091 36.6958 1.03199 36.7918 0.888306C36.8878 0.744624 37.0242 0.632638 37.1839 0.566508C37.3435 0.500379 37.5192 0.483076 37.6887 0.516789C37.8582 0.550501 38.0139 0.633715 38.1361 0.755906C38.2582 0.878098 38.3415 1.03378 38.3752 1.20326C38.4089 1.37275 38.3916 1.54842 38.3255 1.70807C38.2593 1.86773 38.1473 2.00418 38.0037 2.10019C37.86 2.19619 37.6911 2.24743 37.5183 2.24743C37.2866 2.24724 37.0645 2.15513 36.9007 1.99131C36.7368 1.8275 36.6447 1.60538 36.6445 1.37372Z" fill="#6546BD"/>
<path d="M33.7051 1.37372C33.7051 1.20091 33.7563 1.03199 33.8523 0.888306C33.9483 0.744624 34.0848 0.632638 34.2444 0.566508C34.4041 0.500379 34.5798 0.483076 34.7492 0.516789C34.9187 0.550501 35.0744 0.633715 35.1966 0.755906C35.3188 0.878098 35.402 1.03378 35.4357 1.20326C35.4694 1.37275 35.4521 1.54842 35.386 1.70807C35.3199 1.86773 35.2079 2.00418 35.0642 2.10019C34.9205 2.19619 34.7516 2.24743 34.5788 2.24743C34.3471 2.24724 34.125 2.15513 33.9612 1.99131C33.7974 1.8275 33.7053 1.60538 33.7051 1.37372Z" fill="#6546BD"/>
<path d="M30.7676 1.37372C30.7676 1.20091 30.8188 1.03199 30.9148 0.888306C31.0108 0.744624 31.1473 0.632638 31.3069 0.566508C31.4666 0.500379 31.6423 0.483076 31.8118 0.516789C31.9812 0.550501 32.1369 0.633715 32.2591 0.755906C32.3813 0.878098 32.4645 1.03378 32.4982 1.20326C32.5319 1.37275 32.5146 1.54842 32.4485 1.70807C32.3824 1.86773 32.2704 2.00418 32.1267 2.10019C31.983 2.19619 31.8141 2.24743 31.6413 2.24743C31.4096 2.24724 31.1875 2.15513 31.0237 1.99131C30.8599 1.8275 30.7678 1.60538 30.7676 1.37372Z" fill="#6546BD"/>
<path d="M27.8281 1.37372C27.8281 1.20091 27.8794 1.03199 27.9754 0.888306C28.0714 0.744624 28.2078 0.632638 28.3675 0.566508C28.5271 0.500379 28.7028 0.483076 28.8723 0.516789C29.0418 0.550501 29.1975 0.633715 29.3197 0.755906C29.4418 0.878098 29.5251 1.03378 29.5588 1.20326C29.5925 1.37275 29.5752 1.54842 29.509 1.70807C29.4429 1.86773 29.3309 2.00418 29.1872 2.10019C29.0436 2.19619 28.8746 2.24743 28.7018 2.24743C28.4702 2.24724 28.2481 2.15513 28.0842 1.99131C27.9204 1.8275 27.8283 1.60538 27.8281 1.37372Z" fill="#6546BD"/>
<path d="M24.8887 1.37372C24.8887 1.20091 24.9399 1.03199 25.0359 0.888306C25.1319 0.744624 25.2684 0.632638 25.428 0.566508C25.5877 0.500379 25.7634 0.483076 25.9328 0.516789C26.1023 0.550501 26.258 0.633715 26.3802 0.755906C26.5024 0.878098 26.5856 1.03378 26.6193 1.20326C26.653 1.37275 26.6357 1.54842 26.5696 1.70807C26.5035 1.86773 26.3915 2.00418 26.2478 2.10019C26.1041 2.19619 25.9352 2.24743 25.7624 2.24743C25.5307 2.24724 25.3086 2.15513 25.1448 1.99131C24.981 1.8275 24.8889 1.60538 24.8887 1.37372Z" fill="#6546BD"/>
<path d="M21.9512 1.37372C21.9512 1.20091 22.0024 1.03199 22.0984 0.888306C22.1944 0.744624 22.3309 0.632638 22.4905 0.566508C22.6502 0.500379 22.8259 0.483076 22.9953 0.516789C23.1648 0.550501 23.3205 0.633715 23.4427 0.755906C23.5649 0.878098 23.6481 1.03378 23.6818 1.20326C23.7155 1.37275 23.6982 1.54842 23.6321 1.70807C23.566 1.86773 23.454 2.00418 23.3103 2.10019C23.1666 2.19619 22.9977 2.24743 22.8249 2.24743C22.5932 2.24724 22.3711 2.15513 22.2073 1.99131C22.0435 1.8275 21.9514 1.60538 21.9512 1.37372Z" fill="#6546BD"/>
<path d="M19.012 1.37371C19.012 1.20082 19.0633 1.03181 19.1594 0.888076C19.2555 0.744347 19.3921 0.632362 19.5518 0.566297C19.7116 0.500233 19.8874 0.483059 20.0569 0.51695C20.2265 0.550841 20.3822 0.634273 20.5043 0.756684C20.6264 0.879096 20.7094 1.03498 20.7429 1.20461C20.7763 1.37424 20.7587 1.54998 20.6923 1.7096C20.6258 1.86921 20.5135 2.00551 20.3695 2.10125C20.2255 2.19699 20.0564 2.24787 19.8835 2.24743C19.6518 2.24724 19.4297 2.15512 19.2659 1.99131C19.1021 1.8275 19.01 1.60538 19.0098 1.37371" fill="#6546BD"/>
<path d="M16.0742 1.37225C16.0744 1.19959 16.1257 1.03085 16.2218 0.887372C16.3178 0.743891 16.4542 0.632113 16.6138 0.566172C16.7734 0.500232 16.9489 0.483091 17.1182 0.516918C17.2875 0.550744 17.443 0.634018 17.565 0.75621C17.687 0.878401 17.77 1.03402 17.8036 1.20339C17.8371 1.37276 17.8197 1.54828 17.7535 1.70774C17.6872 1.8672 17.5752 2.00345 17.4316 2.09925C17.288 2.19506 17.1191 2.24611 16.9465 2.24597C16.8318 2.24587 16.7183 2.2232 16.6124 2.17924C16.5066 2.13528 16.4104 2.07089 16.3294 1.98976C16.2484 1.90863 16.1842 1.81234 16.1404 1.70638C16.0966 1.60043 16.0741 1.48689 16.0742 1.37225Z" fill="#6546BD"/>
<path d="M13.1348 1.37372C13.1348 1.20091 13.186 1.03199 13.282 0.888306C13.378 0.744624 13.5145 0.632638 13.6741 0.566508C13.8338 0.500379 14.0095 0.483076 14.1789 0.516789C14.3484 0.550501 14.5041 0.633715 14.6263 0.755906C14.7485 0.878098 14.8317 1.03378 14.8654 1.20326C14.8991 1.37275 14.8818 1.54842 14.8157 1.70807C14.7496 1.86773 14.6376 2.00418 14.4939 2.10019C14.3502 2.19619 14.1813 2.24743 14.0085 2.24743C13.7768 2.24724 13.5547 2.15513 13.3909 1.99131C13.2271 1.8275 13.135 1.60538 13.1348 1.37372Z" fill="#6546BD"/>
<path d="M10.2402 1.49749C10.2413 1.32482 10.2934 1.15631 10.3901 1.01326C10.4869 0.870208 10.6238 0.759022 10.7837 0.693744C10.9435 0.628465 11.1191 0.612021 11.2883 0.646489C11.4576 0.680957 11.6127 0.76479 11.7343 0.887403C11.8559 1.01002 11.9385 1.16591 11.9715 1.3354C12.0046 1.50488 11.9866 1.68036 11.92 1.83968C11.8534 1.99899 11.7411 2.13499 11.5972 2.23051C11.4534 2.32602 11.2844 2.37677 11.1118 2.37634C10.9968 2.37595 10.8831 2.35291 10.777 2.30851C10.671 2.26412 10.5747 2.19926 10.4938 2.11763C10.4128 2.036 10.3488 1.93921 10.3053 1.8328C10.2618 1.7264 10.2397 1.61245 10.2402 1.49749Z" fill="#6546BD"/>
<path d="M68.9688 43.5729C68.9688 43.4001 69.02 43.2312 69.116 43.0875C69.212 42.9438 69.3485 42.8319 69.5081 42.7657C69.6678 42.6996 69.8434 42.6823 70.0129 42.716C70.1824 42.7497 70.3381 42.8329 70.4603 42.9551C70.5825 43.0773 70.6657 43.233 70.6994 43.4025C70.7331 43.572 70.7158 43.7476 70.6497 43.9073C70.5835 44.0669 70.4715 44.2034 70.3279 44.2994C70.1842 44.3954 70.0153 44.4466 69.8425 44.4466C69.6108 44.4465 69.3887 44.3543 69.2249 44.1905C69.061 44.0267 68.9689 43.8046 68.9688 43.5729Z" fill="#6546BD"/>
<path d="M71.6152 42.194C71.6152 42.0212 71.6665 41.8523 71.7625 41.7086C71.8585 41.5649 71.9949 41.4529 72.1546 41.3868C72.3142 41.3207 72.4899 41.3034 72.6594 41.3371C72.8289 41.3708 72.9846 41.454 73.1067 41.5762C73.2289 41.6984 73.3122 41.8541 73.3459 42.0236C73.3796 42.1931 73.3623 42.3687 73.2962 42.5284C73.23 42.688 73.118 42.8245 72.9743 42.9205C72.8307 43.0165 72.6618 43.0677 72.4889 43.0677C72.2573 43.0675 72.0352 42.9754 71.8713 42.8116C71.7075 42.6478 71.6154 42.4257 71.6152 42.194Z" fill="#6546BD"/>
<path d="M72.8027 39.5417C72.8027 39.3689 72.854 39.2 72.95 39.0563C73.046 38.9126 73.1825 38.8006 73.3421 38.7345C73.5018 38.6683 73.6774 38.651 73.8469 38.6848C74.0164 38.7185 74.1721 38.8017 74.2943 38.9239C74.4165 39.0461 74.4997 39.2017 74.5334 39.3712C74.5671 39.5407 74.5498 39.7164 74.4837 39.876C74.4175 40.0357 74.3056 40.1721 74.1619 40.2682C74.0182 40.3642 73.8493 40.4154 73.6765 40.4154C73.4448 40.4152 73.2227 40.3231 73.0589 40.1593C72.8951 39.9955 72.8029 39.7733 72.8027 39.5417Z" fill="#6546BD"/>
<path d="M68.9688 43.5729C68.9688 43.4001 69.02 43.2312 69.116 43.0875C69.212 42.9438 69.3485 42.8319 69.5081 42.7657C69.6678 42.6996 69.8434 42.6823 70.0129 42.716C70.1824 42.7497 70.3381 42.8329 70.4603 42.9551C70.5825 43.0773 70.6657 43.233 70.6994 43.4025C70.7331 43.572 70.7158 43.7476 70.6497 43.9073C70.5835 44.0669 70.4715 44.2034 70.3279 44.2994C70.1842 44.3954 70.0153 44.4466 69.8425 44.4466C69.6108 44.4465 69.3887 44.3543 69.2249 44.1905C69.061 44.0267 68.9689 43.8046 68.9688 43.5729Z" fill="#6546BD"/>
<path d="M71.6152 42.194C71.6152 42.0212 71.6665 41.8523 71.7625 41.7086C71.8585 41.5649 71.9949 41.4529 72.1546 41.3868C72.3142 41.3207 72.4899 41.3034 72.6594 41.3371C72.8289 41.3708 72.9846 41.454 73.1067 41.5762C73.2289 41.6984 73.3122 41.8541 73.3459 42.0236C73.3796 42.1931 73.3623 42.3687 73.2962 42.5284C73.23 42.688 73.118 42.8245 72.9743 42.9205C72.8307 43.0165 72.6618 43.0677 72.4889 43.0677C72.2573 43.0675 72.0352 42.9754 71.8713 42.8116C71.7075 42.6478 71.6154 42.4257 71.6152 42.194Z" fill="#6546BD"/>
<path d="M72.8027 39.5417C72.8027 39.3689 72.854 39.2 72.95 39.0563C73.046 38.9126 73.1825 38.8006 73.3421 38.7345C73.5018 38.6683 73.6774 38.651 73.8469 38.6848C74.0164 38.7185 74.1721 38.8017 74.2943 38.9239C74.4165 39.0461 74.4997 39.2017 74.5334 39.3712C74.5671 39.5407 74.5498 39.7164 74.4837 39.876C74.4175 40.0357 74.3056 40.1721 74.1619 40.2682C74.0182 40.3642 73.8493 40.4154 73.6765 40.4154C73.4448 40.4152 73.2227 40.3231 73.0589 40.1593C72.8951 39.9955 72.8029 39.7733 72.8027 39.5417Z" fill="#6546BD"/>
<path d="M68.9688 1.37372C68.9688 1.54652 69.02 1.71545 69.116 1.85913C69.212 2.00281 69.3485 2.1148 69.5081 2.18093C69.6678 2.24706 69.8434 2.26436 70.0129 2.23065C70.1824 2.19693 70.3381 2.11372 70.4603 1.99153C70.5825 1.86934 70.6657 1.71366 70.6994 1.54417C70.7331 1.37469 70.7158 1.19901 70.6497 1.03936C70.5835 0.879709 70.4715 0.743253 70.3279 0.647248C70.1842 0.551243 70.0153 0.5 69.8425 0.5C69.6108 0.500194 69.3887 0.592308 69.2249 0.75612C69.061 0.919932 68.9689 1.14205 68.9688 1.37372Z" fill="#6546BD"/>
<path d="M71.6152 2.75262C71.6152 2.92543 71.6665 3.09435 71.7625 3.23803C71.8585 3.38172 71.9949 3.4937 72.1546 3.55983C72.3142 3.62596 72.4899 3.64326 72.6594 3.60955C72.8289 3.57584 72.9846 3.49263 73.1067 3.37043C73.2289 3.24824 73.3122 3.09256 73.3459 2.92308C73.3796 2.75359 73.3623 2.57792 73.2962 2.41827C73.23 2.25862 73.118 2.12216 72.9743 2.02615C72.8307 1.93015 72.6618 1.87891 72.4889 1.87891C72.2573 1.8791 72.0352 1.97121 71.8713 2.13503C71.7075 2.29884 71.6154 2.52096 71.6152 2.75262Z" fill="#6546BD"/>
<path d="M72.8027 5.40497C72.8027 5.57777 72.854 5.7467 72.95 5.89038C73.046 6.03406 73.1825 6.14605 73.3421 6.21218C73.5018 6.27831 73.6774 6.29561 73.8469 6.2619C74.0164 6.22818 74.1721 6.14497 74.2943 6.02278C74.4165 5.90059 74.4997 5.74491 74.5334 5.57542C74.5671 5.40594 74.5498 5.23026 74.4837 5.07061C74.4175 4.91096 74.3056 4.7745 74.1619 4.6785C74.0182 4.58249 73.8493 4.53125 73.6765 4.53125C73.4448 4.53144 73.2227 4.62356 73.0589 4.78737C72.8951 4.95118 72.8029 5.1733 72.8027 5.40497Z" fill="#6546BD"/>
<path d="M6.00915 43.5729C6.00915 43.4001 5.95791 43.2312 5.8619 43.0875C5.7659 42.9438 5.62944 42.8319 5.46979 42.7657C5.31014 42.6996 5.13447 42.6823 4.96498 42.716C4.7955 42.7497 4.63982 42.8329 4.51762 42.9551C4.39543 43.0773 4.31222 43.233 4.27851 43.4025C4.24479 43.572 4.2621 43.7476 4.32823 43.9073C4.39436 44.0669 4.50634 44.2034 4.65003 44.2994C4.79371 44.3954 4.96263 44.4467 5.13544 44.4467C5.3671 44.4465 5.58922 44.3543 5.75303 44.1905C5.91684 44.0267 6.00896 43.8046 6.00915 43.5729Z" fill="#6546BD"/>
<path d="M3.36072 42.194C3.36072 42.0212 3.30947 41.8523 3.21347 41.7086C3.11746 41.5649 2.98101 41.4529 2.82136 41.3868C2.6617 41.3207 2.48603 41.3034 2.31654 41.3371C2.14706 41.3708 1.99138 41.454 1.86919 41.5762C1.747 41.6984 1.66378 41.8541 1.63007 42.0236C1.59636 42.1931 1.61366 42.3687 1.67979 42.5284C1.74592 42.688 1.85791 42.8245 2.00159 42.9205C2.14527 43.0165 2.31419 43.0678 2.487 43.0678C2.71866 43.0676 2.94078 42.9754 3.1046 42.8116C3.26841 42.6478 3.36052 42.4257 3.36072 42.194Z" fill="#6546BD"/>
<path d="M2.17322 39.5417C2.17322 39.3689 2.12197 39.2 2.02597 39.0563C1.92996 38.9126 1.79351 38.8006 1.63386 38.7345C1.4742 38.6683 1.29853 38.651 1.12904 38.6848C0.95956 38.7185 0.803879 38.8017 0.681687 38.9239C0.559496 39.0461 0.476282 39.2017 0.44257 39.3712C0.408857 39.5407 0.42616 39.7164 0.492289 39.876C0.558419 40.0357 0.670405 40.1721 0.814087 40.2682C0.957769 40.3642 1.12669 40.4154 1.2995 40.4154C1.53116 40.4152 1.75328 40.3231 1.9171 40.1593C2.08091 39.9955 2.17302 39.7733 2.17322 39.5417Z" fill="#6546BD"/>
</g>
</g>
</g>
<defs>
<clipPath id="clip0_393_1296">
<rect width="74.17" height="44" fill="white" transform="translate(0.414062 0.5)"/>
</clipPath>
<clipPath id="clip1_393_1296">
<rect width="74.17" height="44" fill="white" transform="translate(0.414062 0.5)"/>
</clipPath>
<clipPath id="clip2_393_1296">
<rect width="74.17" height="43.9986" fill="white" transform="translate(0.414062 0.5)"/>
</clipPath>
</defs>
</svg>
