<svg width="43" height="80" viewBox="0 0 43 80" fill="none" xmlns="http://www.w3.org/2000/svg">
<g clip-path="url(#clip0_393_3584)">
<g clip-path="url(#clip1_393_3584)">
<path d="M41.7761 41.4813L3.87606 79.3813C3.47744 79.78 2.93679 80.0039 2.37305 80.0039C1.80932 80.0039 1.26868 79.78 0.870056 79.3813C0.471436 78.9827 0.247494 78.4421 0.247494 77.8784C0.247494 77.3146 0.471436 76.774 0.870056 76.3754L37.2671 39.9783L0.919056 3.62933C0.520436 3.23071 0.296494 2.69008 0.296494 2.12634C0.296494 1.56261 0.520436 1.02197 0.919056 0.623352C1.31768 0.224732 1.85832 0.000793457 2.42205 0.000793457C2.98579 0.000793457 3.52644 0.224732 3.92506 0.623352L41.7761 38.4753C42.1746 38.874 42.3984 39.4146 42.3984 39.9783C42.3984 40.542 42.1746 41.0826 41.7761 41.4813Z" fill="#D3D3D3"/>
</g>
</g>
<defs>
<clipPath id="clip0_393_3584">
<rect width="42" height="80" fill="white" transform="translate(0.25)"/>
</clipPath>
<clipPath id="clip1_393_3584">
<rect width="42.148" height="80" fill="white" transform="translate(0.25)"/>
</clipPath>
</defs>
</svg>
