<svg width="43" height="80" viewBox="0 0 43 80" fill="none" xmlns="http://www.w3.org/2000/svg">
<g clip-path="url(#clip0_393_3580)">
<g clip-path="url(#clip1_393_3580)">
<path d="M0.872382 38.5187L38.7724 0.618652C39.171 0.220032 39.7116 -0.00390625 40.2754 -0.00390625C40.8391 -0.00390625 41.3798 0.220032 41.7784 0.618652C42.177 1.01727 42.4009 1.55791 42.4009 2.12164C42.4009 2.68538 42.177 3.22601 41.7784 3.62463L5.38138 40.0217L41.7294 76.3707C42.128 76.7693 42.3519 77.3099 42.3519 77.8737C42.3519 78.4374 42.128 78.978 41.7294 79.3766C41.3308 79.7753 40.7901 79.9992 40.2264 79.9992C39.6626 79.9992 39.122 79.7753 38.7234 79.3766L0.872382 41.5247C0.473869 41.126 0.25 40.5854 0.25 40.0217C0.25 39.458 0.473869 38.9174 0.872382 38.5187Z" fill="#D3D3D3"/>
</g>
</g>
<defs>
<clipPath id="clip0_393_3580">
<rect width="42" height="80" fill="white" transform="translate(0.25)"/>
</clipPath>
<clipPath id="clip1_393_3580">
<rect width="42.148" height="80" fill="white" transform="translate(0.25)"/>
</clipPath>
</defs>
</svg>
