<svg width="69" height="18" viewBox="0 0 69 18" fill="none" xmlns="http://www.w3.org/2000/svg">
<path d="M18.631 6.62109H25.504V7.97097H22.8015V15.5593H21.3155V7.97097H18.625V6.62109H18.631ZM25.2104 9.08746H26.4807V10.3364H26.5047C26.5466 10.1598 26.6245 9.98949 26.7384 9.82548C26.8522 9.66148 26.99 9.50378 27.1518 9.37132C27.3136 9.23254 27.4934 9.12531 27.6911 9.037C27.8889 8.955 28.0926 8.91084 28.2963 8.91084C28.4521 8.91084 28.566 8.91715 28.6259 8.92346C28.6858 8.92977 28.7457 8.94238 28.8116 8.94869V10.3238C28.7158 10.3049 28.6199 10.2923 28.518 10.2796C28.4162 10.267 28.3203 10.2607 28.2244 10.2607C27.9967 10.2607 27.781 10.3112 27.5773 10.4058C27.3735 10.5004 27.1998 10.6455 27.05 10.8284C26.9001 11.0177 26.7803 11.2447 26.6904 11.5223C26.6005 11.7998 26.5586 12.1152 26.5586 12.4748V15.553H25.2044V9.08746L25.2104 9.08746ZM35.0375 15.5593H33.7072V14.6573H33.6833C33.5155 14.9853 33.2698 15.2439 32.9402 15.4395C32.6107 15.635 32.2751 15.7359 31.9335 15.7359C31.1246 15.7359 30.5374 15.5278 30.1778 15.1052C29.8183 14.6825 29.6386 14.0454 29.6386 13.1939V9.08746H30.9928V13.0551C30.9928 13.6228 31.0946 14.0265 31.3044 14.2599C31.5081 14.4933 31.8017 14.6131 32.1732 14.6131C32.4609 14.6131 32.6945 14.569 32.8863 14.4744C33.078 14.3797 33.2338 14.2599 33.3477 14.1022C33.4675 13.9508 33.5514 13.7616 33.6054 13.5471C33.6593 13.3326 33.6833 13.0993 33.6833 12.8469V9.09377H35.0375V15.5593ZM37.3445 13.484C37.3864 13.9004 37.5362 14.1905 37.7939 14.3608C38.0575 14.5248 38.3691 14.6131 38.7346 14.6131C38.8605 14.6131 39.0043 14.6005 39.1661 14.5816C39.3279 14.5627 39.4836 14.5185 39.6215 14.4618C39.7653 14.405 39.8791 14.3167 39.975 14.2031C40.0649 14.0896 40.1068 13.9445 40.1008 13.7616C40.0948 13.5787 40.0289 13.4273 39.9091 13.3137C39.7892 13.1939 39.6394 13.1056 39.4537 13.0299C39.2679 12.9605 39.0582 12.8974 38.8185 12.8469C38.5788 12.7965 38.3391 12.7397 38.0935 12.6829C37.8418 12.6262 37.5961 12.5505 37.3624 12.4685C37.1287 12.3865 36.919 12.2729 36.7333 12.1278C36.5475 11.9891 36.3977 11.8061 36.2898 11.5854C36.176 11.3646 36.1221 11.0934 36.1221 10.7654C36.1221 10.4121 36.2059 10.1219 36.3677 9.88225C36.5295 9.64255 36.7392 9.45332 36.9849 9.30824C37.2366 9.16316 37.5122 9.06223 37.8178 8.99915C38.1234 8.94238 38.417 8.91084 38.6927 8.91084C39.0103 8.91084 39.3159 8.94869 39.6035 9.01808C39.8911 9.08746 40.1548 9.201 40.3885 9.36501C40.6222 9.5227 40.8139 9.73086 40.9697 9.98318C41.1255 10.2355 41.2214 10.5446 41.2633 10.9041H39.8492C39.7833 10.5635 39.6394 10.3301 39.4057 10.2166C39.1721 10.0967 38.9024 10.0399 38.6028 10.0399C38.5069 10.0399 38.3931 10.0463 38.2612 10.0652C38.1294 10.0841 38.0096 10.1156 37.8897 10.1598C37.7759 10.204 37.68 10.2733 37.5961 10.3616C37.5182 10.45 37.4763 10.5635 37.4763 10.7086C37.4763 10.8852 37.5362 11.024 37.65 11.1312C37.7639 11.2384 37.9137 11.3267 38.0995 11.4024C38.2852 11.4718 38.4949 11.5349 38.7346 11.5854C38.9743 11.6358 39.22 11.6926 39.4717 11.7494C39.7173 11.8061 39.957 11.8818 40.1967 11.9638C40.4364 12.0458 40.6461 12.1594 40.8319 12.3045C41.0176 12.4495 41.1674 12.6262 41.2813 12.8406C41.3951 13.0551 41.4551 13.3263 41.4551 13.6417C41.4551 14.0265 41.3712 14.3482 41.2034 14.6194C41.0356 14.8844 40.8199 15.1052 40.5562 15.2692C40.2926 15.4332 39.993 15.5593 39.6694 15.635C39.3458 15.7107 39.0223 15.7486 38.7047 15.7486C38.3152 15.7486 37.9557 15.7044 37.6261 15.6098C37.2965 15.5152 37.0089 15.3764 36.7692 15.1935C36.5295 15.0042 36.3378 14.7708 36.2 14.4933C36.0621 14.2157 35.9902 13.8814 35.9782 13.4966H37.3445V13.484ZM41.8146 9.08746H42.8392V7.14465H44.1935V9.08746H45.4159V10.1535H44.1935V13.6102C44.1935 13.7616 44.1995 13.8877 44.2114 14.0013C44.2234 14.1085 44.2534 14.2031 44.2953 14.2788C44.3373 14.3545 44.4032 14.4113 44.4931 14.4491C44.583 14.487 44.6968 14.5059 44.8526 14.5059C44.9485 14.5059 45.0444 14.5059 45.1402 14.4996C45.2361 14.4933 45.332 14.4807 45.4278 14.4554V15.5593C45.278 15.5782 45.1282 15.5909 44.9904 15.6098C44.8466 15.6287 44.7028 15.635 44.553 15.635C44.1935 15.635 43.9058 15.5972 43.6901 15.5278C43.4744 15.4584 43.3006 15.3512 43.1808 15.2124C43.055 15.0736 42.9771 14.9033 42.9291 14.6951C42.8872 14.487 42.8572 14.2473 42.8512 13.9824V10.1661H41.8266V9.08746H41.8146ZM46.3746 9.08746H47.6569V9.96425H47.6809C47.8726 9.58578 48.1363 9.32085 48.4779 9.15685C48.8194 8.99284 49.1849 8.91084 49.5864 8.91084C50.0718 8.91084 50.4912 8.99915 50.8507 9.18208C51.2103 9.3587 51.5099 9.60471 51.7496 9.9201C51.9892 10.2355 52.163 10.6013 52.2829 11.0177C52.4027 11.434 52.4626 11.8818 52.4626 12.3549C52.4626 12.7902 52.4087 13.2128 52.3008 13.6165C52.193 14.0265 52.0312 14.3861 51.8155 14.7014C51.5998 15.0168 51.3241 15.2628 50.9886 15.4521C50.653 15.6413 50.2635 15.7359 49.8081 15.7359C49.6104 15.7359 49.4126 15.717 49.2149 15.6792C49.0171 15.6413 48.8254 15.5782 48.6456 15.4962C48.4659 15.4142 48.2921 15.307 48.1423 15.1745C47.9865 15.0421 47.8607 14.8907 47.7528 14.7204H47.7288V17.95H46.3746V9.08746ZM51.1084 12.3297C51.1084 12.0395 51.0724 11.7557 51.0005 11.4781C50.9286 11.2006 50.8208 10.9609 50.677 10.7464C50.5332 10.532 50.3534 10.3616 50.1437 10.2355C49.9279 10.1093 49.6823 10.0399 49.4066 10.0399C48.8374 10.0399 48.4059 10.2481 48.1183 10.6644C47.8307 11.0807 47.6869 11.6358 47.6869 12.3297C47.6869 12.6577 47.7228 12.9605 47.8007 13.238C47.8786 13.5156 47.9865 13.7553 48.1423 13.9571C48.2921 14.159 48.4719 14.3167 48.6816 14.4302C48.8913 14.5501 49.137 14.6068 49.4126 14.6068C49.7242 14.6068 49.9819 14.5374 50.1976 14.405C50.4133 14.2725 50.5871 14.0959 50.7249 13.8877C50.8627 13.6733 50.9646 13.4336 51.0245 13.1623C51.0784 12.8911 51.1084 12.6136 51.1084 12.3297ZM53.4993 6.62109H54.8535V7.97097H53.4993V6.62109ZM53.4993 9.08746H54.8535V15.5593H53.4993V9.08746ZM56.0639 6.62109H57.4181V15.5593H56.0639V6.62109ZM61.5707 15.7359C61.0793 15.7359 60.6419 15.6476 60.2584 15.4773C59.8749 15.307 59.5513 15.0673 59.2817 14.7708C59.018 14.4681 58.8143 14.1085 58.6765 13.6922C58.5387 13.2759 58.4667 12.8154 58.4667 12.3171C58.4667 11.8251 58.5387 11.3709 58.6765 10.9546C58.8143 10.5383 59.018 10.1787 59.2817 9.87594C59.5453 9.57317 59.8749 9.33978 60.2584 9.16946C60.6419 8.99915 61.0793 8.91084 61.5707 8.91084C62.062 8.91084 62.4995 8.99915 62.883 9.16946C63.2665 9.33978 63.59 9.57947 63.8597 9.87594C64.1233 10.1787 64.3271 10.5383 64.4649 10.9546C64.6027 11.3709 64.6746 11.8251 64.6746 12.3171C64.6746 12.8154 64.6027 13.2759 64.4649 13.6922C64.3271 14.1085 64.1233 14.4681 63.8597 14.7708C63.596 15.0736 63.2665 15.307 62.883 15.4773C62.4995 15.6476 62.062 15.7359 61.5707 15.7359ZM61.5707 14.6068C61.8703 14.6068 62.1339 14.5374 62.3557 14.405C62.5774 14.2725 62.7571 14.0959 62.9009 13.8814C63.0447 13.667 63.1466 13.421 63.2185 13.1497C63.2844 12.8785 63.3204 12.6009 63.3204 12.3171C63.3204 12.0395 63.2844 11.7683 63.2185 11.4908C63.1526 11.2132 63.0447 10.9735 62.9009 10.759C62.7571 10.5446 62.5774 10.3743 62.3557 10.2418C62.1339 10.1093 61.8703 10.0399 61.5707 10.0399C61.2711 10.0399 61.0074 10.1093 60.7857 10.2418C60.564 10.3743 60.3842 10.5509 60.2404 10.759C60.0966 10.9735 59.9947 11.2132 59.9228 11.4908C59.8569 11.7683 59.821 12.0395 59.821 12.3171C59.821 12.6009 59.8569 12.8785 59.9228 13.1497C59.9888 13.421 60.0966 13.667 60.2404 13.8814C60.3842 14.0959 60.564 14.2725 60.7857 14.405C61.0074 14.5438 61.2711 14.6068 61.5707 14.6068ZM65.0701 9.08746H66.0947V7.14465H67.449V9.08746H68.6714V10.1535H67.449V13.6102C67.449 13.7616 67.455 13.8877 67.4669 14.0013C67.4789 14.1085 67.5089 14.2031 67.5508 14.2788C67.5928 14.3545 67.6587 14.4113 67.7486 14.4491C67.8385 14.487 67.9523 14.5059 68.1081 14.5059C68.204 14.5059 68.2999 14.5059 68.3957 14.4996C68.4916 14.4933 68.5875 14.4807 68.6834 14.4554V15.5593C68.5336 15.5782 68.3837 15.5909 68.2459 15.6098C68.1021 15.6287 67.9583 15.635 67.8085 15.635C67.449 15.635 67.1613 15.5972 66.9456 15.5278C66.7299 15.4584 66.5561 15.3512 66.4363 15.2124C66.3105 15.0736 66.2326 14.9033 66.1846 14.6951C66.1427 14.487 66.1127 14.2473 66.1067 13.9824V10.1661H65.0821V9.08746L65.0701 9.08746Z" fill="#191919"/>
<path d="M17.0457 6.62188H10.8379L8.9204 0.402344L6.99692 6.62188L0.789062 6.61558L5.81647 10.4634L3.89299 16.6766L8.9204 12.8351L13.9418 16.6766L12.0243 10.4634L17.0457 6.62188Z" fill="#00B67A"/>
<path d="M12.4572 11.8715L12.0258 10.4648L8.92188 12.8366L12.4572 11.8715Z" fill="#005128"/>
</svg>
