<svg width="101" height="19" viewBox="0 0 101 19" fill="none" xmlns="http://www.w3.org/2000/svg">
<path d="M0.789062 18.4414H19.2511V0H0.789062V18.4414Z" fill="#00B67A"/>
<path d="M16.5273 7.8448L6.05581 15.4431L7.58379 10.7471L3.58398 7.8448H8.52795L10.0556 3.14844L11.5833 7.8448H16.5273ZM10.056 12.5412L12.9158 11.9403L14.0552 15.4431L10.056 12.5412Z" fill="white"/>
<path d="M21.1914 18.4414H39.6534V0H21.1914V18.4414Z" fill="#00B67A"/>
<path d="M21.1914 18.4414H30.4224V0H21.1914V18.4414Z" fill="#00B67A"/>
<path d="M30.643 12.4699L33.0952 11.9405L34.2294 15.5229L30.3837 12.6559L26.388 15.5229L27.9389 10.8098L23.8789 7.89701H28.8972L30.4474 3.18359L31.9982 7.89701H37.0161L30.643 12.4699Z" fill="white"/>
<path d="M41.6074 18.4414H60.0694V0H41.6074V18.4414Z" fill="#00B67A"/>
<path d="M41.6074 18.4414H50.8384V0H41.6074V18.4414Z" fill="#00B67A"/>
<path d="M57.3456 7.8448L46.8742 15.4431L48.4022 10.7471L44.4023 7.8448H49.3463L50.874 3.14844L52.4016 7.8448L57.3456 7.8448ZM50.8744 12.5412L53.7341 11.9403L54.8735 15.4431L50.8744 12.5412Z" fill="white"/>
<path d="M62.0215 18.4414H80.4835V0H62.0215V18.4414Z" fill="#00B67A"/>
<path d="M62.0215 18.4414H71.2525V0H62.0215V18.4414Z" fill="#00B67A"/>
<path d="M77.7597 7.8448L67.2885 15.4431L68.8162 10.7471L64.8164 7.8448H69.7604L71.288 3.14844L72.8157 7.8448L77.7597 7.8448ZM71.2884 12.5412L74.1482 11.9403L75.2876 15.4431L71.2884 12.5412Z" fill="white"/>
<path d="M82.4238 18.4414H100.886V0H82.4238V18.4414Z" fill="#00B67A"/>
<path d="M82.4238 18.4414H91.6548V0H82.4238V18.4414Z" fill="#00B67A"/>
<path d="M98.162 7.8448L87.6909 15.4431L89.2186 10.7471L85.2188 7.8448H90.1627L91.6904 3.14844L93.218 7.8448H98.162ZM91.6908 12.5412L94.5505 11.9403L95.6899 15.4431L91.6908 12.5412Z" fill="white"/>
</svg>
