<svg width="101" height="19" viewBox="0 0 101 19" fill="none" xmlns="http://www.w3.org/2000/svg">
<path d="M0.808594 18.4414H19.2706V0H0.808594V18.4414Z" fill="#73CF11"/>
<path d="M16.5487 7.8448L6.07729 15.4431L7.60528 10.7471L3.60547 7.8448H8.54944L10.0771 3.14844L11.6048 7.8448H16.5487ZM10.0775 12.5412L12.9373 11.9403L14.0767 15.4431L10.0775 12.5412Z" fill="white"/>
<path d="M21.2109 18.4414H39.673V0H21.2109V18.4414Z" fill="#73CF11"/>
<path d="M21.2109 18.4414H30.4419V0H21.2109V18.4414Z" fill="#73CF11"/>
<path d="M30.6625 12.4699L33.1148 11.9405L34.249 15.5229L30.4033 12.6559L26.4076 15.5229L27.9584 10.8098L23.8984 7.89701H28.9167L30.4669 3.18359L32.0177 7.89701H37.0357L30.6625 12.4699Z" fill="white"/>
<path d="M41.625 18.4414H60.087V0H41.625V18.4414Z" fill="#73CF11"/>
<path d="M41.625 18.4414H50.856V0H41.625V18.4414Z" fill="#73CF11"/>
<path d="M57.3651 7.8448L46.8937 15.4431L48.4217 10.7471L44.4219 7.8448H49.3658L50.8935 3.14844L52.4212 7.8448L57.3651 7.8448ZM50.8939 12.5412L53.7537 11.9403L54.8931 15.4431L50.8939 12.5412Z" fill="white"/>
<path d="M62.043 18.4414H80.505V0H62.043V18.4414Z" fill="#73CF11"/>
<path d="M62.043 18.4414H71.274V0H62.043V18.4414Z" fill="#73CF11"/>
<path d="M77.7792 7.8448L67.3081 15.4431L68.8357 10.7471L64.8359 7.8448H69.7799L71.3076 3.14844L72.8352 7.8448L77.7792 7.8448ZM71.308 12.5412L74.1677 11.9403L75.3071 15.4431L71.308 12.5412Z" fill="white"/>
<path d="M82.4453 18.4414H100.907V0H82.4453V18.4414Z" fill="#DCDCE6"/>
<path d="M82.4453 18.4414H91.6763V0H82.4453V18.4414Z" fill="#DCDCE6"/>
<path d="M98.1815 7.8448L87.7104 15.4431L89.2381 10.7471L85.2383 7.8448H90.1822L91.7099 3.14844L93.2376 7.8448H98.1815ZM91.7103 12.5412L94.5701 11.9403L95.7095 15.4431L91.7103 12.5412Z" fill="white"/>
</svg>
