<svg width="164" height="38" viewBox="0 0 164 38" fill="none" xmlns="http://www.w3.org/2000/svg">
<g clip-path="url(#clip0_393_3491)">
<g clip-path="url(#clip1_393_3491)">
<g clip-path="url(#clip2_393_3491)">
<path d="M106.906 17.4719H112.77L113.479 15.4231H110.07L112.322 8.88146H109.381L109.313 9.09944L109.46 9.24543C109.619 9.40242 109.614 9.58641 109.475 9.98539L106.906 17.4719ZM113.379 17.4719H115.873L116.954 15.572H119.536L119.562 17.4719H121.826L121.338 8.88346H117.95L117.875 9.10444L117.985 9.21344C118.164 9.38843 118.09 9.64041 117.43 10.6863L113.379 17.4719ZM119.378 11.2583H119.456L119.496 13.8582H117.913L119.378 11.2583ZM133.626 9.99039L131.061 17.4749H134.845C135.448 17.5408 136.057 17.4703 136.628 17.2686C137.199 17.067 137.718 16.7393 138.145 16.31C139.223 14.8505 139.841 13.1029 139.921 11.2903C139.893 9.8324 138.952 8.88346 136.973 8.88346H133.534L133.463 9.10444L133.612 9.25043C133.77 9.40742 133.764 9.59141 133.626 9.99039ZM135.686 10.9213H136.625C137.265 10.9213 137.618 11.1353 137.625 11.6313C137.584 12.2171 137.445 12.7918 137.212 13.3312C137.045 13.9477 136.752 14.5228 136.351 15.0201C136.084 15.3011 135.729 15.4261 134.914 15.4261H134.129L135.686 10.9213ZM122.356 17.4689H124.512L126.391 11.9103L127.491 17.4689H129.648L132.588 8.87746H130.333L128.763 13.5482L127.863 8.87746H124.824L124.75 9.09844L124.899 9.24443C125.058 9.40142 125.051 9.58541 124.915 9.98439L122.356 17.4689ZM147.911 11.9603H142.193L141.449 14.0061H145.411L140.911 15.533L140.634 16.265L147.118 14.1321L147.911 11.9603ZM140.682 24.4775L141.339 22.6776H138.318L138.786 21.3057H142.059L142.777 19.3218H136.601L136.515 19.5748L136.662 19.7198C136.822 19.8748 136.815 20.0588 136.677 20.4577L134.105 27.9173H139.876L140.576 25.9174H137.208L137.708 24.4705L140.682 24.4775ZM151.723 8.1995C144.613 4.52372 135.759 3.11581 127.825 3.11581C119.89 3.11581 111.036 4.52372 103.926 8.1995C99.9316 10.2624 94.863 13.9851 94.863 19.0038C94.863 24.0225 99.9326 27.7433 103.926 29.8092C111.039 33.482 119.892 34.8899 127.825 34.8899C135.757 34.8899 144.616 33.484 151.723 29.8092C155.723 27.7433 160.788 24.0195 160.788 19.0038C160.788 13.9881 155.72 10.2584 151.723 8.1995ZM151.36 29.0982C144.361 32.716 135.646 34.0909 127.822 34.0909C119.997 34.0909 111.289 32.716 104.284 29.0982C100.578 27.1813 95.6509 23.6496 95.6509 18.9988C95.6509 14.3481 100.577 10.8153 104.284 8.89945C111.284 5.28168 119.996 3.90576 127.822 3.90576C135.647 3.90576 144.357 5.28068 151.36 8.89945C155.07 10.8143 159.995 14.3421 159.995 18.9988C159.995 23.6556 155.068 27.1823 151.36 29.0982ZM153.152 5.42867C146.375 1.92888 137.378 0 127.821 0C118.264 0 109.269 1.92888 102.492 5.43067C98.4787 7.50554 91.7441 12.0303 91.7441 18.9998C91.7441 25.9694 98.4787 30.4931 102.492 32.568C109.268 36.0678 118.263 37.9977 127.821 37.9977C137.379 37.9977 146.376 36.0698 153.152 32.568C157.167 30.4931 163.9 25.9684 163.9 18.9998C163.9 12.0313 157.167 7.50054 153.152 5.43067M152.272 30.8631C145.764 34.2269 137.081 36.0788 127.822 36.0788C118.562 36.0788 109.884 34.2269 103.374 30.8631C97.1148 27.6283 93.664 23.4136 93.664 19.0008C93.664 14.5881 97.1138 10.3694 103.373 7.13656C109.883 3.77477 118.563 1.91988 127.821 1.91988C137.078 1.91988 145.763 3.77477 152.271 7.13656C158.532 10.3694 161.98 14.5831 161.98 18.9998C161.98 23.4166 158.533 27.6273 152.271 30.8621M147.411 19.3308H143.7L143.628 19.5528L143.777 19.6998C143.936 19.8558 143.928 20.0408 143.793 20.4377L141.193 27.9233H143.565L144.577 24.9525H145.377L146.269 27.9233H148.647L147.531 24.8835C148.015 24.8336 148.471 24.6296 148.831 24.3015C149.33 23.7976 149.681 23.1658 149.845 22.4756C150.003 22.1129 150.077 21.7191 150.061 21.3238C150.045 20.9284 149.94 20.5417 149.754 20.1928C149.423 19.6988 148.726 19.3298 147.406 19.3298M147.612 22.4486C147.575 22.5742 147.508 22.689 147.417 22.7834C147.326 22.8777 147.214 22.9488 147.09 22.9906C146.849 23.0521 146.601 23.0781 146.353 23.0676H145.222L145.833 21.2917H147.202C147.61 21.2917 147.779 21.5047 147.782 21.7477C147.763 21.9886 147.705 22.2249 147.612 22.4476M109.889 20.4387L103.404 22.5716L102.612 24.7445H108.331L109.076 22.6976H105.113L109.613 21.1747L109.889 20.4387ZM115.827 19.3308H112.113L112.038 19.5528L112.189 19.6998C112.347 19.8558 112.341 20.0408 112.202 20.4377L109.613 27.9243H111.982L112.995 24.9525H113.795L114.687 27.9233H117.068L115.948 24.8835C116.432 24.8333 116.888 24.6293 117.248 24.3015C117.746 23.7969 118.096 23.1654 118.261 22.4756C118.418 22.1128 118.492 21.7189 118.476 21.3235C118.46 20.9282 118.354 20.5416 118.168 20.1928C117.88 19.865 117.514 19.6143 117.105 19.4636C116.695 19.3129 116.254 19.2669 115.823 19.3298M116.023 22.4486C115.985 22.5745 115.918 22.6896 115.827 22.7839C115.736 22.8783 115.623 22.9492 115.499 22.9906C115.257 23.0524 115.008 23.0784 114.76 23.0676H113.628L114.243 21.2917H115.611C116.02 21.2917 116.188 21.5047 116.193 21.7477C116.173 21.9886 116.116 22.2249 116.022 22.4476M133.47 19.3288L130.325 25.5044H130.259L130.1 19.3288H127.469L127.369 19.5508L127.595 19.6878C127.813 19.8418 127.873 19.9978 127.902 20.4257L128.258 27.9253H131.19L135.919 19.3318L133.47 19.3288ZM123.97 19.2228H123.698C123.09 19.1701 122.478 19.2543 121.907 19.4692C121.336 19.6841 120.821 20.0243 120.398 20.4647C119.312 21.9634 118.682 23.7441 118.584 25.5924C118.602 27.0483 119.544 28.0573 121.524 28.0573H121.814C122.424 28.1109 123.037 28.027 123.61 27.8119C124.182 27.5968 124.699 27.2559 125.122 26.8144C126.204 25.3151 126.83 23.5345 126.922 21.6877C126.903 20.2318 125.961 19.2218 123.979 19.2218M124.117 23.7755C123.949 24.4106 123.654 25.0049 123.249 25.5224C123.061 25.7059 122.834 25.8446 122.585 25.9284C122.336 26.0122 122.071 26.0388 121.81 26.0064C121.17 26.0064 120.81 25.7444 120.81 25.2495C120.851 24.6467 120.994 24.0555 121.235 23.5016C121.404 22.8664 121.699 22.2721 122.104 21.7547C122.292 21.571 122.519 21.4321 122.768 21.3483C123.017 21.2645 123.282 21.238 123.542 21.2707C124.182 21.2707 124.542 21.5327 124.536 22.0257C124.499 22.6295 124.355 23.2222 124.113 23.7765" fill="black"/>
<path d="M14.189 4.39467L14.401 4.39967C14.7342 4.38533 15.0606 4.30083 15.3589 4.15168C15.4582 4.11253 15.5518 4.06005 15.6369 3.99569C15.4059 3.99569 15.037 3.98969 14.898 3.98969C14.7267 3.97865 14.5551 4.00636 14.396 4.07076C14.2369 4.13516 14.0944 4.23459 13.979 4.36167C13.979 4.38167 14.059 4.38967 14.188 4.39467M70.0456 20.4467C69.7046 19.6877 68.7637 19.9337 68.7637 19.9337C68.3197 20.0277 67.8117 20.5337 67.0578 20.7597C66.1041 21.048 65.0828 21.0206 64.1459 20.6817C61.6541 19.6037 53.6406 15.016 49.5658 13.0121C49.5658 13.0121 44.8321 10.8203 37.9616 8.10044C37.9616 8.10044 24.4624 2.33979 15.4539 2.81276C15.4539 2.81276 10.6542 2.93976 9.14032 5.05863C9.06888 5.14063 9.02086 5.24038 9.00133 5.34737C8.9818 5.45436 8.99147 5.56463 9.02933 5.66659C9.03707 5.69242 9.03819 5.71979 9.0326 5.74617C9.02701 5.77255 9.01488 5.79711 8.99733 5.81758C8.5419 6.22796 8.13282 6.687 7.7774 7.1865C7.67504 7.31374 7.61857 7.47178 7.61712 7.63508C7.61567 7.79838 7.66932 7.9574 7.7694 8.08644C7.84151 8.14189 7.90546 8.20719 7.95939 8.28043C8.0681 8.50484 8.1924 8.72135 8.33137 8.92839C8.46713 9.12556 8.6528 9.28315 8.86943 9.38505C9.08605 9.48695 9.32584 9.5295 9.56429 9.50835C9.83128 9.46236 9.83228 9.38736 9.83228 9.38736C10.0516 9.57388 10.3303 9.676 10.6182 9.67534C10.4988 9.42019 10.3985 9.15647 10.3182 8.88639C10.3011 8.72333 10.3147 8.55849 10.3582 8.40042C10.4419 8.09922 10.5911 7.82024 10.7952 7.58347C10.9136 7.46729 11.0669 7.39321 11.2314 7.37262C11.396 7.35202 11.5628 7.38605 11.7062 7.46948C11.9198 7.68722 12.0641 7.96332 12.1211 8.26298C12.178 8.56265 12.145 8.87246 12.0261 9.15338C12.0141 9.21937 11.7262 9.84333 11.4092 9.93833C11.3801 9.94535 11.3501 9.94838 11.3202 9.94733C11.1087 9.9102 10.9056 9.83571 10.7202 9.72734C10.7207 9.82349 10.7363 9.91896 10.7662 10.0103C10.8012 10.1413 10.8472 10.2833 10.8842 10.3943C10.8842 10.3943 10.8082 10.5303 10.7592 10.6093C10.6932 10.6943 10.6202 11.0033 10.7822 11.1213C11.1927 11.3945 11.6603 11.5703 12.1491 11.6352C12.2717 11.6512 12.3963 11.633 12.5092 11.5827C12.6221 11.5324 12.719 11.452 12.7891 11.3502C13.0675 10.919 13.3888 10.5169 13.748 10.1503C14.4285 9.57646 15.2425 9.18307 16.1149 9.00639C16.2069 8.99439 17.7148 8.57441 20.2836 10.6263C19.5507 10.6853 18.6777 10.8603 18.0118 10.9783C17.2602 11.1764 16.5603 11.5347 15.9602 12.0287C15.3601 12.5226 14.8739 13.1406 14.535 13.8401C14.3988 14.0657 14.3156 14.3192 14.2917 14.5816C14.2677 14.844 14.3035 15.1084 14.3965 15.3549C14.4895 15.6014 14.6372 15.8237 14.8285 16.0048C15.0198 16.186 15.2497 16.3215 15.5009 16.4009C16.0815 16.3104 16.6299 16.0749 17.0952 15.716C17.5605 15.3571 17.9277 14.8866 18.1628 14.3481C18.243 14.122 18.4083 13.9363 18.6235 13.8304C18.8386 13.7245 19.0867 13.7068 19.3147 13.7811C19.8617 13.9581 24.6984 15.649 25.7873 15.935C25.7873 15.935 29.0251 16.7789 30.245 15.289C32.1939 15.929 34.0238 16.2379 38.8155 15.62C39.308 15.5553 39.8047 15.5275 40.3014 15.537C40.7787 15.582 41.2419 15.7232 41.6631 15.9521C42.0844 16.181 42.4548 16.4929 42.7523 16.8689C44.0112 18.8858 45.6111 22.8925 51.1617 22.4046L53.6716 22.1776C55.0413 21.9563 56.4458 22.1352 57.7163 22.6925C58.3892 23.0045 58.9966 23.4416 59.5062 23.9805C60.7851 25.1974 61.9621 26.5123 63.527 25.7944C64.0035 25.4665 64.4053 25.0416 64.7059 24.5474C64.6753 24.2958 64.5918 24.0535 64.461 23.8364C64.3302 23.6193 64.155 23.4322 63.947 23.2875C65.3689 23.6255 68.5747 23.8445 69.8166 21.6746C69.9505 21.5033 70.0416 21.3026 70.0823 21.089C70.123 20.8754 70.1121 20.6552 70.0506 20.4467M69.5446 21.4706C69.2398 22.0741 68.7189 22.5406 68.0857 22.7775C67.0252 23.1224 65.8996 23.2189 64.7959 23.0595C63.5067 22.8402 62.3261 22.2007 61.4381 21.2406C60.9431 20.7237 60.3382 20.1407 59.7742 19.5587C59.2876 19.0184 58.6277 18.6648 57.9083 18.5588C56.3694 18.4741 54.837 18.2961 53.3196 18.0258C52.2653 17.6115 51.3924 16.8361 50.8568 15.838C50.4702 15.2596 49.9431 14.789 49.3249 14.47C49.6467 14.7345 49.9222 15.0508 50.1398 15.406C50.5658 16.1649 50.7798 16.7169 51.0118 17.1199C51.2351 17.5356 51.5374 17.9038 51.9017 18.2038C52.2769 18.5229 52.742 18.7176 53.2326 18.7608C54.4663 18.8388 55.7031 18.8544 56.9384 18.8078C57.4029 18.7672 57.8709 18.8214 58.3139 18.9672C58.7568 19.1129 59.1656 19.3472 59.5152 19.6557C59.9572 20.0277 60.7152 21.0906 61.1791 21.5556C61.7499 22.2409 62.4489 22.8081 63.237 23.2255C63.618 23.4185 64.2369 23.8925 64.2099 24.3504C63.717 24.8444 63.105 24.9734 61.6361 24.5804C61.9154 24.8636 62.2682 25.063 62.6548 25.1563C63.0414 25.2496 63.4463 25.233 63.824 25.1084C63.5017 25.41 63.0733 25.5721 62.632 25.5594C61.2561 25.4834 59.9082 23.7875 59.1523 23.1595C58.6426 22.7002 58.1024 22.2759 57.5354 21.8896C56.0534 20.8637 52.7286 21.1526 52.7286 21.1526L50.2888 21.2796C45.5361 21.6396 43.5412 17.4299 43.0142 16.5509C42.8617 16.2903 42.6931 16.0395 42.5093 15.8C41.7574 14.7473 40.7831 13.8731 39.6554 13.2391C39.6554 13.2391 40.9454 14.3491 40.8694 15.084C40.2206 14.902 39.5362 14.8879 38.8805 15.043C32.6199 15.935 30.49 14.3681 30.49 14.3681C30.6098 13.4777 30.4015 12.5743 29.904 11.8262C31.9859 12.5431 34.2096 12.7489 36.3876 12.4262C36.3876 12.4262 31.6309 12.4512 28.2961 9.79134C28.2961 9.79134 30.372 12.3912 29.879 14.0911C29.879 14.0911 29.5381 15.906 25.9203 15.174C25.5343 15.097 25.0803 14.968 19.6637 13.4651C18.3908 13.0841 17.9508 13.6921 17.7218 14.0571C17.6607 14.3356 17.5444 14.599 17.3799 14.8319C17.2154 15.0647 17.0059 15.2623 16.7639 15.413C16.5561 15.3932 16.3564 15.3227 16.1822 15.2076C16.0081 15.0925 15.8649 14.9364 15.7653 14.753C15.6656 14.5696 15.6126 14.3646 15.6108 14.1559C15.609 13.9471 15.6585 13.7412 15.7549 13.5561C14.7 15.064 15.8049 15.731 16.1549 15.778C15.9459 15.878 15.7479 15.952 15.5799 16.015C15.3988 15.9133 15.2396 15.7769 15.1114 15.6136C14.9832 15.4502 14.8884 15.2632 14.8327 15.0632C14.777 14.8631 14.7613 14.654 14.7865 14.4479C14.8118 14.2418 14.8775 14.0427 14.98 13.8621C15.3488 13.0746 15.9348 12.4087 16.669 11.9427C17.4032 11.4767 18.2551 11.2298 19.1247 11.2312C19.8376 11.1333 20.5588 11.1101 21.2766 11.1623C22.7225 11.3622 23.6284 12.1782 25.7943 12.3882C21.1946 11.0343 21.1886 8.37342 21.1716 8.32143C20.9609 9.06083 20.9995 9.84905 21.2816 10.5643C21.2176 10.5423 20.2126 9.88133 19.8297 9.64835C18.929 9.07089 17.9271 8.66948 16.8768 8.46542C16.3299 8.39542 16.0769 7.73046 16.0769 7.73046C16.0579 7.69647 16.0379 7.66547 16.0189 7.63047C15.2579 6.33055 14.505 6.30455 14.505 6.30455C14.7734 6.7233 14.9228 7.20726 14.937 7.70446C15.1619 9.32037 13.3371 9.81833 13.3371 9.81833C12.2161 11.2402 12.2751 11.2702 12.0261 11.3062C11.7459 11.2791 11.4739 11.1962 11.2262 11.0623C11.2028 11.0199 11.1937 10.9711 11.2004 10.9231C11.2071 10.8752 11.2291 10.8307 11.2632 10.7963C11.4732 10.6303 11.6452 10.4643 11.6452 10.4643C12.8301 9.25237 12.9721 8.66441 12.8251 7.87645C12.5251 6.30155 11.4002 6.48454 11.4002 6.48454C11.2409 6.49849 11.0874 6.55138 10.9533 6.63856C10.8192 6.72574 10.7086 6.84454 10.6312 6.98451C10.4442 7.27449 10.0443 8.16244 10.0443 8.16244C9.79928 8.6924 9.55029 8.8114 9.4213 8.8354C9.355 8.84388 9.28808 8.84656 9.22131 8.84339C8.96022 8.80976 8.7212 8.67955 8.55136 8.47842C8.53336 8.46042 8.51636 8.44142 8.50336 8.42642C8.40439 8.30819 8.34218 8.16357 8.32442 8.01041C8.30665 7.85724 8.33409 7.70223 8.40336 7.56447C8.52305 7.24177 8.724 6.95543 8.98676 6.73313C9.24952 6.51083 9.5652 6.36011 9.90327 6.29555C10.0303 6.27855 10.4492 6.21856 10.4492 6.21856C10.8192 6.12577 11.1641 5.95209 11.4589 5.71002C11.7537 5.46795 11.9911 5.16351 12.1541 4.81864C11.766 4.8075 11.3775 4.82152 10.9912 4.86064C10.2233 4.99463 9.96227 5.89858 9.96227 5.89858C9.31131 6.04757 9.32831 5.4886 9.4423 5.31761C9.55629 5.14662 9.92627 4.48966 12.4241 3.9117C13.6921 3.63398 14.9946 3.54903 16.2879 3.65971L16.1789 3.8597C15.8978 4.29165 15.4863 4.6227 15.0042 4.80469C14.5221 4.98668 13.9944 5.01013 13.4981 4.87164C13.4981 4.87164 13.5121 5.5496 15.1669 5.79158C16.6674 6.24857 18.046 7.03695 19.2007 8.09844C18.5041 6.73429 17.3493 5.6591 15.9389 5.06163C15.9389 5.06163 15.6819 5.00663 15.8079 4.84464C16.6197 4.13168 17.6406 3.70087 18.7177 3.61672C18.7177 3.61672 24.2654 3.08275 27.3442 7.31649C26.8807 6.40663 26.3344 5.54136 25.7123 4.73165C25.7123 4.73165 28.9331 5.64159 33.8858 7.36349C33.8858 7.36349 37.2656 8.56341 39.4285 9.41536C44.5003 11.3253 49.4664 13.505 54.3056 15.945C55.1365 16.3959 63.559 20.7887 63.559 20.7887C64.7746 21.4208 66.1849 21.5677 67.5047 21.1996C68.0297 20.9997 68.9817 20.2687 69.3986 20.6827C69.4973 20.7846 69.5633 20.9136 69.5883 21.0533C69.6132 21.1929 69.5959 21.3369 69.5386 21.4666M10.2253 5.87458C10.2253 5.87458 10.2753 5.72959 10.2882 5.69359C10.3012 5.65759 10.4412 5.28061 10.7882 5.24462C10.7882 5.24462 10.9882 5.23262 11.2952 5.23262C11.2348 5.38728 11.1344 5.52308 11.0042 5.62606C10.8739 5.72904 10.7186 5.79549 10.5542 5.81858C10.4474 5.84347 10.3392 5.86217 10.2303 5.87458M13.645 33.0589H18.6887L16.1599 30.1231L13.645 33.0589ZM19.3337 33.7999H13.0051L11.9561 35.0208H10.7192L15.6889 29.2881H17.7888L22.7675 35.0218H20.3816L19.3337 33.7999ZM50.9828 33.0589H56.0334L53.5046 30.1231L50.9828 33.0589ZM56.6714 33.7999H50.3428L49.2939 35.0208H48.0569L53.0306 29.2871H55.1305L60.1082 35.0208H57.7183L56.6714 33.7999ZM9.74428 29.2881V32.088C9.77571 32.4306 9.73529 32.776 9.62561 33.1021C9.51593 33.4282 9.3394 33.7279 9.10732 33.9819C8.35637 34.7488 6.91846 35.0268 4.88158 35.0268H0.589844V34.2568H4.5416C5.44098 34.3626 6.34634 34.1157 7.06745 33.5679C7.26696 33.3453 7.41821 33.0837 7.51165 32.7998C7.6051 32.5158 7.63873 32.2156 7.61041 31.918V29.2881H9.74428ZM32.0659 34.2558V32.388H34.1878V35.0208H28.0142C27.0766 35.0566 26.1406 34.9169 25.2543 34.6088C24.7443 34.4375 24.3045 34.1036 24.0023 33.6584C23.7002 33.2132 23.5523 32.6812 23.5814 32.144C23.5698 31.6847 23.6849 31.231 23.9143 30.8329C24.1436 30.4347 24.4782 30.1075 24.8814 29.8871C25.8422 29.4129 26.9128 29.2057 27.9812 29.2871H33.9808V30.0531H28.6401C27.8507 29.9644 27.0558 30.1625 26.4003 30.6111C26.1922 30.8154 26.0277 31.0597 25.9167 31.3293C25.8057 31.5989 25.7504 31.8882 25.7543 32.1797C25.7581 32.4713 25.8209 32.759 25.939 33.0256C26.0571 33.2922 26.2279 33.5321 26.4413 33.7309C27.1007 34.1489 27.8814 34.3331 28.6581 34.2538L32.0659 34.2558ZM69.3856 32.9959C70.0784 33.0067 70.7646 32.86 71.3925 32.5669C71.6432 32.4267 71.8505 32.2201 71.9916 31.9698C72.1327 31.7195 72.2022 31.4352 72.1925 31.148C72.2153 30.8233 72.1339 30.4997 71.9602 30.2244C71.7865 29.9491 71.5295 29.7363 71.2265 29.6171C70.3916 29.3305 69.5066 29.2189 68.6267 29.2891H62.0071V35.0228H64.1409V33.0299H66.9408L70.1406 35.0168H72.7404L69.3856 32.9959ZM68.3477 30.0101C68.8298 29.9447 69.3202 30.0347 69.7476 30.2671C69.8659 30.3717 69.9565 30.504 70.0113 30.6521C70.0661 30.8002 70.0834 30.9596 70.0616 31.116V31.224C70.0796 31.3865 70.056 31.551 69.9928 31.7018C69.9296 31.8526 69.8291 31.9848 69.7006 32.086C69.2908 32.29 68.83 32.3689 68.3757 32.313H64.1419V30.0131L68.3477 30.0101ZM47.116 29.2871V32.144C47.1748 32.7823 47.0147 33.4216 46.662 33.9569C46.0551 34.7568 44.9441 35.2098 41.8413 35.2098H41.8083C38.7235 35.2098 37.6086 34.7528 36.9996 33.9569C36.6472 33.4211 36.4874 32.7815 36.5466 32.143V29.2881H38.6815V32.064C38.6278 32.6124 38.7568 33.1633 39.0485 33.6309C39.5095 34.2818 40.3074 34.5158 41.7413 34.5158H41.9233C43.4232 34.5158 44.1532 34.2808 44.6151 33.6299C44.9036 33.1621 45.0324 32.6133 44.9821 32.066V29.2881L47.116 29.2871Z" fill="black"/>
</g>
</g>
</g>
<defs>
<clipPath id="clip0_393_3491">
<rect width="163.31" height="38" fill="white" transform="translate(0.589844)"/>
</clipPath>
<clipPath id="clip1_393_3491">
<rect width="163.31" height="38" fill="white" transform="translate(0.589844)"/>
</clipPath>
<clipPath id="clip2_393_3491">
<rect width="163.31" height="37.9977" fill="white" transform="translate(0.589844)"/>
</clipPath>
</defs>
</svg>
