<svg width="73" height="38" viewBox="0 0 73 38" fill="none" xmlns="http://www.w3.org/2000/svg">
<g clip-path="url(#clip0_393_3561)">
<g clip-path="url(#clip1_393_3561)">
<g clip-path="url(#clip2_393_3561)">
<path d="M45.2813 24.3798H29.9883L31.6483 20.0508H46.9403" fill="white"/>
<path d="M37.1484 22.5914H38.2184L38.1724 21.3164" fill="black"/>
<path d="M43.2513 15.7167C40.3993 18.4937 36.1353 16.7167 36.5693 13.3167C36.9033 10.6887 40.1263 8.07068 42.5693 6.64868V6.61868C42.2513 6.31868 41.5883 5.62768 41.1613 5.11068C40.8934 4.76807 40.5497 4.49232 40.1572 4.30515C39.7647 4.11797 39.3341 4.02448 38.8993 4.03205C38.4645 4.03961 38.0374 4.14801 37.6517 4.34872C37.2659 4.54943 36.932 4.83697 36.6763 5.18868L29.6573 5.84268V5.88668L37.1783 6.32168C38.5133 6.39768 38.9473 7.60668 37.6603 8.58168C32.8843 12.1987 32.0323 16.0297 33.1003 19.0657L33.0643 19.0827C32.6102 18.4249 32.2892 17.6847 32.1193 16.9037C30.5492 15.9034 29.329 14.4398 28.6274 12.7154C27.9259 10.9911 27.7776 9.09129 28.2033 7.27901C28.629 5.46673 29.6075 3.83158 31.0034 2.5999C32.3993 1.36822 34.1435 0.600916 35.9947 0.404191C37.8459 0.207466 39.7124 0.591051 41.336 1.50185C42.9596 2.41266 44.2599 3.80563 45.0569 5.48797C45.854 7.17031 46.1084 9.05882 45.7849 10.8921C45.4614 12.7254 44.576 14.4127 43.2513 15.7207M45.0063 24.1427H40.6883L42.2193 20.1547H44.1193L42.9083 23.2977H45.3303L45.0063 24.1427ZM38.2753 24.1427L38.2463 23.3577H36.5273L35.8942 24.1427H34.3243L37.5093 20.4497C37.5808 20.3621 37.6697 20.2902 37.7704 20.2386C37.8711 20.1869 37.9813 20.1567 38.0943 20.1497H39.7943L40.1753 24.1377L38.2753 24.1427ZM31.7653 24.2767C31.321 24.2801 30.8778 24.2351 30.4433 24.1427L30.7683 23.2957C31.6383 23.3957 32.3843 23.3227 32.6763 22.5617L33.6013 20.1547H35.5013L34.4833 22.8077C34.2527 23.316 33.8621 23.7348 33.3711 24.0002C32.8802 24.2657 32.3158 24.3631 31.7643 24.2777M50.8363 15.1777C50.9277 14.15 50.9056 13.1155 50.7703 12.0927H50.7463C50.2983 13.9667 49.2148 15.6275 47.6803 16.7927L47.6593 16.7657C49.2857 15.0751 50.2787 12.8748 50.4703 10.5367C50.1606 9.30852 49.6841 8.12855 49.0543 7.02968L49.0333 7.03868C49.222 8.42686 49.1034 9.83957 48.686 11.1769C48.2685 12.5142 47.5623 13.7434 46.6173 14.7777L46.5913 14.7567C47.5046 13.4495 48.1189 11.9572 48.3904 10.3858C48.662 8.81445 48.584 7.20255 48.1623 5.66468C46.8656 3.90804 45.1747 2.48032 43.2256 1.49644C41.2765 0.512565 39.1236 0 36.9403 0C34.7569 0 32.604 0.512565 30.6549 1.49644C28.7058 2.48032 27.0149 3.90804 25.7183 5.66468C25.2963 7.20254 25.2183 8.81446 25.4899 10.3859C25.7614 11.9573 26.3757 13.4496 27.2893 14.7567L27.2653 14.7777C26.3208 13.7439 25.615 12.5153 25.1977 11.1787C24.7804 9.84211 24.6618 8.43016 24.8503 7.04268L24.8283 7.03368C24.1979 8.13221 23.7217 9.31228 23.4133 10.5407C23.6044 12.8793 24.5982 15.0799 26.2263 16.7697L26.2053 16.7967C24.6704 15.6318 23.5869 13.9708 23.1393 12.0967H23.1153C22.9789 13.1193 22.9558 14.1539 23.0463 15.1817C23.5497 16.6134 24.4316 17.882 25.5983 18.8527L25.5793 18.8817C24.6875 18.3547 23.9137 17.6497 23.3063 16.8107L23.2863 16.8187C23.9441 19.953 25.6602 22.7657 28.1466 24.7843C30.6329 26.803 33.7381 27.9049 36.9408 27.9049C40.1434 27.9049 43.2486 26.803 45.7349 24.7843C48.2213 22.7657 49.9374 19.953 50.5953 16.8187L50.5753 16.8107C49.968 17.6499 49.1942 18.3549 48.3023 18.8817L48.2843 18.8527C49.4505 17.8816 50.3323 16.6131 50.8363 15.1817" fill="black"/>
<path d="M72.103 36.6158C71.703 37.6598 70.318 37.9828 68.822 37.9828C67.326 37.9828 66.367 37.6578 66.591 36.6158H68.491C68.441 36.8948 68.61 37.0728 69.172 37.0728C69.734 37.0728 70.097 36.8908 70.2 36.6158C70.463 35.9348 66.7 36.6008 67.3 35.0408C67.635 34.1678 68.955 33.7578 70.443 33.7578C71.931 33.7578 72.777 34.0798 72.598 35.0408H70.735C70.765 34.7838 70.685 34.5888 70.126 34.5888C69.567 34.5888 69.266 34.7888 69.169 35.0418C68.899 35.7418 72.7 35.0598 72.103 36.6168" fill="black"/>
<path d="M38.8414 37.8649H36.9414L38.4724 33.8789H40.3724" fill="black"/>
<path d="M53.2164 37.8649H51.3164L52.8464 33.8789H54.7464" fill="black"/>
<path d="M65.4638 37.8649H60.8438L62.3727 33.8789H66.9948L66.7008 34.6439H63.9818L63.6728 35.4439H65.9348L65.6418 36.2079H63.3818L63.0728 37.0149H65.7917" fill="black"/>
<path d="M27.6976 37.8659H26.1606L24.8716 35.5109L23.9716 37.8649H22.4336L23.9626 33.8789H25.7476L26.8866 35.9729L27.6866 33.8789H29.2236" fill="black"/>
<path d="M59.6624 37.8649H58.1244L56.8314 35.5099L55.9314 37.8639H54.3984L55.9314 33.8789H57.7164L58.8544 35.9729L59.6544 33.8789H61.1934" fill="black"/>
<path d="M4.61222 36.5309C4.38183 37.0388 3.99149 37.4572 3.50085 37.7223C3.01022 37.9874 2.44627 38.0845 1.89522 37.9989C1.45131 38.0026 1.00834 37.9577 0.574219 37.8649L0.899219 37.0199C1.76922 37.1199 2.51422 37.0449 2.80522 36.2849L3.72922 33.8789H5.62922" fill="black"/>
<path d="M15.5233 35.1501C15.448 35.3019 15.3314 35.4294 15.1869 35.5178C15.0424 35.6063 14.8758 35.6521 14.7063 35.6501H13.6513L14.0383 34.6411H15.0963C15.4403 34.6411 15.6333 34.8561 15.5223 35.1411M15.3863 33.8711H12.4323L10.9023 37.8571H12.8023L13.3573 36.4101H14.4133C16.1693 36.4101 17.1133 35.9401 17.4223 35.1411C17.7313 34.3421 17.1453 33.8711 15.3863 33.8711Z" fill="black"/>
<path d="M44.6434 35.1501C44.5682 35.3017 44.4517 35.4291 44.3074 35.5175C44.1631 35.606 43.9967 35.6519 43.8274 35.6501H42.7714L43.1584 34.6411H44.2164C44.5614 34.6411 44.7544 34.8561 44.6424 35.1411M44.5064 33.8711H41.5524L40.0234 37.8571H41.9234L42.4784 36.4101H43.0524L43.4284 37.8571H45.4984L44.9984 36.2741C45.3307 36.2338 45.6473 36.1094 45.9181 35.9127C46.189 35.7161 46.4052 35.4536 46.5464 35.1501C46.8554 34.3501 46.2694 33.8801 44.5114 33.8801" fill="black"/>
<path d="M48.6692 37.0228L49.8772 33.8828H47.9772L46.4492 37.8688H50.7632L51.0882 37.0238" fill="black"/>
<path d="M7.39131 36.3188L8.41431 35.0438L8.46131 36.3188H7.39131ZM10.0423 33.8828H8.34231C8.23013 33.8895 8.12052 33.9192 8.02024 33.9699C7.91997 34.0206 7.83116 34.0914 7.75931 34.1778L4.57031 37.8688H6.14231L6.77431 37.0848H8.49131L8.52131 37.8688H10.4213" fill="black"/>
<path d="M18.9216 36.3188L19.9456 35.0438L19.9916 36.3188H18.9216ZM21.5696 33.8828H19.8696C19.7573 33.8897 19.6476 33.9194 19.5471 33.9701C19.4467 34.0208 19.3577 34.0915 19.2856 34.1778L16.1016 37.8688H17.6716L18.3036 37.0848H20.0196L20.0486 37.8688H21.9486" fill="black"/>
<path d="M33.4294 36.3188L34.4534 35.0438L34.5004 36.3188H33.4294ZM36.0784 33.8828H34.3784C34.2661 33.8896 34.1563 33.9192 34.0559 33.9699C33.9554 34.0207 33.8665 34.0914 33.7944 34.1778L30.6094 37.8688H32.1804L32.8114 37.0848H34.5284L34.5584 37.8688H36.4584" fill="black"/>
</g>
</g>
</g>
<defs>
<clipPath id="clip0_393_3561">
<rect width="72.05" height="38" fill="white" transform="translate(0.578125)"/>
</clipPath>
<clipPath id="clip1_393_3561">
<rect width="72.05" height="38" fill="white" transform="translate(0.578125)"/>
</clipPath>
<clipPath id="clip2_393_3561">
<rect width="72.047" height="38" fill="white" transform="translate(0.578125)"/>
</clipPath>
</defs>
</svg>
