<svg width="69" height="28" viewBox="0 0 69 28" fill="none" xmlns="http://www.w3.org/2000/svg">
<g clip-path="url(#clip0_393_3552)">
<g clip-path="url(#clip1_393_3552)">
<g clip-path="url(#clip2_393_3552)">
<path fill-rule="evenodd" clip-rule="evenodd" d="M17.4584 14.5361C17.4584 20.8128 14.5675 23.2076 8.78688 23.2076C2.91923 23.2076 0.359375 19.9868 0.359375 15.0321V11.8923H6.72V14.4532C6.72 16.1871 6.72 17.839 8.61989 17.839C10.4368 17.839 10.3538 15.6101 10.3538 14.6181V0H17.4534L17.4584 14.5361Z" fill="black"/>
<path fill-rule="evenodd" clip-rule="evenodd" d="M23.8149 12.5539C23.8218 12.1839 23.9025 11.819 24.0523 11.4806C24.2021 11.1422 24.4179 10.8371 24.6872 10.5832C24.9565 10.3293 25.2737 10.1317 25.6203 10.0021C25.9669 9.87241 26.336 9.81327 26.7058 9.82811C27.0542 9.83471 27.3977 9.91096 27.7162 10.0524C28.0347 10.1938 28.3216 10.3975 28.5602 10.6515C28.7987 10.9055 28.984 11.2047 29.1052 11.5314C29.2263 11.8582 29.2809 12.2058 29.2656 12.5539H23.8149ZM34.7993 15.8538C34.7993 9.41213 32.1564 5.77734 26.2098 5.77734C21.4201 5.77734 18.2812 9.65912 18.2812 14.4498C18.2812 19.9825 21.915 23.1223 26.7058 23.1223C30.1746 23.1223 33.3134 21.4704 34.4693 17.9226H29.1006C28.82 18.2908 28.4563 18.5874 28.0393 18.7883C27.6222 18.9892 27.1636 19.0887 26.7008 19.0786C24.8839 19.0786 23.8929 17.7576 23.7279 15.8578L34.7993 15.8538Z" fill="black"/>
<path fill-rule="evenodd" clip-rule="evenodd" d="M40.7466 12.5539C40.7536 12.184 40.8344 11.8191 40.9843 11.4808C41.1341 11.1424 41.35 10.8374 41.6192 10.5835C41.8884 10.3296 42.2056 10.1321 42.5522 10.0024C42.8987 9.87264 43.2677 9.8134 43.6374 9.82811C43.9858 9.83471 44.3294 9.91096 44.6479 10.0524C44.9664 10.1938 45.2533 10.3975 45.4919 10.6515C45.7304 10.9055 45.9157 11.2047 46.0369 11.5314C46.158 11.8582 46.2126 12.2058 46.1973 12.5539H40.7466ZM51.731 15.8538C51.731 9.41213 49.0881 5.77734 43.1415 5.77734C38.3518 5.78134 35.2109 9.66312 35.2109 14.4538C35.2109 19.9865 38.8447 23.1263 43.6354 23.1263C47.0212 23.1263 50.2421 21.4744 51.399 17.9266H46.0323C45.7523 18.2942 45.3895 18.5905 44.9733 18.7914C44.5571 18.9923 44.0994 19.092 43.6374 19.0826C41.8206 19.0826 40.8296 17.7616 40.6636 15.8618L51.731 15.8538Z" fill="black"/>
<path fill-rule="evenodd" clip-rule="evenodd" d="M57.8423 14.4547C57.8423 12.4719 58.2552 10.408 60.3201 10.408C62.385 10.408 62.88 12.4729 62.88 14.4547C62.88 16.3546 62.38 18.5015 60.3201 18.5015C58.2602 18.5015 57.8423 16.3546 57.8423 14.4547ZM52.3086 27.9989H58.0083V20.8944H58.0903C58.5238 21.5945 59.1332 22.1688 59.8578 22.5602C60.5823 22.9516 61.3968 23.1464 62.22 23.1252C67.2577 23.1252 68.5786 18.4175 68.5786 14.5357C68.5786 10.406 66.5968 5.78125 62.302 5.78125C59.4942 5.78125 58.5862 6.93718 57.8423 8.01112V6.19523H52.3086V27.9989Z" fill="black"/>
<path fill-rule="evenodd" clip-rule="evenodd" d="M66.0195 25.109C66.009 24.9507 66.0312 24.792 66.0846 24.6426C66.138 24.4933 66.2215 24.3565 66.3299 24.2407C66.4384 24.1249 66.5694 24.0326 66.7149 23.9695C66.8604 23.9064 67.0173 23.8739 67.1759 23.8739C67.3346 23.8739 67.4915 23.9064 67.637 23.9695C67.7825 24.0326 67.9135 24.1249 68.022 24.2407C68.1304 24.3565 68.2139 24.4933 68.2673 24.6426C68.3207 24.792 68.3429 24.9507 68.3325 25.109C68.3325 25.4157 68.2106 25.7099 67.9937 25.9267C67.7768 26.1436 67.4827 26.2655 67.1759 26.2655C66.8692 26.2655 66.5751 26.1436 66.3582 25.9267C66.1413 25.7099 66.0195 25.4157 66.0195 25.109ZM65.6895 25.109C65.7063 25.4898 65.871 25.8491 66.1484 26.1105C66.4259 26.3719 66.7943 26.5148 67.1755 26.509C67.543 26.4972 67.8923 26.3459 68.1524 26.0859C68.4124 25.8259 68.5637 25.4765 68.5755 25.109C68.5765 24.9248 68.541 24.7423 68.471 24.572C68.4011 24.4016 68.298 24.2469 68.1678 24.1167C68.0376 23.9864 67.8828 23.8834 67.7125 23.8134C67.5421 23.7434 67.3596 23.7079 67.1755 23.709C66.9849 23.699 66.7943 23.7277 66.6152 23.7934C66.436 23.8591 66.272 23.9605 66.1332 24.0913C65.9943 24.2221 65.8834 24.3798 65.8071 24.5547C65.7308 24.7296 65.6908 24.9182 65.6895 25.109ZM66.5984 25.935H66.8465V25.191H67.1765L67.5905 25.935H67.9204L67.4204 25.191C67.6684 25.191 67.8335 25.026 67.8335 24.691C67.8335 24.443 67.6685 24.277 67.2555 24.277H66.5955L66.5984 25.935ZM66.8465 24.448H67.2595C67.4245 24.448 67.5905 24.531 67.5905 24.696C67.5905 24.944 67.3425 25.026 67.1765 25.026H66.8465V24.448Z" fill="black"/>
</g>
</g>
</g>
<defs>
<clipPath id="clip0_393_3552">
<rect width="68.22" height="28" fill="white" transform="translate(0.359375)"/>
</clipPath>
<clipPath id="clip1_393_3552">
<rect width="68.22" height="28" fill="white" transform="translate(0.359375)"/>
</clipPath>
<clipPath id="clip2_393_3552">
<rect width="68.22" height="27.9984" fill="white" transform="translate(0.359375)"/>
</clipPath>
</defs>
</svg>
