<svg width="41" height="40" viewBox="0 0 41 40" fill="none" xmlns="http://www.w3.org/2000/svg">
<rect x="1.66992" y="1" width="38" height="38" rx="19" stroke="#6546BD" stroke-width="2"/>
<path d="M30.6699 14.9908C30.67 14.5981 30.5928 14.2093 30.4427 13.8465C30.2925 13.4837 30.0724 13.1541 29.7948 12.8763C29.5173 12.5986 29.1877 12.3783 28.825 12.2279C28.4623 12.0776 28.0735 12.0001 27.6809 12H13.6589C13.2663 12.0001 12.8775 12.0776 12.5148 12.2279C12.1521 12.3783 11.8226 12.5986 11.545 12.8763C11.2675 13.1541 11.0473 13.4837 10.8972 13.8465C10.747 14.2093 10.6698 14.5981 10.6699 14.9908V23.0093C10.6698 23.402 10.747 23.7908 10.8972 24.1536C11.0473 24.5164 11.2675 24.846 11.545 25.1237C11.8226 25.4015 12.1521 25.6218 12.5148 25.7722C12.8775 25.9225 13.2663 26 13.6589 26.0001H27.6809C28.0735 26 28.4623 25.9225 28.825 25.7722C29.1877 25.6218 29.5173 25.4015 29.7948 25.1237C30.0724 24.846 30.2925 24.5164 30.4427 24.1536C30.5928 23.7908 30.67 23.402 30.6699 23.0093V14.9908ZM18.6701 22.3837V14.8508L24.3813 18.6133L18.6701 22.3837Z" fill="white"/>
</svg>
