<svg width="81" height="20" viewBox="0 0 81 20" fill="none" xmlns="http://www.w3.org/2000/svg">
<path d="M21.761 7.02344H29.8476V8.52356H26.6679V16.9565H24.9195V8.52356H21.7539V7.02344H21.761ZM29.5021 9.76431H30.9967V11.1523H31.0249C31.0743 10.956 31.166 10.7667 31.2999 10.5845C31.4339 10.4022 31.596 10.227 31.7864 10.0798C31.9767 9.92554 32.1882 9.80637 32.4209 9.70823C32.6535 9.6171 32.8933 9.56803 33.133 9.56803C33.3163 9.56803 33.4502 9.57504 33.5207 9.58205C33.5912 9.58906 33.6617 9.60308 33.7393 9.61009V11.1383C33.6265 11.1172 33.5137 11.1032 33.3938 11.0892C33.274 11.0752 33.1612 11.0682 33.0484 11.0682C32.7804 11.0682 32.5266 11.1242 32.2869 11.2294C32.0472 11.3345 31.8428 11.4958 31.6665 11.699C31.4903 11.9093 31.3493 12.1617 31.2435 12.4701C31.1377 12.7786 31.0884 13.1291 31.0884 13.5286V16.9495H29.495V9.76431L29.5021 9.76431ZM41.0645 16.9565H39.4993V15.9541H39.4711C39.2737 16.3186 38.9846 16.606 38.5969 16.8233C38.2091 17.0406 37.8143 17.1528 37.4124 17.1528C36.4607 17.1528 35.7697 16.9214 35.3467 16.4518C34.9237 15.9821 34.7122 15.2741 34.7122 14.3278V9.76431H36.3056V14.1735C36.3056 14.8044 36.4254 15.2531 36.6722 15.5124C36.9119 15.7718 37.2573 15.905 37.6945 15.905C38.0329 15.905 38.3078 15.8559 38.5334 15.7508C38.759 15.6456 38.9423 15.5124 39.0763 15.3372C39.2173 15.169 39.316 14.9587 39.3795 14.7203C39.4429 14.482 39.4711 14.2226 39.4711 13.9422V9.77132H41.0645V16.9565ZM43.7788 14.6502C43.8281 15.1129 44.0044 15.4353 44.3076 15.6246C44.6178 15.8069 44.9844 15.905 45.4144 15.905C45.5625 15.905 45.7317 15.891 45.9221 15.8699C46.1124 15.8489 46.2957 15.7998 46.4579 15.7368C46.6271 15.6737 46.761 15.5755 46.8738 15.4493C46.9796 15.3232 47.0289 15.1619 47.0219 14.9587C47.0148 14.7554 46.9373 14.5871 46.7963 14.461C46.6553 14.3278 46.479 14.2296 46.2605 14.1455C46.0419 14.0684 45.7952 13.9983 45.5131 13.9422C45.2311 13.8861 44.9491 13.823 44.6601 13.76C44.364 13.6969 44.0749 13.6128 43.7999 13.5216C43.525 13.4305 43.2782 13.3043 43.0597 13.1431C42.8411 12.9889 42.6649 12.7856 42.538 12.5402C42.404 12.2949 42.3405 11.9935 42.3405 11.6289C42.3405 11.2364 42.4393 10.9139 42.6296 10.6476C42.82 10.3812 43.0667 10.1709 43.3558 10.0097C43.6519 9.84843 43.9762 9.73627 44.3358 9.66617C44.6953 9.60308 45.0408 9.56803 45.3651 9.56803C45.7388 9.56803 46.0983 9.61009 46.4367 9.6872C46.7751 9.76431 47.0853 9.89049 47.3603 10.0727C47.6353 10.248 47.8609 10.4793 48.0442 10.7597C48.2275 11.0401 48.3403 11.3836 48.3896 11.7832H46.7258C46.6482 11.4046 46.479 11.1453 46.2041 11.0191C45.9291 10.8859 45.6118 10.8228 45.2593 10.8228C45.1465 10.8228 45.0126 10.8298 44.8575 10.8508C44.7024 10.8719 44.5614 10.9069 44.4204 10.956C44.2864 11.0051 44.1736 11.0822 44.0749 11.1803C43.9833 11.2785 43.9339 11.4046 43.9339 11.5659C43.9339 11.7621 44.0044 11.9164 44.1384 12.0355C44.2723 12.1547 44.4486 12.2528 44.6671 12.3369C44.8857 12.4141 45.1324 12.4842 45.4144 12.5402C45.6965 12.5963 45.9855 12.6594 46.2816 12.7225C46.5707 12.7856 46.8527 12.8697 47.1347 12.9608C47.4167 13.052 47.6635 13.1781 47.882 13.3394C48.1006 13.5006 48.2768 13.6969 48.4108 13.9352C48.5447 14.1735 48.6152 14.475 48.6152 14.8255C48.6152 15.2531 48.5165 15.6106 48.3191 15.912C48.1217 16.2064 47.8679 16.4518 47.5577 16.634C47.2475 16.8163 46.895 16.9565 46.5143 17.0406C46.1336 17.1247 45.7529 17.1668 45.3792 17.1668C44.9209 17.1668 44.4979 17.1177 44.1102 17.0126C43.7224 16.9074 43.384 16.7532 43.102 16.5499C42.82 16.3396 42.5944 16.0802 42.4322 15.7718C42.27 15.4634 42.1854 15.0918 42.1713 14.6642H43.7788V14.6502ZM49.0383 9.76431H50.2438V7.60526H51.8372V9.76431H53.2754V10.949H51.8372V14.7904C51.8372 14.9587 51.8442 15.0989 51.8583 15.225C51.8724 15.3442 51.9077 15.4493 51.957 15.5335C52.0064 15.6176 52.0839 15.6807 52.1897 15.7227C52.2955 15.7648 52.4294 15.7858 52.6127 15.7858C52.7255 15.7858 52.8383 15.7858 52.9511 15.7788C53.0639 15.7718 53.1767 15.7578 53.2895 15.7297V16.9565C53.1133 16.9775 52.937 16.9915 52.7749 17.0126C52.6057 17.0336 52.4365 17.0406 52.2602 17.0406C51.8372 17.0406 51.4988 16.9985 51.245 16.9214C50.9912 16.8443 50.7867 16.7252 50.6457 16.5709C50.4977 16.4167 50.406 16.2274 50.3496 15.9961C50.3002 15.7648 50.265 15.4984 50.2579 15.204V10.963H49.0524V9.76431H49.0383ZM54.4035 9.76431H55.9122V10.7387H55.9404C56.166 10.3181 56.4762 10.0237 56.8781 9.84142C57.28 9.65916 57.71 9.56803 58.1824 9.56803C58.7535 9.56803 59.247 9.66617 59.67 9.86946C60.093 10.0657 60.4455 10.3391 60.7275 10.6896C61.0095 11.0401 61.214 11.4467 61.355 11.9093C61.496 12.372 61.5665 12.8697 61.5665 13.3954C61.5665 13.8791 61.503 14.3488 61.3761 14.7974C61.2492 15.2531 61.0589 15.6526 60.8051 16.0031C60.5513 16.3536 60.227 16.627 59.8321 16.8373C59.4373 17.0476 58.9791 17.1528 58.4433 17.1528C58.2106 17.1528 57.9779 17.1317 57.7453 17.0897C57.5126 17.0476 57.287 16.9775 57.0755 16.8864C56.864 16.7952 56.6595 16.6761 56.4833 16.5289C56.3 16.3817 56.1519 16.2134 56.025 16.0242H55.9968V19.6132H54.4035V9.76431ZM59.9731 13.3674C59.9731 13.0449 59.9308 12.7295 59.8462 12.4211C59.7616 12.1126 59.6347 11.8463 59.4655 11.6079C59.2963 11.3696 59.0848 11.1803 58.8381 11.0401C58.5843 10.8999 58.2952 10.8228 57.9709 10.8228C57.3011 10.8228 56.7935 11.0541 56.4551 11.5168C56.1167 11.9794 55.9475 12.5963 55.9475 13.3674C55.9475 13.7319 55.9898 14.0684 56.0814 14.3768C56.1731 14.6853 56.3 14.9516 56.4833 15.176C56.6595 15.4003 56.8711 15.5755 57.1178 15.7017C57.3646 15.8349 57.6536 15.898 57.9779 15.898C58.3445 15.898 58.6477 15.8209 58.9015 15.6737C59.1553 15.5265 59.3598 15.3302 59.5219 15.0989C59.6841 14.8605 59.8039 14.5941 59.8744 14.2927C59.9379 13.9913 59.9731 13.6829 59.9731 13.3674ZM62.7862 7.02344H64.3795V8.52356H62.7862V7.02344ZM62.7862 9.76431H64.3795V16.9565H62.7862V9.76431ZM65.8037 7.02344H67.397V16.9565H65.8037V7.02344ZM72.2828 17.1528C71.7047 17.1528 71.19 17.0546 70.7388 16.8653C70.2876 16.6761 69.9069 16.4097 69.5897 16.0802C69.2794 15.7438 69.0397 15.3442 68.8776 14.8815C68.7154 14.4189 68.6308 13.9072 68.6308 13.3534C68.6308 12.8066 68.7154 12.3019 68.8776 11.8392C69.0397 11.3766 69.2794 10.977 69.5896 10.6406C69.8999 10.3041 70.2876 10.0447 70.7388 9.85544C71.19 9.66617 71.7047 9.56803 72.2828 9.56803C72.8609 9.56803 73.3756 9.66617 73.8268 9.85544C74.278 10.0447 74.6588 10.3111 74.976 10.6406C75.2862 10.977 75.5259 11.3766 75.6881 11.8392C75.8502 12.3019 75.9348 12.8066 75.9348 13.3534C75.9348 13.9072 75.8502 14.4189 75.6881 14.8815C75.5259 15.3442 75.2862 15.7438 74.976 16.0802C74.6658 16.4167 74.278 16.6761 73.8268 16.8653C73.3756 17.0546 72.8609 17.1528 72.2828 17.1528ZM72.2828 15.898C72.6353 15.898 72.9456 15.8209 73.2064 15.6737C73.4673 15.5265 73.6788 15.3302 73.848 15.0918C74.0172 14.8535 74.137 14.5801 74.2216 14.2787C74.2992 13.9773 74.3415 13.6688 74.3415 13.3534C74.3415 13.0449 74.2992 12.7435 74.2216 12.4351C74.1441 12.1267 74.0172 11.8603 73.848 11.6219C73.6788 11.3836 73.4673 11.1943 73.2064 11.0471C72.9456 10.8999 72.6353 10.8228 72.2828 10.8228C71.9303 10.8228 71.6201 10.8999 71.3593 11.0471C71.0984 11.1943 70.8869 11.3906 70.7177 11.6219C70.5485 11.8603 70.4286 12.1267 70.344 12.4351C70.2665 12.7435 70.2242 13.0449 70.2242 13.3534C70.2242 13.6688 70.2665 13.9773 70.344 14.2787C70.4216 14.5801 70.5485 14.8535 70.7177 15.0918C70.8869 15.3302 71.0984 15.5265 71.3593 15.6737C71.6201 15.8279 71.9303 15.898 72.2828 15.898ZM76.4002 9.76431H77.6057V7.60526H79.1991V9.76431H80.6373V10.949H79.1991V14.7904C79.1991 14.9587 79.2061 15.0989 79.2202 15.225C79.2343 15.3442 79.2696 15.4493 79.319 15.5335C79.3683 15.6176 79.4459 15.6807 79.5516 15.7227C79.6574 15.7648 79.7913 15.7858 79.9746 15.7858C80.0874 15.7858 80.2002 15.7858 80.313 15.7788C80.4258 15.7718 80.5386 15.7578 80.6514 15.7297V16.9565C80.4752 16.9775 80.2989 16.9915 80.1368 17.0126C79.9676 17.0336 79.7984 17.0406 79.6221 17.0406C79.1991 17.0406 78.8607 16.9985 78.6069 16.9214C78.3531 16.8443 78.1486 16.7252 78.0076 16.5709C77.8596 16.4167 77.7679 16.2274 77.7115 15.9961C77.6621 15.7648 77.6269 15.4984 77.6198 15.204V10.963H76.4143V9.76431L76.4002 9.76431Z" fill="#191919"/>
<path d="M19.8987 7.02505H12.5947L10.3386 0.113281L8.07551 7.02505L0.771484 7.01804L6.68662 11.2941L4.4235 18.1988L10.3386 13.9298L16.2467 18.1988L13.9906 11.2941L19.8987 7.02505Z" fill="#00B67A"/>
<path d="M14.4975 12.8563L13.9899 11.293L10.3379 13.9289L14.4975 12.8563Z" fill="#005128"/>
</svg>
