<svg width="41" height="20" viewBox="0 0 41 20" fill="none" xmlns="http://www.w3.org/2000/svg">
<path opacity="0.75" d="M20.9893 19.6992L39.9373 1.72123C40.0348 1.6302 40.1125 1.52012 40.1656 1.39781C40.2187 1.2755 40.2461 1.14358 40.2461 1.01023C40.2461 0.876888 40.2187 0.744967 40.1656 0.622658C40.1125 0.500348 40.0348 0.390262 39.9373 0.299232C39.7337 0.10944 39.4657 0.00390625 39.1873 0.00390625C38.909 0.00390625 38.641 0.10944 38.4373 0.299232L20.2373 17.5692L2.06333 0.316232C1.8597 0.12644 1.59169 0.0209063 1.31333 0.0209063C1.03497 0.0209063 0.766955 0.12644 0.563328 0.316232C0.465253 0.407304 0.387024 0.51763 0.333527 0.640312C0.28003 0.762994 0.252415 0.895394 0.252415 1.02923C0.252415 1.16307 0.28003 1.29547 0.333527 1.41815C0.387024 1.54083 0.465253 1.65116 0.563328 1.74223L19.4863 19.6992C19.6901 19.8899 19.9588 19.996 20.2378 19.996C20.5169 19.996 20.7855 19.8899 20.9893 19.6992Z" fill="#D3D3D3"/>
</svg>
