<svg width="41" height="40" viewBox="0 0 41 40" fill="none" xmlns="http://www.w3.org/2000/svg">
<rect x="1.66992" y="1" width="38" height="38" rx="19" stroke="#6546BD" stroke-width="2"/>
<path d="M20.6753 12.4392C22.8106 12.4392 23.06 12.4471 23.9076 12.4859C24.4148 12.4918 24.9173 12.5849 25.393 12.7612C25.7373 12.8947 26.0499 13.0988 26.3107 13.3604C26.5714 13.6219 26.7747 13.9351 26.9073 14.2798C27.0835 14.7556 27.1766 15.2582 27.1825 15.7656C27.2213 16.6094 27.2292 16.8588 27.2292 18.9986C27.2292 21.1383 27.2213 21.3838 27.1825 22.2316C27.1766 22.739 27.0835 23.2415 26.9073 23.7174C26.7741 24.0612 26.5706 24.3734 26.3099 24.634C26.0491 24.8947 25.7368 25.098 25.393 25.231C24.9173 25.4073 24.4148 25.5004 23.9076 25.5063C23.064 25.5451 22.8146 25.553 20.6753 25.553C18.5361 25.553 18.2907 25.5451 17.4431 25.5063C16.9362 25.5002 16.4341 25.4071 15.9587 25.231C15.6136 25.0979 15.3003 24.894 15.0388 24.6325C14.7773 24.3709 14.5735 24.0575 14.4404 23.7124C14.2642 23.2366 14.1711 22.734 14.1652 22.2266C14.1264 21.3828 14.1185 21.1334 14.1185 18.9936C14.1185 16.8538 14.1264 16.6084 14.1652 15.7606C14.1711 15.2532 14.2642 14.7506 14.4404 14.2748C14.5741 13.9306 14.7782 13.6182 15.0396 13.3575C15.3011 13.0969 15.6141 12.8937 15.9587 12.7612C16.4344 12.5849 16.9368 12.4918 17.4441 12.4859C18.2877 12.4471 18.5361 12.4392 20.6753 12.4392ZM20.6763 10.9981C18.5043 10.9981 18.232 11.007 17.3785 11.0458C16.7151 11.0587 16.0586 11.184 15.437 11.4165C14.9052 11.6221 14.4223 11.9366 14.0191 12.3398C13.616 12.743 13.3016 13.2261 13.096 13.758C12.864 14.3798 12.739 15.0364 12.7264 15.7C12.6877 16.5527 12.6777 16.826 12.6777 18.9986C12.6777 21.1711 12.6867 21.4435 12.7264 22.2972C12.7392 22.9601 12.8642 23.616 13.096 24.2372C13.3015 24.7685 13.6157 25.2511 14.0185 25.654C14.4213 26.0569 14.9038 26.3712 15.435 26.5767C16.0565 26.8095 16.713 26.9352 17.3765 26.9484C18.2301 26.9871 18.5023 26.9961 20.6744 26.9961C22.8464 26.9961 23.1187 26.9871 23.9722 26.9484C24.6357 26.9352 25.2922 26.8095 25.9137 26.5767C26.4451 26.3713 26.9278 26.057 27.3308 25.6542C27.7337 25.2513 28.0481 24.7686 28.2537 24.2372C28.4864 23.6155 28.612 22.9589 28.6253 22.2952C28.664 21.4415 28.673 21.1691 28.673 18.9966C28.673 16.824 28.664 16.5517 28.6253 15.698C28.612 15.0343 28.4864 14.3777 28.2537 13.756C28.048 13.2246 27.7336 12.7419 27.3307 12.3391C26.9277 11.9362 26.4451 11.622 25.9137 11.4165C25.2922 11.1837 24.6357 11.058 23.9722 11.0448C23.1196 11.006 22.8464 10.9961 20.6744 10.9961L20.6763 10.9981Z" fill="white"/>
<path d="M20.675 14.8906C19.8628 14.8906 19.0688 15.1315 18.3935 15.5829C17.7181 16.0342 17.1918 16.6757 16.881 17.4263C16.5701 18.1769 16.4888 19.0028 16.6473 19.7996C16.8057 20.5964 17.1968 21.3283 17.7712 21.9027C18.3455 22.4772 19.0772 22.8684 19.8738 23.0269C20.6704 23.1854 21.4961 23.104 22.2465 22.7931C22.9969 22.4822 23.6383 21.9558 24.0895 21.2803C24.5407 20.6048 24.7816 19.8106 24.7816 18.9982C24.7816 17.9088 24.3489 16.864 23.5788 16.0937C22.8087 15.3234 21.7641 14.8906 20.675 14.8906ZM20.675 21.6657C20.1477 21.6657 19.6323 21.5093 19.1939 21.2163C18.7555 20.9233 18.4138 20.5069 18.212 20.0196C18.0103 19.5324 17.9575 18.9962 18.0603 18.479C18.1632 17.9617 18.4171 17.4866 18.7899 17.1137C19.1627 16.7408 19.6378 16.4868 20.1549 16.3839C20.672 16.2811 21.208 16.3339 21.6952 16.5357C22.1823 16.7375 22.5986 17.0793 22.8916 17.5178C23.1845 17.9563 23.3408 18.4718 23.3408 18.9992C23.3408 19.7064 23.06 20.3846 22.56 20.8847C22.0601 21.3848 21.382 21.6657 20.675 21.6657Z" fill="white"/>
<path d="M24.9444 15.6897C25.4747 15.6897 25.9045 15.2598 25.9045 14.7296C25.9045 14.1994 25.4747 13.7695 24.9444 13.7695C24.4142 13.7695 23.9844 14.1994 23.9844 14.7296C23.9844 15.2598 24.4142 15.6897 24.9444 15.6897Z" fill="white"/>
</svg>
