<svg width="73" height="45" viewBox="0 0 73 45" fill="none" xmlns="http://www.w3.org/2000/svg">
<rect x="1.75" y="1.5" width="70" height="42" rx="21" fill="#6546BD"/>
<rect x="1.75" y="1.5" width="70" height="42" rx="21" stroke="#6546BD" stroke-width="2"/>
<path d="M36.7491 25.819C40.1041 25.819 42.8331 22.383 42.8331 18.16C42.8331 13.937 40.1041 10.5 36.7491 10.5C35.897 10.5196 35.0611 10.7368 34.3071 11.1343C33.5531 11.5319 32.9017 12.099 32.4041 12.791C31.2471 14.3392 30.6363 16.2275 30.6671 18.16C30.6671 22.383 33.3951 25.819 36.7491 25.819ZM36.7491 11.719C39.4491 11.719 41.6551 14.61 41.6551 18.164C41.6551 21.718 39.4551 24.61 36.7491 24.61C34.0431 24.61 31.8431 21.718 31.8431 18.164C31.8431 14.61 34.0431 11.719 36.7491 11.719Z" fill="white" stroke="white" stroke-width="0.5" stroke-linecap="round"/>
<path d="M42.0755 25.4727C41.9187 25.479 41.7703 25.5458 41.6616 25.659C41.5529 25.7723 41.4922 25.9232 41.4922 26.0802C41.4922 26.2371 41.5529 26.388 41.6616 26.5013C41.7703 26.6145 41.9187 26.6813 42.0755 26.6877C43.5527 26.7085 44.9614 27.3144 45.9925 28.3725C47.0236 29.4305 47.5929 30.8544 47.5755 32.3316C47.5779 32.5819 47.4809 32.823 47.3058 33.0018C47.1307 33.1807 46.8918 33.2827 46.6415 33.2856H26.8595C26.6094 33.2825 26.3707 33.1803 26.1959 33.0015C26.021 32.8226 25.9241 32.5818 25.9265 32.3316C25.9089 30.8543 26.4781 29.4303 27.5092 28.3722C28.5404 27.314 29.9492 26.7082 31.4265 26.6877C31.5834 26.6813 31.7317 26.6145 31.8404 26.5013C31.9491 26.388 32.0099 26.2371 32.0099 26.0802C32.0099 25.9232 31.9491 25.7723 31.8404 25.659C31.7317 25.5458 31.5834 25.479 31.4265 25.4727C29.6325 25.499 27.9222 26.2358 26.6707 27.5214C25.4191 28.8071 24.7286 30.5366 24.7505 32.3306C24.7433 32.8977 24.9613 33.4445 25.3566 33.8511C25.752 34.2577 26.2924 34.491 26.8595 34.4996H46.6385C47.206 34.4915 47.7471 34.2585 48.143 33.8519C48.539 33.4453 48.7575 32.8982 48.7505 32.3306C48.7724 30.5367 48.082 28.8074 46.8307 27.5218C45.5794 26.2362 43.8693 25.4993 42.0755 25.4727Z" fill="white" stroke="white" stroke-width="0.5" stroke-linecap="round"/>
</svg>
