<svg width="95" height="38" viewBox="0 0 95 38" fill="none" xmlns="http://www.w3.org/2000/svg">
<g clip-path="url(#clip0_393_3535)">
<g clip-path="url(#clip1_393_3535)">
<g clip-path="url(#clip2_393_3535)">
<path d="M89.4962 32.3597H87.4902L87.6312 32.0757C87.7329 31.7913 87.9285 31.5501 88.1858 31.3919C88.443 31.2337 88.7466 31.168 89.0462 31.2057H90.0692L89.4952 32.3607" fill="black"/>
<path d="M87.3322 36.8196L89.1762 33.1106H87.1692L85.5782 36.3106C85.5101 36.4747 85.3912 36.6125 85.2389 36.704C85.0866 36.7954 84.909 36.8356 84.7322 36.8186H79.8572L81.8282 32.8516C82.1062 32.2926 82.2112 32.2516 82.8602 32.2516H83.4432C83.6626 32.2843 83.8865 32.2423 84.0791 32.1324C84.2717 32.0225 84.4218 31.8511 84.5052 31.6456L84.7772 31.0966H82.6992L83.5932 29.2966H82.2832C82.0646 29.263 81.8409 29.3039 81.6483 29.4127C81.4557 29.5215 81.3053 29.692 81.2212 29.8966L80.6212 31.0966H79.5342L78.9602 32.2506H80.0522L78.0352 36.3086C77.9675 36.4722 77.8491 36.6098 77.6973 36.7011C77.5455 36.7924 77.3685 36.8325 77.1922 36.8156H72.8602L75.1602 32.6056H73.5702C73.4191 32.5987 73.2689 32.632 73.135 32.7023C73.0011 32.7726 72.8883 32.8773 72.8082 33.0056C72.8082 32.7056 72.6972 32.6056 72.4082 32.6056H71.3082C70.5738 32.5232 69.8318 32.6715 69.1855 33.0299C68.5391 33.3883 68.0204 33.939 67.7012 34.6056L66.7642 36.3186C66.692 36.4782 66.5725 36.6117 66.4219 36.7011C66.2713 36.7905 66.0969 36.8315 65.9222 36.8186H63.1282C62.1172 36.8186 61.7212 36.6736 61.6102 36.1436C61.4892 35.5726 61.7452 35.1096 63.0992 34.2116L63.8652 33.7036C64.2222 33.4666 64.3652 33.3446 64.3182 33.0876C64.2752 32.8586 64.1372 32.6056 63.0312 32.6056H57.7822C57.5629 32.5766 57.3401 32.6201 57.1478 32.7296C56.9556 32.839 56.8043 33.0083 56.7172 33.2116L55.0172 36.3116C54.9451 36.4712 54.8256 36.6048 54.675 36.6943C54.5244 36.7837 54.3499 36.8247 54.1752 36.8116H45.7522L46.1112 35.7546H50.3182C50.6337 35.8081 50.9577 35.7441 51.2292 35.5747C51.5006 35.4054 51.7006 35.1424 51.7912 34.8356L52.1912 33.8896C52.2605 33.7624 52.298 33.6203 52.3007 33.4755C52.3033 33.3306 52.2709 33.1873 52.2062 33.0576C52.0062 32.7576 51.4992 32.5996 50.7352 32.5996H46.6992C46.2039 32.5194 45.6961 32.6192 45.268 32.8809C44.8398 33.1427 44.5196 33.5491 44.3652 34.0266L43.5262 36.0016C43.4248 36.2752 43.2318 36.5053 42.9802 36.6529C42.7285 36.8005 42.4335 36.8566 42.1452 36.8116H39.2552L39.4372 36.5386C39.7157 36.1402 39.839 35.6538 39.7837 35.1708C39.7285 34.6879 39.4985 34.2418 39.1372 33.9166C38.4028 33.2405 37.4933 32.7841 36.5122 32.5996H34.2642L32.7192 35.4256C32.5001 35.9073 32.1289 36.3038 31.6626 36.5542C31.1964 36.8046 30.6608 36.895 30.1382 36.8116H27.4182L29.7182 32.5996H28.1182C27.9671 32.5927 27.8169 32.626 27.683 32.6963C27.5491 32.7666 27.4363 32.8713 27.3562 32.9996C27.3562 32.6996 27.2462 32.5996 26.9562 32.5996H25.8562C25.1218 32.5173 24.3799 32.6657 23.7336 33.0241C23.0873 33.3824 22.5685 33.9331 22.2492 34.5996L21.3122 36.3126C21.2414 36.4733 21.1222 36.6078 20.9713 36.6974C20.8203 36.787 20.6452 36.8273 20.4702 36.8126H16.3342L19.8472 30.3886C19.8945 30.3023 19.9184 30.2052 19.9165 30.1068C19.9146 30.0084 19.887 29.9123 19.8365 29.8278C19.7859 29.7434 19.7142 29.6737 19.6284 29.6256C19.5425 29.5775 19.4456 29.5527 19.3472 29.5536H2.89922C2.45358 29.4964 2.00122 29.5809 1.60633 29.7952C1.21143 30.0095 0.894056 30.3428 0.699219 30.7476H7.81322L3.84722 37.9956H5.89922L9.86422 30.7486H12.7092L8.74522 37.9946H10.7932L14.7572 30.7496H17.6062L14.3342 36.7316C14.2391 36.8629 14.177 37.0151 14.1531 37.1754C14.1293 37.3357 14.1444 37.4994 14.1972 37.6526C14.3292 37.8756 14.6622 37.9936 15.1592 37.9936H20.5592C20.6668 37.9986 20.7737 37.9749 20.8691 37.925C20.9645 37.8751 21.045 37.8008 21.1022 37.7096C21.1022 37.9256 21.2842 37.9936 21.4922 37.9936H30.7692C31.5033 38.0841 32.2473 37.941 32.8955 37.5847C33.5437 37.2284 34.0632 36.6769 34.3802 36.0086L35.6032 33.7736L35.7292 33.7976C37.1912 34.0756 37.9292 34.6176 37.9962 35.4556C38.0107 35.619 37.9906 35.7836 37.9372 35.9387C37.8837 36.0937 37.7982 36.2358 37.6862 36.3556C37.5365 36.5077 37.3572 36.6276 37.1595 36.7079C36.9617 36.7882 36.7496 36.8273 36.5362 36.8226C36.1647 36.7922 35.7943 36.8925 35.4889 37.1061C35.1834 37.3197 34.9621 37.6333 34.8632 37.9926H42.7202C42.8278 37.9976 42.9347 37.9739 43.0301 37.924C43.1255 37.8741 43.206 37.7998 43.2632 37.7086C43.2632 37.9246 43.4452 37.9926 43.6532 37.9926H55.2742C55.5936 38.0304 55.9164 37.9602 56.1912 37.7931C56.466 37.626 56.6769 37.3716 56.7902 37.0706L58.1512 34.5826C58.2697 34.3245 58.4657 34.1098 58.712 33.9684C58.9583 33.8269 59.2426 33.7659 59.5252 33.7936H61.5732C61.2067 34.046 60.863 34.3301 60.5462 34.6426C60.0855 35.0845 59.7916 35.6719 59.7142 36.3056C59.6823 36.5237 59.6972 36.7461 59.7579 36.958C59.8186 37.1699 59.9237 37.3665 60.0662 37.5346C60.2159 37.6891 60.3967 37.81 60.5967 37.8891C60.7968 37.9683 61.0114 38.0039 61.2262 37.9936H65.9992C66.1068 37.9986 66.2137 37.9749 66.3091 37.925C66.4045 37.8751 66.485 37.8008 66.5422 37.7096C66.5422 37.9256 66.7242 37.9936 66.9322 37.9936H76.9892C77.0968 37.9987 77.2038 37.9751 77.2992 37.9252C77.3946 37.8753 77.475 37.8009 77.5322 37.7096C77.5322 37.9256 77.7152 37.9936 77.9222 37.9936H92.7892C93.6892 37.9936 94.1392 37.7026 94.3082 37.0196L94.3602 36.8106H87.3322M46.6062 34.3266C46.6851 34.1098 46.838 33.9278 47.038 33.8127C47.2379 33.6976 47.4721 33.6569 47.6992 33.6976H49.9902L49.8322 34.1626C49.7662 34.3632 49.6303 34.5333 49.4493 34.642C49.2683 34.7506 49.0543 34.7906 48.8462 34.7546H46.4562L46.6052 34.3256M25.7712 36.0316C25.6551 36.2919 25.4597 36.5088 25.213 36.6514C24.9662 36.794 24.6807 36.855 24.3972 36.8256H23.2652L24.4902 34.5856C24.6086 34.328 24.8044 34.1136 25.0503 33.9724C25.2962 33.8311 25.58 33.7701 25.8622 33.7976H26.9992L25.7762 36.0326M71.2172 36.0326C71.1011 36.2929 70.9057 36.5098 70.659 36.6524C70.4122 36.795 70.1267 36.856 69.8432 36.8266H68.7062L69.9312 34.5866C70.0496 34.329 70.2454 34.1146 70.4913 33.9734C70.7372 33.8321 71.021 33.7711 71.3032 33.7986H72.4352L71.2122 36.0336" fill="black"/>
<path d="M45.6836 25.0681V24.0391H50.9556V25.0681H45.6836Z" fill="black"/>
<path d="M48.3202 27.2016H49.9822V25.6016H46.6582V27.2016H48.3202Z" fill="black"/>
<path d="M46.6578 23.5078C46.6852 23.0735 46.615 22.6385 46.4521 22.2349C46.2893 21.8314 46.038 21.4694 45.7168 21.1758H50.9218C50.6006 21.4694 50.3493 21.8314 50.1865 22.2349C50.0236 22.6385 49.9533 23.0735 49.9808 23.5078H46.6578Z" fill="black"/>
<path d="M42.2559 19.4797V18.7188H54.3839V19.4787L42.2559 19.4797Z" fill="black"/>
<path d="M42.798 22.2168C43.538 22.0508 44.2209 21.6916 44.777 21.1758H42.668L42.798 22.2168Z" fill="black"/>
<path d="M53.8403 22.2168C53.1003 22.0507 52.4174 21.6915 51.8613 21.1758H53.9703L53.8403 22.2168Z" fill="black"/>
<path d="M42.0514 17.0484C41.4568 13.3273 40.325 9.71223 38.6914 6.31641C40.5049 7.37442 42.1523 8.69431 43.5804 10.2334C42.8664 10.0405 42.1423 9.88723 41.4114 9.77441C42.4007 12.1538 43.2684 14.582 44.0114 17.0494H42.0544" fill="black"/>
<path d="M54.5909 17.0484C55.1855 13.3273 56.3173 9.71223 57.9509 6.31641C56.1374 7.37442 54.4899 8.69431 53.0619 10.2334C53.7758 10.0405 54.4999 9.88723 55.2309 9.77441C54.2416 12.1535 53.3739 14.5813 52.6309 17.0484H54.5909Z" fill="black"/>
<path d="M41.6133 18.3247V17.5547H55.0263V18.3247H41.6133Z" fill="black"/>
<path d="M46.0582 5.9C47.1626 4.0864 47.9284 2.08729 48.3182 0C48.7081 2.08729 49.4739 4.08641 50.5782 5.9C50.2092 5.734 49.8192 5.558 49.3862 5.366C49.0112 5.2 48.8522 5.298 48.8642 5.684C48.9892 9.468 49.5452 13.771 51.5202 17.048H49.1942C48.841 16.2097 48.5482 15.3471 48.3182 14.467C48.0882 15.3471 47.7955 16.2097 47.4422 17.048H45.1152C47.0902 13.771 47.6462 9.469 47.7712 5.684C47.7842 5.298 47.6242 5.2 47.2502 5.366C46.8172 5.558 46.4262 5.734 46.0582 5.9Z" fill="black"/>
<path d="M41.6133 20.645V19.875H55.0263V20.645H41.6133Z" fill="black"/>
</g>
</g>
</g>
<defs>
<clipPath id="clip0_393_3535">
<rect width="93.66" height="38" fill="white" transform="translate(0.699219)"/>
</clipPath>
<clipPath id="clip1_393_3535">
<rect width="93.66" height="38" fill="white" transform="translate(0.699219)"/>
</clipPath>
<clipPath id="clip2_393_3535">
<rect width="93.661" height="38" fill="white" transform="translate(0.699219)"/>
</clipPath>
</defs>
</svg>
