<svg width="174" height="28" viewBox="0 0 174 28" fill="none" xmlns="http://www.w3.org/2000/svg">
<g clip-path="url(#clip0_393_3530)">
<g clip-path="url(#clip1_393_3530)">
<g clip-path="url(#clip2_393_3530)">
<path fill-rule="evenodd" clip-rule="evenodd" d="M6.56277 0L0.529297 27.2406H8.42861L12.0523 12.5989L12.3283 27.2406H17.9578L25.2342 12.5989L21.9874 27.2406H29.8178L35.8652 0H25.0802L17.8208 15.2157L17.3338 0H6.56277ZM37.7601 0L36.7992 4.44462H44.0725L45.0614 0H37.7601ZM153.174 0.138988C151.468 0.187984 149.481 0.454961 148.38 1.35088C146.775 2.69977 146.212 4.46661 145.566 7.06339H141.957L140.926 11.717H144.633L141.261 27.2396H148.46L151.846 11.717L155.859 11.745L153.606 21.9181C153.006 24.5929 153.978 25.8358 154.86 26.4327C156.827 27.8086 162.676 27.1437 162.676 27.1437L163.791 22.5181C163.791 22.5181 160.912 22.849 160.628 22.0441C160.521 21.5542 160.545 21.0447 160.698 20.5672L162.598 11.719H166.04L167.057 7.06539H163.601L164.646 2.18881H157.958L156.899 7.06539H152.635L152.76 6.39645C153.096 4.86358 153.486 4.08365 155.505 4.08365L156.313 0.265977C155.271 0.153591 154.222 0.111166 153.174 0.138988ZM109.185 6.21446C104.444 6.34045 100.286 7.99931 99.6537 12.2339C98.8538 17.7335 105.981 18.9334 107.819 19.2703C111.831 19.9703 110.657 23.37 107.68 23.37C103.38 23.345 104.545 20.3182 104.545 20.3182L90.8905 20.3322L97.6209 18.0984C97.8789 18.0204 97.9509 17.8925 98.0808 16.9835C98.9088 11.843 96.288 6.61943 89.4276 6.28446C87.3305 6.13614 85.2291 6.50444 83.3075 7.35708C81.3859 8.20972 79.7027 9.52067 78.4056 11.175L79.5485 6.73042C78.3839 6.72243 77.2259 6.90586 76.1207 7.27337C74.8011 7.68796 73.633 8.48275 72.763 9.55817L73.334 7.06439H66.7846L62.2559 27.2686H69.1673L70.7972 20.0793C72.0481 13.9288 75.4848 13.2739 77.0677 13.2659C73.8089 19.4743 75.6678 27.5996 84.592 27.8826C87.0419 28.0389 89.4844 27.4793 91.622 26.272C93.7595 25.0648 95.4998 23.262 96.631 21.0832C96.372 23.212 97.0509 27.7826 106.73 27.9946C117.293 28.2026 118.136 21.3951 118.058 19.9413C117.8 14.7227 113.166 14.5257 109.127 13.6418C105.813 12.9419 106.519 10.3421 109.392 10.3421C112.551 10.3421 111.803 12.9339 111.803 12.9339H118.783C118.653 12.5179 120.628 6.34745 110.144 6.21746C109.826 6.20946 109.501 6.20646 109.185 6.21446ZM132.022 6.24246C117.47 6.20846 113.399 27.2966 127.897 27.9096C142.887 28.5095 146.931 6.9584 132.719 6.25646C132.483 6.24446 132.253 6.24246 132.018 6.24246H132.022ZM55.1636 6.50744C40.3648 6.42544 37.1651 27.5596 50.524 27.8396C60.6461 28.0476 62.9529 19.9403 62.9529 19.7863H55.3306C55.1236 20.1233 54.0697 22.776 51.7919 22.698C46.8473 22.598 50.031 11.458 54.5086 11.328C56.9164 11.276 56.6604 14.2888 56.5564 14.5747H64.1088C64.1868 14.2628 64.6237 6.9624 55.8735 6.52144C55.6335 6.50844 55.3985 6.50844 55.1636 6.50744ZM171.079 7.03739C170.386 7.03739 169.721 7.31266 169.231 7.80265C168.741 8.29264 168.466 8.95721 168.466 9.65016C168.466 10.3431 168.741 11.0077 169.231 11.4977C169.721 11.9877 170.386 12.2629 171.079 12.2629C171.771 12.2629 172.436 11.9877 172.926 11.4977C173.416 11.0077 173.691 10.3431 173.691 9.65016C173.691 8.95721 173.416 8.29264 172.926 7.80265C172.436 7.31266 171.771 7.03739 171.079 7.03739ZM36.1902 7.06539L31.6996 27.2406L39.029 27.2686L43.5006 7.06439L36.1902 7.06539ZM171.079 7.51135C171.364 7.50261 171.648 7.55128 171.915 7.65448C172.181 7.75768 172.424 7.9133 172.629 8.11212C172.834 8.31094 172.997 8.54891 173.108 8.81191C173.219 9.07491 173.277 9.35758 173.277 9.64317C173.277 9.92875 173.219 10.2114 173.108 10.4744C172.997 10.7374 172.834 10.9754 172.629 11.1742C172.424 11.373 172.181 11.5287 171.915 11.6319C171.648 11.7351 171.364 11.7837 171.079 11.775C170.793 11.7837 170.509 11.7351 170.243 11.6319C169.976 11.5287 169.733 11.373 169.528 11.1742C169.323 10.9754 169.16 10.7374 169.049 10.4744C168.938 10.2114 168.88 9.92875 168.88 9.64317C168.88 9.35758 168.938 9.07491 169.049 8.81191C169.16 8.54891 169.323 8.31094 169.528 8.11212C169.733 7.9133 169.976 7.75768 170.243 7.65448C170.509 7.55128 170.793 7.50261 171.079 7.51135ZM170.41 8.29128L169.978 11.064H170.522L170.675 9.94914H171.037L171.436 10.994H172.063L171.547 9.94914C171.652 9.94798 171.755 9.92608 171.851 9.88472C171.947 9.84336 172.034 9.78336 172.106 9.70819C172.179 9.63303 172.236 9.54421 172.274 9.44688C172.312 9.34955 172.33 9.24565 172.327 9.14121C172.332 8.94588 172.27 8.75478 172.151 8.6C172.032 8.44523 171.863 8.33622 171.672 8.29128H170.41ZM170.898 8.65325H171.427C171.487 8.65222 171.546 8.66364 171.601 8.68677C171.655 8.7099 171.705 8.74423 171.745 8.78755C171.786 8.83087 171.817 8.88222 171.837 8.93831C171.857 8.99439 171.864 9.05397 171.859 9.11321C171.854 9.18127 171.835 9.24752 171.803 9.30771C171.771 9.3679 171.727 9.4207 171.673 9.46271C171.619 9.50471 171.557 9.53499 171.491 9.55161C171.425 9.56822 171.356 9.5708 171.289 9.55917H170.773L170.898 8.65325ZM88.4377 10.9381C88.5876 10.945 88.7367 10.9637 88.8836 10.994C93.6212 11.954 90.1775 23.8189 85.052 22.754C80.5634 21.7981 83.8281 10.7551 88.4377 10.9381ZM131.772 10.9521C131.926 10.9589 132.08 10.9776 132.232 11.008C136.995 11.968 133.523 23.8719 128.344 22.782C123.83 21.8511 127.114 10.7471 131.772 10.9521Z" fill="black"/>
</g>
</g>
</g>
<defs>
<clipPath id="clip0_393_3530">
<rect width="173.17" height="28" fill="white" transform="translate(0.529297)"/>
</clipPath>
<clipPath id="clip1_393_3530">
<rect width="173.17" height="28" fill="white" transform="translate(0.529297)"/>
</clipPath>
<clipPath id="clip2_393_3530">
<rect width="173.17" height="27.9976" fill="white" transform="translate(0.529297)"/>
</clipPath>
</defs>
</svg>
