<svg width="324" height="79" viewBox="0 0 324 79" fill="none" xmlns="http://www.w3.org/2000/svg">
<g clip-path="url(#clip0_393_1883)">
<g clip-path="url(#clip1_393_1883)">
<g clip-path="url(#clip2_393_1883)">
<path d="M79.4864 78.4984C79.3041 78.5126 79.1224 78.4647 78.9709 78.3623C78.8194 78.2599 78.7071 78.1092 78.6523 77.9347C78.2836 75.8501 77.7426 73.7997 77.0347 71.8046C76.9164 71.4655 77.1819 71.1245 77.6313 71.042C77.8289 70.9926 78.0374 71.0115 78.2229 71.0958C78.4083 71.1802 78.5597 71.3249 78.6523 71.5063C79.3789 73.5545 79.9342 75.6594 80.3126 77.7995C80.3722 78.1465 80.0501 78.4576 79.5928 78.4954C79.558 78.4984 79.5242 78.4984 79.4864 78.4984ZM74.2709 64.2716C74.1171 64.2772 73.9645 64.2429 73.8277 64.1722C73.691 64.1015 73.5749 63.9967 73.4905 63.868C72.4625 61.9621 71.2973 60.0304 70.0267 58.1266C69.9795 58.0499 69.9515 57.9629 69.945 57.8731C69.9385 57.7832 69.9537 57.6931 69.9894 57.6104C70.0251 57.5277 70.0802 57.4548 70.15 57.3979C70.2199 57.341 70.3024 57.3018 70.3906 57.2835C70.5847 57.2077 70.7978 57.1952 70.9995 57.2479C71.2011 57.3006 71.3809 57.4157 71.5131 57.5768C72.8055 59.5105 73.9886 61.475 75.0344 63.4127C75.2094 63.7378 75.0056 64.1086 74.5801 64.2299C74.4796 64.2589 74.3755 64.273 74.2709 64.2716ZM23.5059 59.1605C23.3171 59.1767 23.1287 59.1249 22.9746 59.0144C22.8206 58.9039 22.7111 58.7421 22.6658 58.5581C22.636 58.2101 22.984 57.9148 23.4433 57.8989C26.1123 57.811 28.7633 57.4279 31.348 56.7566C31.5449 56.6961 31.7562 56.7017 31.9495 56.7726C32.1429 56.8435 32.3077 56.9758 32.4188 57.1493C32.5778 57.4794 32.3551 57.8383 31.9217 57.9516C29.1851 58.6621 26.3784 59.0675 23.5526 59.1605H23.5059ZM12.5987 57.7458C12.4876 57.7448 12.3772 57.7267 12.2716 57.6921C9.67666 56.8924 7.2814 55.5501 5.24474 53.7542C5.17573 53.6981 5.12191 53.6255 5.08824 53.5432C5.05456 53.4609 5.0421 53.3715 5.05199 53.2831C5.06189 53.1947 5.09383 53.1103 5.14488 53.0374C5.19593 52.9646 5.26445 52.9058 5.34415 52.8664C5.52688 52.7608 5.73755 52.7138 5.94781 52.7315C6.15808 52.7493 6.35786 52.8311 6.52027 52.9658C8.37225 54.596 10.5496 55.8139 12.9079 56.5389C13.3334 56.6791 13.5362 57.0519 13.3593 57.371C13.276 57.4942 13.1621 57.5936 13.0287 57.6593C12.8953 57.7251 12.7471 57.7549 12.5987 57.7458ZM41.1318 53.8257C40.8951 53.8284 40.6654 53.745 40.4856 53.5911C40.4166 53.535 40.3627 53.4625 40.3291 53.3802C40.2954 53.2979 40.2829 53.2084 40.2928 53.1201C40.3027 53.0317 40.3347 52.9472 40.3857 52.8744C40.4368 52.8016 40.5053 52.7428 40.585 52.7033C42.6285 51.4279 44.5664 49.9907 46.3801 48.4055C46.5476 48.2776 46.7503 48.2043 46.9608 48.1955C47.1713 48.1866 47.3795 48.2425 47.5572 48.3557C47.6371 48.3962 47.7056 48.4561 47.7563 48.53C47.807 48.6038 47.8383 48.6892 47.8473 48.7784C47.8563 48.8675 47.8427 48.9575 47.8078 49.04C47.773 49.1225 47.7179 49.1949 47.6477 49.2505C45.7751 50.8877 43.7744 52.3721 41.6647 53.6895C41.5031 53.7843 41.319 53.8315 41.1318 53.8257ZM232.924 53.0244H232.889C232.567 53.0115 232.243 52.9956 231.924 52.9777C229.422 52.8347 226.932 52.5359 224.467 52.0829C224.017 52.0004 223.734 51.6584 223.833 51.3204C223.918 51.1385 224.064 50.9923 224.246 50.9075C224.427 50.8228 224.633 50.8049 224.827 50.8571C227.2 51.2933 229.598 51.5812 232.007 51.7191C232.314 51.736 232.627 51.7519 232.937 51.7638C233.397 51.7827 233.758 52.08 233.743 52.4279C233.706 52.6122 233.602 52.7759 233.45 52.8864C233.298 52.997 233.11 53.0463 232.924 53.0244ZM65.2169 51.1067C65.0844 51.1094 64.9529 51.0842 64.8308 51.0329C64.7086 50.9815 64.5987 50.905 64.508 50.8084C62.978 48.999 61.3684 47.2552 59.724 45.6247C59.6583 45.5647 59.6086 45.4892 59.5796 45.405C59.5505 45.3209 59.543 45.2308 59.5578 45.143C59.5725 45.0552 59.609 44.9725 59.6639 44.9024C59.7188 44.8323 59.7904 44.7772 59.8722 44.7419C60.0573 44.6412 60.2689 44.5998 60.4784 44.6232C60.6878 44.6467 60.885 44.7339 61.0433 44.8731C62.7155 46.5314 64.3529 48.305 65.9078 50.1423C65.9661 50.2102 66.0066 50.2914 66.0258 50.3788C66.045 50.4661 66.0422 50.5569 66.0178 50.6429C65.9934 50.729 65.9481 50.8076 65.8858 50.8719C65.8236 50.9362 65.7465 50.984 65.6613 51.0112C65.5222 51.076 65.3703 51.1086 65.2169 51.1067ZM243.971 52.4488C243.797 52.4601 243.624 52.4163 243.476 52.3237C243.328 52.2311 243.213 52.0944 243.147 51.9328C243.053 51.5898 243.346 51.2608 243.794 51.1971C246.453 50.8162 249.089 50.2851 251.688 49.6064C251.885 49.5464 252.097 49.5529 252.29 49.6247C252.483 49.6965 252.648 49.8298 252.758 50.0041C252.916 50.3342 252.692 50.6931 252.261 50.8054C249.585 51.5037 246.872 52.05 244.135 52.4418C244.082 52.4489 244.028 52.4519 243.974 52.4508L243.971 52.4488ZM214.152 49.2167C214.03 49.2159 213.909 49.1944 213.795 49.1531C211.267 48.2273 208.789 47.1738 206.368 45.9965C206.283 45.9694 206.205 45.922 206.141 45.8583C206.078 45.7945 206.031 45.7164 206.005 45.6306C205.978 45.5448 205.973 45.4539 205.989 45.3656C206.006 45.2773 206.043 45.1943 206.099 45.1237C206.246 44.9758 206.437 44.8783 206.643 44.8449C206.85 44.8115 207.061 44.844 207.248 44.9377C209.609 46.0871 212.028 47.1158 214.494 48.0197C214.912 48.1718 215.095 48.5496 214.902 48.8638C214.817 48.9802 214.704 49.0735 214.573 49.1351C214.443 49.1967 214.299 49.2248 214.155 49.2167H214.152ZM2.09516 46.1874C1.90183 46.2068 1.70824 46.1532 1.55242 46.0371C1.39661 45.921 1.28984 45.7509 1.25309 45.5601C1.24712 45.4706 1.24414 45.3795 1.24414 45.2867C1.24378 43.1504 1.77834 41.0481 2.79904 39.1715C2.91741 39.0036 3.08798 38.8796 3.28418 38.8188C3.48037 38.7581 3.69117 38.7639 3.8837 38.8354C4.31219 38.9716 4.52097 39.3415 4.34997 39.6626C3.40745 41.3924 2.91321 43.3307 2.91238 45.3006C2.91238 45.3855 2.9147 45.4703 2.91934 45.5551C2.93226 45.9041 2.56939 46.1884 2.10809 46.1904L2.09516 46.1874ZM262.114 47.5296C261.972 47.5335 261.83 47.5042 261.701 47.4442C261.572 47.3842 261.458 47.295 261.369 47.1836C261.32 47.1084 261.289 47.0223 261.281 46.9327C261.272 46.8431 261.285 46.7527 261.318 46.6692C261.352 46.5857 261.406 46.5117 261.474 46.4534C261.543 46.3951 261.625 46.3543 261.712 46.3346C264.023 45.4398 266.362 44.4456 268.864 43.2884C269.055 43.2006 269.268 43.1741 269.475 43.2128C269.681 43.2514 269.87 43.3533 270.016 43.5041C270.073 43.5732 270.112 43.6553 270.13 43.7431C270.147 43.831 270.143 43.9218 270.117 44.0076C270.091 44.0934 270.045 44.1715 269.981 44.2349C269.918 44.2983 269.84 44.3451 269.754 44.3711C267.218 45.5402 264.844 46.5513 262.497 47.462C262.376 47.5093 262.248 47.5335 262.118 47.5336L262.114 47.5296ZM53.6694 42.8231C53.5048 42.8226 53.3426 42.783 53.1962 42.7078C53.1118 42.6776 53.0361 42.6272 52.9757 42.561C52.9152 42.4948 52.8719 42.4148 52.8496 42.328C52.8272 42.2412 52.8265 42.1502 52.8474 42.063C52.8683 41.9759 52.9102 41.8951 52.9695 41.8279C54.2679 40.3894 55.5544 38.904 56.7912 37.4674L57.5219 36.6224C57.6724 36.477 57.8647 36.3824 58.0717 36.3519C58.2787 36.3214 58.4901 36.3565 58.6762 36.4524C58.7613 36.4809 58.8382 36.5297 58.9003 36.5947C58.9623 36.6597 59.0075 36.7388 59.032 36.8252C59.0565 36.9116 59.0595 37.0027 59.0408 37.0905C59.0221 37.1784 58.9823 37.2603 58.9247 37.3293L58.195 38.1733C56.9493 39.6149 55.6618 41.1052 54.3554 42.5537C54.266 42.6437 54.1589 42.7142 54.0408 42.7606C53.9227 42.8069 53.7962 42.8282 53.6694 42.8231ZM197.755 41.0783C197.569 41.0784 197.386 41.0279 197.227 40.9322C195.15 39.6457 193.059 38.2658 190.834 36.7119C190.756 36.669 190.689 36.6071 190.641 36.5318C190.593 36.4565 190.564 36.3703 190.558 36.2811C190.552 36.1919 190.569 36.1027 190.606 36.0216C190.644 35.9405 190.701 35.8702 190.773 35.8171C190.943 35.6928 191.148 35.6236 191.358 35.6188C191.569 35.614 191.776 35.6738 191.951 35.7903C194.152 37.3263 196.218 38.6903 198.267 39.9599C198.347 39.9973 198.418 40.0542 198.471 40.1256C198.525 40.197 198.559 40.2806 198.572 40.3688C198.585 40.457 198.576 40.547 198.546 40.6308C198.515 40.7146 198.464 40.7895 198.398 40.8487C198.219 41.0034 197.989 41.0854 197.754 41.0783H197.755ZM52.9815 39.4876C52.773 39.4885 52.5694 39.4246 52.3989 39.3047C50.3784 37.8138 48.257 36.4648 46.05 35.2673C45.966 35.2361 45.891 35.1846 45.8316 35.1176C45.7722 35.0505 45.7302 34.9698 45.7094 34.8826C45.6886 34.7955 45.6895 34.7045 45.7122 34.6178C45.7348 34.5311 45.7785 34.4513 45.8392 34.3855C45.9942 34.2442 46.1892 34.1548 46.3973 34.1295C46.6054 34.1042 46.8162 34.1443 47.0005 34.2443C49.2766 35.4791 51.4645 36.8704 53.5481 38.4079C53.6249 38.4535 53.6889 38.5176 53.7343 38.5944C53.7797 38.6712 53.805 38.7582 53.8079 38.8474C53.8107 38.9366 53.7911 39.0251 53.7507 39.1046C53.7104 39.1842 53.6506 39.2523 53.577 39.3027C53.4048 39.4306 53.1949 39.4974 52.9805 39.4926L52.9815 39.4876ZM278.532 39.8853C278.405 39.8875 278.279 39.8643 278.161 39.8172C278.043 39.7701 277.936 39.7 277.845 39.6109C277.782 39.5472 277.737 39.469 277.712 39.3832C277.688 39.2975 277.685 39.2069 277.704 39.1198C277.723 39.0327 277.764 38.9517 277.822 38.8841C277.88 38.8166 277.954 38.7647 278.038 38.733C280.394 37.4953 282.71 36.2357 284.462 35.2773C284.648 35.1793 284.86 35.1409 285.069 35.1674C285.278 35.1939 285.474 35.284 285.629 35.4254C285.694 35.4874 285.741 35.5644 285.768 35.6495C285.795 35.7346 285.8 35.825 285.783 35.9125C285.766 36.0001 285.727 36.082 285.67 36.1507C285.613 36.2195 285.54 36.2729 285.457 36.3062C283.698 37.2686 281.374 38.5322 279.009 39.7759C278.862 39.8534 278.697 39.8934 278.531 39.8923L278.532 39.8853ZM10.158 33.4867C9.91035 33.49 9.67088 33.3982 9.48891 33.2302C9.42325 33.17 9.37374 33.0943 9.34491 33.01C9.31608 32.9257 9.30885 32.8355 9.32388 32.7476C9.33891 32.6598 9.37573 32.5772 9.43096 32.5072C9.48619 32.4373 9.55807 32.3824 9.64002 32.3474C12.0288 31.0214 14.6009 30.0566 17.2724 29.4842C17.4697 29.4287 17.6799 29.4407 17.8697 29.5181C18.0594 29.5955 18.218 29.734 18.3202 29.9117C18.4594 30.2467 18.2208 30.5966 17.7764 30.6951C15.2853 31.2281 12.8869 32.1269 10.6591 33.3625C10.5058 33.4469 10.333 33.4898 10.158 33.4867ZM36.6739 31.393C36.5791 31.392 36.4848 31.3787 36.3935 31.3532C36.2079 31.3015 36.0214 31.2511 35.8338 31.2021C33.4173 30.5693 30.9475 30.1609 28.4559 29.9822C27.9966 29.9484 27.6517 29.6402 27.6864 29.2933C27.7366 29.1033 27.8566 28.9393 28.0225 28.834C28.1884 28.7287 28.388 28.69 28.5812 28.7256C31.2058 28.9146 33.8074 29.3456 36.3527 30.0131C36.5516 30.0648 36.7471 30.1178 36.9393 30.1721C37.3748 30.2934 37.6054 30.6563 37.4553 30.9834C37.3762 31.1177 37.2611 31.2273 37.123 31.2996C36.9849 31.372 36.8294 31.4044 36.6739 31.393ZM64.4504 30.7309C64.2767 30.7311 64.1058 30.6877 63.9533 30.6046C63.87 30.5719 63.796 30.5192 63.738 30.4511C63.6799 30.383 63.6396 30.3017 63.6205 30.2143C63.6014 30.1268 63.6042 30.0361 63.6286 29.95C63.653 29.8639 63.6983 29.7852 63.7604 29.7208C65.4446 27.967 67.1456 26.2908 68.8168 24.7379C68.9805 24.6056 69.1809 24.527 69.3908 24.5128C69.6008 24.4985 69.81 24.5494 69.99 24.6584C70.0708 24.6959 70.1411 24.7529 70.1944 24.8244C70.2477 24.8958 70.2824 24.9794 70.2953 25.0676C70.3082 25.1558 70.299 25.2458 70.2684 25.3295C70.2378 25.4133 70.1869 25.4881 70.1202 25.5472C68.4679 27.0822 66.7847 28.7405 65.1175 30.4763C65.0287 30.5608 64.924 30.6268 64.8094 30.6705C64.6949 30.7142 64.5729 30.7347 64.4504 30.7309ZM183.345 30.9476C183.13 30.9485 182.921 30.8806 182.748 30.7537C182.109 30.2626 181.456 29.7595 180.76 29.2147L180.429 28.9572C179.264 28.0486 178.058 27.109 176.86 26.1825C176.784 26.1346 176.722 26.0686 176.679 25.9903C176.636 25.9121 176.614 25.8243 176.614 25.7351C176.614 25.6458 176.636 25.558 176.679 25.4798C176.722 25.4016 176.784 25.3355 176.86 25.2877C177.035 25.1704 177.242 25.1094 177.453 25.1129C177.664 25.1165 177.869 25.1844 178.04 25.3076C179.241 26.2362 180.447 27.1767 181.614 28.0863L181.945 28.3438C182.641 28.8857 183.288 29.3877 183.924 29.8769C184 29.9247 184.062 29.9908 184.105 30.069C184.148 30.1472 184.17 30.235 184.17 30.3242C184.17 30.4135 184.148 30.5013 184.105 30.5795C184.062 30.6577 184 30.7238 183.924 30.7716C183.755 30.8904 183.553 30.9521 183.346 30.9476H183.345ZM169.476 20.3854C169.27 20.3862 169.069 20.3241 168.899 20.2074C166.703 18.6277 164.67 17.2348 162.683 15.9483C162.602 15.9092 162.532 15.8504 162.48 15.7773C162.428 15.7042 162.395 15.6192 162.385 15.5301C162.374 15.4409 162.386 15.3506 162.42 15.2673C162.453 15.184 162.507 15.1105 162.576 15.0536C162.742 14.9239 162.944 14.8484 163.155 14.8374C163.365 14.8264 163.574 14.8803 163.752 14.9919C165.763 16.2923 167.819 17.7011 170.037 19.2967C170.114 19.3411 170.179 19.4044 170.226 19.4806C170.272 19.5568 170.299 19.6435 170.303 19.7327C170.307 19.8219 170.289 19.9107 170.25 19.9909C170.21 20.0711 170.151 20.1401 170.078 20.1915C169.905 20.3224 169.693 20.3908 169.476 20.3854ZM76.8121 19.5642C76.6014 19.565 76.3959 19.4997 76.2245 19.3773C76.148 19.3312 76.0844 19.2666 76.0395 19.1894C75.9947 19.1122 75.9701 19.0249 75.968 18.9356C75.9659 18.8464 75.9864 18.758 76.0276 18.6788C76.0688 18.5996 76.1293 18.5321 76.2036 18.4825C78.1979 16.9525 80.2489 15.5089 82.2989 14.1926C82.48 14.0844 82.6897 14.0341 82.9001 14.0485C83.1105 14.0629 83.3115 14.1413 83.4761 14.2731C83.5462 14.3277 83.6016 14.3991 83.6369 14.4806C83.6723 14.5622 83.6866 14.6513 83.6785 14.7398C83.6703 14.8284 83.6401 14.9134 83.5905 14.9872C83.5408 15.0609 83.4735 15.121 83.3945 15.1619C81.3803 16.4544 79.3651 17.8741 77.4036 19.3783C77.2322 19.5035 77.0243 19.5689 76.8121 19.5642ZM91.7079 10.366C91.5756 10.3686 91.4443 10.3434 91.3223 10.292C91.2004 10.2406 91.0906 10.1642 91 10.0677C90.9416 10.0001 90.9007 9.91893 90.8812 9.83162C90.8617 9.74431 90.8641 9.65353 90.8883 9.56738C90.9124 9.48124 90.9575 9.4024 91.0195 9.33792C91.0815 9.27343 91.1585 9.2253 91.2436 9.19783C93.6339 8.05887 96.0808 7.04282 98.5747 6.15364C98.7693 6.07967 98.9824 6.06937 99.1832 6.12422C99.384 6.17906 99.5622 6.29624 99.6922 6.45885C99.891 6.775 99.725 7.15478 99.3124 7.29795C96.8773 8.16589 94.4882 9.15772 92.1543 10.2696C92.0147 10.335 91.8621 10.368 91.7079 10.366ZM154.329 10.9148C154.166 10.9142 154.006 10.8757 153.861 10.8024C151.475 9.57264 149.08 8.48003 146.742 7.55444C146.33 7.3914 146.163 7.00963 146.371 6.70144C146.505 6.54308 146.686 6.43204 146.888 6.38476C147.09 6.33749 147.301 6.35649 147.492 6.43897C149.89 7.38842 152.342 8.50687 154.782 9.76452C154.867 9.79384 154.943 9.84351 155.004 9.90918C155.066 9.97485 155.11 10.0545 155.133 10.1412C155.157 10.2279 155.158 10.319 155.138 10.4066C155.118 10.4941 155.077 10.5754 155.019 10.6434C154.929 10.7342 154.821 10.8053 154.703 10.852C154.584 10.8988 154.457 10.9201 154.33 10.9148H154.329ZM109.305 4.46452C109.139 4.47324 108.975 4.43373 108.832 4.35078C108.688 4.26784 108.572 4.14503 108.497 3.99726C108.367 3.66023 108.622 3.31425 109.064 3.22378C111.796 2.66378 114.558 2.25916 117.336 2.01187C117.533 1.97711 117.736 2.0139 117.909 2.11561C118.081 2.21732 118.212 2.37726 118.276 2.56662C118.339 2.9126 118.02 3.22577 117.564 3.26255C114.866 3.50284 112.185 3.89584 109.532 4.43967C109.457 4.45589 109.381 4.46422 109.305 4.46452ZM136.763 4.44265C136.688 4.44209 136.612 4.43376 136.539 4.41779C135.047 4.0917 133.537 3.82128 132.04 3.60555C130.87 3.43952 129.672 3.30729 128.477 3.20787C128.017 3.17009 127.681 2.85891 127.717 2.51194C127.77 2.32238 127.892 2.15957 128.059 2.05573C128.227 1.95189 128.427 1.9146 128.62 1.95123C129.859 2.05064 131.105 2.18983 132.314 2.36282C133.865 2.58353 135.431 2.86587 136.971 3.2029C137.416 3.30232 137.68 3.65029 137.561 3.98533C137.489 4.13299 137.375 4.25565 137.233 4.33726C137.09 4.41886 136.927 4.45559 136.763 4.44265Z" fill="white" stroke="white" stroke-width="0.994184"/>
<path d="M323.175 4.1204C323.169 4.10503 323.163 4.09164 323.157 4.07825L323.122 3.99901C323.115 3.98661 323.109 3.97521 323.102 3.96473L323.012 3.82482C323.002 3.81099 322.991 3.79789 322.979 3.7856L322.923 3.72487L322.899 3.7052L322.861 3.67365C322.842 3.65913 322.822 3.64573 322.801 3.63354L322.771 3.61346C322.739 3.59614 322.707 3.58057 322.674 3.56681C322.567 3.5248 322.458 3.48948 322.347 3.46107L322.319 3.45317L322.213 3.42277L322.203 3.42207L322.001 3.45082C321.793 3.48106 321.578 3.51287 321.353 3.52995C319.448 3.67351 317.543 3.81546 315.64 3.95581L312.075 4.2203C308.724 4.46979 305.372 4.72065 302.022 4.97288L298.121 5.26856L297.653 5.3036C296.334 5.40384 295.015 5.50376 293.696 5.60333C292.159 5.71888 290.624 5.83288 289.09 5.94535L284.433 6.2897C283.052 6.39224 281.486 6.50678 279.983 6.62868C279.795 6.6231 279.61 6.68168 279.459 6.79481C279.308 6.90795 279.2 7.06893 279.153 7.25144C279.142 7.28488 279.128 7.3173 279.112 7.34829L279.104 7.4614C279.101 7.47446 279.1 7.4878 279.101 7.50109C279.183 7.87473 279.484 8.11323 279.943 8.37576C282.462 9.81371 285.057 11.3059 287.347 12.6241L288.137 13.0784C289.288 13.74 290.438 14.4013 291.588 15.0623C291.764 15.1583 291.917 15.2914 292.037 15.4525C292.156 15.6136 292.239 15.7988 292.28 15.9953C292.701 18.2802 293.124 20.5649 293.549 22.8494L294.636 28.6828C294.659 28.8705 294.743 29.0455 294.875 29.1808C295.008 29.3161 295.181 29.4044 295.368 29.4321C295.398 29.4396 295.427 29.449 295.456 29.4602L295.624 29.472C295.642 29.4736 295.66 29.4729 295.677 29.4697C296.092 29.3575 296.482 29.1673 296.825 28.9091C296.973 28.8138 297.118 28.7193 297.267 28.632C298.022 28.1864 298.77 27.7254 299.494 27.2777C299.889 27.0341 300.284 26.791 300.68 26.5482L303.057 25.1017C304.168 24.4265 305.279 23.7503 306.39 23.0731C306.555 22.9632 306.749 22.9034 306.948 22.9009C307.147 22.8984 307.342 22.9533 307.511 23.059C308.671 23.7193 309.833 24.3781 310.996 25.0354C312.704 26.0017 314.641 27.0977 316.508 28.1699C316.653 28.2596 316.817 28.3161 316.987 28.3353C317.158 28.3545 317.33 28.3359 317.492 28.2808C317.642 28.2275 317.775 28.1362 317.879 28.0159C317.983 27.8957 318.054 27.7505 318.085 27.5946C318.306 26.4474 318.569 25.2963 318.823 24.1835C318.948 23.6379 319.071 23.1041 319.19 22.562C319.353 21.825 319.514 21.0878 319.673 20.3505L319.712 20.1757C319.853 19.5269 319.994 18.8784 320.136 18.2303C320.284 17.558 320.434 16.8862 320.586 16.2148L320.633 16.0028C320.764 15.4203 320.894 14.8382 321.023 14.2563C321.149 13.6868 321.273 13.1169 321.396 12.5466L321.426 12.414C321.555 11.8136 321.687 11.2132 321.819 10.613C321.976 9.90013 322.134 9.18769 322.294 8.47567L322.296 8.44789C322.431 7.84513 322.565 7.24202 322.699 6.63855C322.769 6.32307 322.838 6.00749 322.905 5.69181L322.927 5.58768C322.989 5.3015 323.051 5.01537 323.113 4.72928C323.124 4.679 323.141 4.63003 323.162 4.58316C323.168 4.5718 323.171 4.55957 323.173 4.54701L323.198 4.19478L323.185 4.15702C323.185 4.14802 323.18 4.13371 323.175 4.1204ZM293.639 13.8142C293.485 13.8723 293.32 13.8974 293.156 13.888C292.988 13.8756 292.825 13.8246 292.681 13.7391C290.464 12.4582 288.245 11.1799 286.025 9.90409L284.508 9.03093L284.402 8.96765L284.317 8.91687C284.22 8.86396 284.142 8.7798 284.098 8.67782C284.054 8.57584 284.045 8.46194 284.073 8.35431C284.109 8.24504 284.178 8.1496 284.27 8.08097C284.363 8.01234 284.474 7.97386 284.589 7.97076L312.655 5.86326C312.799 5.84586 312.944 5.88136 313.064 5.96312C313.183 6.04489 313.269 6.16735 313.305 6.30768L313.314 6.35621C313.334 6.47398 313.311 6.59492 313.249 6.69693C313.187 6.79894 313.09 6.87521 312.976 6.9118L312.906 6.93874C312.849 6.96071 312.791 6.98353 312.733 7.00437L299.5 11.7127C297.545 12.4105 295.592 13.1097 293.639 13.8103L293.639 13.8142ZM297.539 22.4154L296.754 23.9357C296.698 24.0368 296.614 24.119 296.511 24.1721C296.409 24.2253 296.293 24.2469 296.178 24.2343L296.134 24.2312C296.013 24.2221 295.898 24.1743 295.806 24.0948C295.714 24.0152 295.65 23.9083 295.623 23.7896L294.802 19.3588C294.6 18.2638 294.398 17.1688 294.188 16.0752C294.166 15.9825 294.163 15.8864 294.179 15.7925C294.195 15.6986 294.23 15.6089 294.281 15.5287C294.333 15.4486 294.4 15.3796 294.479 15.326C294.558 15.2724 294.646 15.2352 294.74 15.2166C298.51 13.8804 302.279 12.5401 306.045 11.1957L308.186 10.4305L309.836 9.84027C310.01 9.77348 310.196 9.74114 310.383 9.74503C310.502 9.74427 310.619 9.7792 310.718 9.84533C310.817 9.91146 310.894 10.0058 310.939 10.1161C310.977 10.2213 310.977 10.3367 310.939 10.4418C310.9 10.547 310.825 10.6351 310.728 10.6906L306.971 13.0812C304.78 14.472 302.517 15.9106 300.291 17.3369C300.172 17.4179 300.074 17.5271 300.007 17.6549C299.127 19.3302 298.21 21.1134 297.539 22.4154ZM304.489 22.2099L299.469 25.2598C299.36 25.3236 299.234 25.3547 299.107 25.3497C298.98 25.3447 298.858 25.3037 298.753 25.2315L298.704 25.1962C298.603 25.1316 298.53 25.0323 298.498 24.9171C298.466 24.8019 298.478 24.679 298.53 24.5718L300.879 20.0264C300.918 19.9562 300.971 19.8951 301.035 19.8469C301.098 19.7988 301.172 19.7648 301.25 19.7473C301.417 19.7048 301.594 19.7283 301.744 19.8128L304.465 21.3467C304.545 21.3885 304.612 21.4502 304.661 21.5257C304.71 21.6013 304.738 21.6882 304.744 21.7781C304.743 21.8661 304.72 21.9524 304.675 22.0283C304.631 22.1042 304.566 22.1668 304.489 22.2099ZM320.564 7.6015L316.635 25.4189C316.613 25.5055 316.57 25.5853 316.509 25.6508C316.449 25.7163 316.372 25.7653 316.287 25.7934C316.197 25.8257 316.101 25.8383 316.005 25.8304C315.91 25.8225 315.817 25.7942 315.733 25.7475L303.053 18.5665C302.974 18.5251 302.907 18.4645 302.859 18.3903C302.81 18.3161 302.781 18.2307 302.774 18.1422C302.772 18.0551 302.792 17.9689 302.834 17.8924C302.876 17.816 302.937 17.752 303.012 17.7072L319.622 7.06584C319.723 7.00328 319.838 6.96891 319.957 6.96633C320.075 6.96376 320.192 6.99309 320.295 7.05123C320.394 7.10066 320.474 7.18136 320.523 7.28084C320.571 7.38032 320.586 7.49302 320.564 7.6015Z" fill="white" stroke="white" stroke-width="0.745975"/>
</g>
</g>
</g>
<defs>
<clipPath id="clip0_393_1883">
<rect width="322.89" height="79" fill="white" transform="translate(0.75)"/>
</clipPath>
<clipPath id="clip1_393_1883">
<rect width="322.89" height="79" fill="white" transform="translate(0.75)"/>
</clipPath>
<clipPath id="clip2_393_1883">
<rect width="322.89" height="78.9978" fill="white" transform="translate(0.75)"/>
</clipPath>
</defs>
</svg>
