<svg width="41" height="40" viewBox="0 0 41 40" fill="none" xmlns="http://www.w3.org/2000/svg">
<g clip-path="url(#clip0_393_2938)">
<g clip-path="url(#clip1_393_2938)">
<g clip-path="url(#clip2_393_2938)">
<path d="M8.94097 4.44964L3.4503 7.66369C3.25045 7.79502 3.01947 7.87125 2.78071 7.88466C2.54517 7.88428 2.31383 7.82227 2.10968 7.70481C1.90552 7.58734 1.73565 7.4185 1.61695 7.21507C1.52092 7.06454 1.45744 6.89559 1.43058 6.71907C1.40372 6.54256 1.41409 6.36237 1.461 6.1901C1.50792 6.01782 1.59035 5.85727 1.703 5.71874C1.81565 5.58021 1.95604 5.46678 2.11513 5.38574L9.61056 0.84723C9.92255 0.686506 10.2834 0.648507 10.6221 0.740724C10.9607 0.832941 11.2525 1.04868 11.4399 1.34541C11.6017 1.65125 11.66 2.00133 11.606 2.3431V37.9749C11.6083 38.1501 11.5755 38.3241 11.5095 38.4865C11.4435 38.6489 11.3456 38.7964 11.2217 38.9204C11.0977 39.0443 10.9502 39.1422 10.7878 39.2082C10.6254 39.2742 10.4514 39.307 10.2761 39.3047C9.92496 39.2998 9.58952 39.1582 9.34118 38.9098C9.09284 38.6615 8.95117 38.326 8.94632 37.9749L8.94097 4.44964Z" fill="#D6D6D6"/>
<path d="M10.2782 39.9975C9.74248 39.992 9.23026 39.777 8.85108 39.3986C8.47191 39.0201 8.2559 38.5083 8.24928 37.9727V5.65808L3.82996 8.25209C3.52186 8.45047 3.16629 8.56283 2.80013 8.57751C2.44233 8.57905 2.09046 8.48612 1.78007 8.30812C1.46968 8.13012 1.21177 7.87335 1.0324 7.56375C0.889891 7.31527 0.799317 7.04044 0.766169 6.75591C0.73302 6.47139 0.757988 6.1831 0.839559 5.90851C0.916528 5.66757 1.04056 5.44431 1.20447 5.25166C1.36838 5.05902 1.56889 4.90083 1.7944 4.78627L9.2818 0.239732C9.75155 -0.00613528 10.2968 -0.0654484 10.8085 0.0736728C11.0679 0.138199 11.3116 0.254503 11.5249 0.415598C11.7383 0.576692 11.9168 0.779251 12.0499 1.0111C12.2741 1.43438 12.3616 1.91675 12.3003 2.39181V37.9727C12.3032 38.239 12.2528 38.5033 12.1522 38.7499C12.0516 38.9965 11.9028 39.2206 11.7144 39.409C11.5261 39.5973 11.302 39.7462 11.0554 39.8468C10.8087 39.9474 10.5445 39.9977 10.2782 39.9948M9.6407 3.24085V37.9727C9.64478 38.1405 9.71325 38.3002 9.83192 38.4189C9.95059 38.5376 10.1104 38.6061 10.2782 38.6101C10.3624 38.612 10.4461 38.5967 10.5242 38.5653C10.6024 38.5339 10.6734 38.4871 10.733 38.4275C10.7925 38.3679 10.8394 38.2969 10.8708 38.2188C10.9022 38.1406 10.9174 38.0569 10.9156 37.9727V2.28601L10.9277 2.22976C10.9565 2.03258 10.9203 1.83138 10.8245 1.65659C10.7359 1.5316 10.6035 1.44458 10.4536 1.41286C10.2885 1.3647 10.1115 1.37802 9.95541 1.45036L2.44257 6.01029C2.37682 6.04097 2.31799 6.08468 2.26965 6.13878C2.22131 6.19288 2.18446 6.25623 2.16134 6.325C2.13665 6.41989 2.13116 6.51876 2.14519 6.61581C2.15922 6.71285 2.19248 6.80612 2.24303 6.89014C2.30289 6.9823 2.38485 7.05802 2.48145 7.11041C2.57805 7.1628 2.68622 7.1902 2.79611 7.19011C2.89622 7.17489 2.99202 7.13885 3.07734 7.08432L3.11216 7.06289L9.6407 3.24085Z" fill="#D6D6D6"/>
<path d="M25.4623 33.7658C26.0103 33.7658 26.546 33.9283 27.0017 34.2327C27.4573 34.5372 27.8125 34.9699 28.0222 35.4762C28.2319 35.9825 28.2868 36.5396 28.1799 37.0771C28.073 37.6146 27.8091 38.1083 27.4216 38.4958C27.0341 38.8833 26.5404 39.1472 26.0029 39.2541C25.4654 39.361 24.9083 39.3061 24.402 39.0964C23.8957 38.8867 23.463 38.5316 23.1585 38.0759C22.854 37.6202 22.6915 37.0845 22.6915 36.5365C22.688 36.1717 22.7572 35.8098 22.8952 35.472C23.0331 35.1342 23.2371 34.8273 23.4951 34.5693C23.7531 34.3113 24.06 34.1074 24.3978 33.9694C24.7356 33.8314 25.0975 33.7622 25.4623 33.7658Z" fill="#D6D6D6"/>
<path d="M25.4612 39.9966C24.7762 39.9966 24.1067 39.7935 23.5372 39.4129C22.9677 39.0324 22.5238 38.4915 22.2617 37.8587C21.9996 37.2259 21.931 36.5296 22.0646 35.8578C22.1982 35.186 22.528 34.569 23.0124 34.0846C23.4967 33.6003 24.1138 33.2705 24.7856 33.1369C25.4573 33.0032 26.1537 33.0718 26.7865 33.3339C27.4193 33.596 27.9601 34.0399 28.3407 34.6094C28.7212 35.1789 28.9243 35.8485 28.9243 36.5334C28.9292 36.9896 28.8429 37.4421 28.6706 37.8644C28.4982 38.2868 28.2433 38.6705 27.9208 38.993C27.5982 39.3156 27.2145 39.5705 26.7922 39.7428C26.3698 39.9152 25.9173 40.0014 25.4612 39.9966ZM25.4612 34.455C25.0501 34.455 24.6483 34.5769 24.3065 34.8053C23.9647 35.0337 23.6983 35.3583 23.541 35.7381C23.3837 36.1179 23.3425 36.5358 23.4227 36.9389C23.5029 37.3421 23.7008 37.7124 23.9915 38.0031C24.2822 38.2938 24.6525 38.4917 25.0557 38.5719C25.4589 38.6521 25.8768 38.611 26.2566 38.4537C26.6363 38.2963 26.9609 38.0299 27.1893 37.6882C27.4177 37.3464 27.5396 36.9445 27.5396 36.5334C27.5427 36.2597 27.491 35.988 27.3876 35.7345C27.2842 35.4809 27.1313 35.2506 26.9376 35.057C26.744 34.8634 26.5137 34.7104 26.2602 34.607C26.0066 34.5037 25.735 34.452 25.4612 34.455Z" fill="#D6D6D6"/>
<path d="M37.4819 4.44964L31.9912 7.66369C31.8449 7.76446 31.679 7.83323 31.5043 7.86551C31.3296 7.89779 31.1501 7.89285 30.9774 7.85102C30.8048 7.80918 30.6429 7.73139 30.5024 7.62273C30.3618 7.51407 30.2458 7.37698 30.1619 7.22042C30.0658 7.0699 30.0024 6.90095 29.9755 6.72443C29.9486 6.54791 29.959 6.36773 30.0059 6.19545C30.0528 6.02318 30.1353 5.86262 30.2479 5.7241C30.3606 5.58557 30.501 5.47214 30.66 5.39109L38.1515 0.84723C38.4635 0.686506 38.8243 0.648507 39.163 0.740724C39.5016 0.832941 39.7934 1.04868 39.9808 1.34541C40.1426 1.65125 40.2009 2.00133 40.1468 2.3431V37.9749C40.1492 38.1501 40.1164 38.3241 40.0504 38.4865C39.9844 38.6489 39.8865 38.7964 39.7626 38.9204C39.6386 39.0443 39.4911 39.1422 39.3287 39.2082C39.1663 39.2742 38.9923 39.307 38.817 39.3047C38.4659 39.2998 38.1304 39.1582 37.8821 38.9098C37.6337 38.6615 37.4921 38.326 37.4872 37.9749L37.4819 4.44964Z" fill="#D6D6D6"/>
<path d="M38.8176 39.9954C38.2819 39.9899 37.7697 39.7749 37.3905 39.3965C37.0113 39.0181 36.7953 38.5063 36.7887 37.9706V5.65601L32.3694 8.25001C32.0613 8.4484 31.7057 8.56075 31.3395 8.57543C30.9822 8.5765 30.6309 8.48335 30.321 8.30537C30.0111 8.12739 29.7536 7.87087 29.5745 7.56167C29.4322 7.31309 29.3419 7.03822 29.3089 6.7537C29.276 6.46917 29.3012 6.18093 29.383 5.90643C29.4598 5.66561 29.5836 5.44242 29.7473 5.24978C29.911 5.05715 30.1112 4.8989 30.3365 4.78419L37.8239 0.230958C38.2938 -0.0119754 38.8379 -0.068879 39.3479 0.0715943C39.6073 0.13612 39.851 0.252425 40.0643 0.413519C40.2777 0.574613 40.4562 0.777173 40.5893 1.00903C40.8135 1.43231 40.901 1.91467 40.8397 2.38973V37.9706C40.8426 38.2369 40.7923 38.5012 40.6916 38.7478C40.591 38.9945 40.4422 39.2185 40.2539 39.4069C40.0655 39.5952 39.8414 39.7441 39.5948 39.8447C39.3482 39.9453 39.0839 39.9956 38.8176 39.9928M38.1801 3.23609V37.9706C38.1842 38.1384 38.2527 38.2982 38.3713 38.4168C38.49 38.5355 38.6498 38.604 38.8176 38.608C38.9018 38.6099 38.9855 38.5946 39.0637 38.5632C39.1418 38.5319 39.2128 38.485 39.2724 38.4254C39.3319 38.3658 39.3788 38.2948 39.4102 38.2167C39.4416 38.1385 39.4568 38.0548 39.455 37.9706V2.28393L39.4644 2.22769C39.4932 2.0305 39.457 1.8293 39.3613 1.65451C39.2731 1.53058 39.1417 1.44412 38.993 1.41212C38.8279 1.36396 38.6509 1.37728 38.4948 1.44962L30.9806 6.01089C30.9149 6.04157 30.8561 6.08528 30.8077 6.13938C30.7594 6.19348 30.7225 6.25683 30.6994 6.3256C30.6747 6.42049 30.6692 6.51936 30.6833 6.61641C30.6973 6.71345 30.7305 6.80672 30.7811 6.89074C30.841 6.98289 30.9229 7.05862 31.0195 7.11101C31.1161 7.1634 31.2243 7.1908 31.3342 7.19071C31.4343 7.17549 31.5301 7.13945 31.6154 7.08492L31.6502 7.06349L38.1801 3.23609Z" fill="#D6D6D6"/>
</g>
</g>
</g>
<defs>
<clipPath id="clip0_393_2938">
<rect width="40.11" height="40" fill="white" transform="translate(0.75)"/>
</clipPath>
<clipPath id="clip1_393_2938">
<rect width="40.11" height="40" fill="white" transform="translate(0.75)"/>
</clipPath>
<clipPath id="clip2_393_2938">
<rect width="40.11" height="39.9962" fill="white" transform="translate(0.75)"/>
</clipPath>
</defs>
</svg>
