<svg width="37" height="37" viewBox="0 0 37 37" fill="none" xmlns="http://www.w3.org/2000/svg">
<path d="M4.57908 16.7628L8.34342 17.5312C8.40184 17.5439 8.4628 17.5502 8.5225 17.5502C8.9797 17.5502 9.35944 17.2073 9.40516 16.7527C9.45088 16.2967 9.14735 15.8852 8.69776 15.7951L4.93215 15.0254C4.45462 14.9289 3.98598 15.2388 3.88692 15.7163C3.87549 15.7747 3.86914 15.8344 3.86914 15.8954C3.86914 16.3145 4.1676 16.679 4.57781 16.7628H4.57908Z" fill="#6546BD"/>
<path d="M15.5014 8.99293C15.5852 9.40314 15.9497 9.7016 16.3701 9.7016C16.4285 9.7016 16.4894 9.69525 16.5491 9.68382C16.7815 9.63683 16.9809 9.50094 17.1117 9.30408C17.24 9.10977 17.287 8.8672 17.2413 8.63859L16.4729 4.87298C16.3751 4.39418 15.9052 4.0843 15.4264 4.18209C15.194 4.22908 14.9946 4.36497 14.8638 4.56183C14.733 4.75995 14.6873 4.99617 14.7355 5.22859L15.5052 8.9942L15.5014 8.99293Z" fill="#6546BD"/>
<path d="M13.416 14.9618C13.5798 15.132 13.8084 15.231 14.0459 15.2336H14.0536C14.2872 15.2336 14.5158 15.1396 14.6809 14.9732C14.8461 14.8068 14.9438 14.5732 14.9413 14.3369C14.9388 14.1007 14.8397 13.8696 14.6721 13.7083L9.15255 8.18877C8.98491 8.02113 8.76265 7.92969 8.52516 7.92969C8.28766 7.92969 8.06541 8.0224 7.89777 8.19004C7.73013 8.35768 7.63741 8.57994 7.63868 8.81743C7.63868 9.05493 7.7314 9.27718 7.89904 9.44482L13.416 14.9631V14.9618Z" fill="#6546BD"/>
<path d="M21.2631 28.3547C21.1615 27.8797 20.6929 27.5736 20.2192 27.6701C19.7442 27.7666 19.4343 28.2327 19.5258 28.7103L20.2954 32.4759C20.3792 32.8861 20.7437 33.1846 21.1641 33.1858C21.2238 33.1858 21.2835 33.1795 21.3419 33.168C21.5743 33.1211 21.7737 32.9852 21.9045 32.7883C22.0328 32.5927 22.0798 32.3502 22.0328 32.1215L21.2631 28.3559V28.3547Z" fill="#6546BD"/>
<path d="M34.4504 2.60602C33.2032 1.35632 31.5446 0.667969 29.778 0.667969C28.0114 0.667969 26.3527 1.35759 25.1056 2.60729L17.7572 9.9569C16.7526 10.9577 16.091 12.2836 15.8954 13.6882C15.7709 14.5722 15.8268 15.484 16.0567 16.3476C15.193 16.119 14.2799 16.0632 13.396 16.1863C11.9913 16.3819 10.6654 17.0436 9.66465 18.0482L2.31758 25.3953C0.652583 27.0603 -0.00274786 29.5063 0.606862 31.7797C1.2152 34.053 3.00593 35.8437 5.28054 36.4533C5.84189 36.6045 6.41467 36.6769 6.98236 36.6769C8.71467 36.6769 10.4114 35.9961 11.6649 34.7426L19.0133 27.3943C20.0179 26.3935 20.6795 25.0676 20.8751 23.663C20.9996 22.779 20.9437 21.8671 20.7138 21.0035C21.2777 21.1534 21.8568 21.2296 22.4423 21.2296C24.2026 21.2296 25.8574 20.5451 27.1033 19.3017L34.4491 11.9546C35.648 10.7608 36.3465 9.11868 36.3795 7.42829L36.3821 7.28097C36.3859 5.51437 35.7001 3.85445 34.4516 2.60475L34.4504 2.60602ZM34.6053 7.28351C34.6117 8.55607 34.0973 9.80196 33.1956 10.7011L25.8498 18.0469C25.23 18.6578 24.4566 19.0922 23.6133 19.3055C22.8741 19.4909 22.102 19.5011 21.3615 19.3373L22.3229 18.3759C22.963 17.7269 23.2132 16.7769 22.9745 15.8968C22.7357 15.0167 22.0423 14.322 21.1621 14.0845C20.282 13.8457 19.332 14.0959 18.6818 14.7373L17.7217 15.6974C17.5578 14.957 17.568 14.1848 17.7534 13.4456C17.9655 12.6024 18.4011 11.8289 19.0107 11.2104L26.3578 3.86334C27.2697 2.94893 28.4838 2.446 29.7754 2.44473C31.067 2.44473 32.2799 2.94766 33.193 3.86207C34.0948 4.76632 34.5951 5.96268 34.6053 7.23778V7.28351ZM14.445 18.974C13.7973 19.623 13.542 20.5755 13.7795 21.4607C14.017 22.3459 14.7142 23.0432 15.5995 23.2807C16.4859 23.5182 17.4384 23.2629 18.0862 22.6139L19.0463 21.6538C19.2101 22.3955 19.2 23.1676 19.0133 23.9055C18.7999 24.7488 18.3643 25.5223 17.7547 26.142L10.4076 33.4891C9.18966 34.7071 7.4002 35.1859 5.73647 34.7401C4.07275 34.2943 2.76336 32.9849 2.31758 31.3212C1.8718 29.6575 2.3506 27.868 3.56855 26.65L10.9156 19.3042C11.5354 18.6934 12.3088 18.2578 13.1521 18.0457C13.5433 17.9466 13.9446 17.8971 14.3459 17.8971C14.7015 17.8971 15.0559 17.9352 15.4039 18.0126L14.4437 18.9728L14.445 18.974ZM16.0643 21.5547C15.7925 21.4811 15.5779 21.2652 15.5042 20.9946C15.4305 20.7229 15.5042 20.4282 15.6985 20.2288L19.9328 15.9958C20.0839 15.8498 20.2858 15.7711 20.4916 15.7711C20.5614 15.7711 20.6325 15.7799 20.7011 15.799C20.9729 15.8739 21.1875 16.0886 21.2612 16.3591C21.3349 16.6296 21.2612 16.9242 21.0656 17.1262L16.8326 21.3579C16.6307 21.5535 16.3361 21.6284 16.0643 21.5547Z" fill="#6546BD"/>
<path d="M32.1842 20.5883L28.4173 19.8186C27.9982 19.7335 27.5766 19.9596 27.4191 20.3533C27.3988 20.4028 27.3823 20.4549 27.3696 20.5095C27.3226 20.7419 27.3683 20.9781 27.4978 21.1763C27.6261 21.3706 27.8319 21.5103 28.0605 21.556L31.8261 22.3256C31.8858 22.3383 31.9455 22.3434 32.0051 22.3434C32.1766 22.3434 32.3455 22.2926 32.4916 22.1961C32.6897 22.0653 32.8243 21.8659 32.8713 21.6335C32.8827 21.5751 32.8891 21.5154 32.8891 21.4544C32.8891 21.0366 32.5906 20.6721 32.1817 20.587L32.1842 20.5883Z" fill="#6546BD"/>
<path d="M23.3459 22.3841C23.1783 22.2164 22.956 22.125 22.7185 22.125C22.481 22.125 22.2588 22.2177 22.0911 22.3854C21.7457 22.7308 21.7457 23.2934 22.0911 23.6401L27.6068 29.1558C27.7706 29.3273 28.0005 29.4263 28.238 29.4289H28.2469C28.4806 29.4289 28.7092 29.3349 28.8743 29.1685C29.0419 29.0009 29.1372 28.7685 29.1346 28.5323C29.1321 28.296 29.033 28.0662 28.8654 27.9036L23.3459 22.3841Z" fill="#6546BD"/>
</svg>
