<svg width="25" height="24" viewBox="0 0 25 24" fill="none" xmlns="http://www.w3.org/2000/svg">
<g opacity="0.2">
<path d="M12.75 23.5C19.1013 23.5 24.25 18.3513 24.25 12C24.25 5.64873 19.1013 0.5 12.75 0.5C6.39873 0.5 1.25 5.64873 1.25 12C1.25 18.3513 6.39873 23.5 12.75 23.5Z" stroke="#8C8C8C"/>
<path d="M11.2589 12L14.5669 8.97549C14.811 8.75233 14.811 8.39052 14.5669 8.16737C14.3229 7.94421 13.9271 7.94421 13.6831 8.16737L9.93306 11.5959C9.68898 11.8191 9.68898 12.1809 9.93306 12.4041L13.6831 15.8326C13.9271 16.0558 14.3229 16.0558 14.5669 15.8326C14.811 15.6095 14.811 15.2477 14.5669 15.0245L11.2589 12Z" fill="#8C8C8C" stroke="#191919"/>
</g>
</svg>
