<svg width="61" height="61" viewBox="0 0 61 61" fill="none" xmlns="http://www.w3.org/2000/svg">
<path d="M30.1904 0.5C22.2402 0.514553 14.6207 3.68069 9.00098 9.3042C3.38121 14.9277 0.220189 22.5498 0.210938 30.5C0.219936 38.4537 3.38367 46.0795 9.00781 51.7036C14.632 57.3278 22.2572 60.491 30.2109 60.5C38.1656 60.4889 45.7911 57.3234 51.415 51.6978C57.039 46.0721 60.2022 38.4459 60.2109 30.4912C60.1935 22.5374 57.0244 14.9149 51.3975 9.29346C45.7706 3.672 38.1442 0.509772 30.1904 0.5ZM30.2109 57.458C25.956 57.4533 21.7621 56.4444 17.9707 54.5132C18.0237 53.2882 18.121 52.1751 18.252 51.2021C18.543 49.0511 19.2657 48.643 19.9688 48.25C20.5808 48.0165 21.0874 47.5684 21.3936 46.9893C21.6997 46.4101 21.7846 45.7393 21.6328 45.1021C21.5956 44.4522 21.7424 43.8054 22.0566 43.2354C22.7999 41.7741 22.9754 40.0893 22.5488 38.5063C21.9398 36.3633 20.2128 35.529 18.3848 34.646C16.2309 33.6798 14.2313 32.4022 12.4492 30.854C9.38522 28.181 7.52506 28.144 6.41406 28.123C6.17006 28.123 6.16935 28.1233 5.86035 26.9893C5.78235 26.6963 5.60727 26.0502 5.57227 25.8022C5.59527 25.7922 5.62432 25.7811 5.65332 25.7671C6.44488 25.441 7.16334 24.959 7.76465 24.3496C8.36595 23.7402 8.83779 23.0161 9.15332 22.2202C10.2045 20.1432 11.7739 18.3721 13.709 17.0781C13.8901 17.2575 14.1053 17.399 14.3418 17.4941C14.5783 17.5893 14.8311 17.6363 15.0859 17.6323C15.9919 17.6323 16.8648 17.0764 18.0098 15.7734C18.415 15.4081 18.7424 14.9644 18.9717 14.4692C19.2009 13.9741 19.3273 13.4375 19.3438 12.8921C19.3065 12.5378 19.1957 12.1953 19.0186 11.8862C18.8414 11.5772 18.6013 11.3084 18.3145 11.0972C18.484 10.8102 18.6762 10.5371 18.8887 10.2803C19.0177 10.1153 19.1324 9.96703 19.2344 9.83203C19.2801 10.0483 19.3435 10.2609 19.4229 10.4673C19.5506 10.9025 19.8112 11.2872 20.168 11.5674C20.5247 11.8476 20.96 12.0093 21.4131 12.0303C21.7216 12.028 22.0247 11.9521 22.2979 11.8086C22.571 11.6651 22.8056 11.4579 22.9824 11.2051C23.2504 10.8471 24.6446 10.0282 30.9746 8.57324C32.085 8.3231 33.1062 7.77454 33.9277 6.98682C34.7493 6.19909 35.3401 5.20189 35.6367 4.10303C37.1861 4.42208 38.7044 4.87753 40.1738 5.46338C39.8625 5.78065 39.4762 6.01418 39.0508 6.14307L38.5664 6.29297C37.4214 6.63697 36.4359 6.93322 35.9619 7.94922C35.818 8.31826 35.7484 8.71238 35.7578 9.1084C35.7673 9.50442 35.8552 9.89458 36.0166 10.2563C35.0112 10.63 33.9563 10.8538 32.8857 10.9204C32.6463 10.9354 32.4144 11.0087 32.21 11.1343C31.503 11.5714 30.8928 12.1478 30.416 12.8286C29.9393 13.5095 29.6055 14.2804 29.4365 15.0942C29.3616 15.8249 29.4584 16.5628 29.7188 17.2495C29.9791 17.9363 30.396 18.553 30.9365 19.0503C30.9545 19.0673 30.9674 19.0802 30.9814 19.0962C30.8354 19.2272 30.5599 19.4531 30.0459 19.8301C27.9229 21.4101 24.7097 23.796 26.2217 29.644C27.6087 35.033 31.105 36.1641 33.79 36.1641C35.0776 36.1491 36.3528 35.9162 37.5625 35.4751C38.2755 36.3751 39.3129 38.5313 38.6699 43.1753C38.1909 46.6753 38.7051 49.4981 40.1191 51.1201C40.499 51.5752 40.9743 51.9411 41.5117 52.1914C42.0491 52.4417 42.6347 52.5705 43.2275 52.5684C45.1275 52.5684 47.1282 51.2842 48.8652 48.9502C53.2582 43.0422 54.2515 40.3271 53.4795 36.3101C53.2935 35.3461 53.5012 35.0352 54.8672 34.2212C55.3741 34.0161 55.8226 33.6903 56.1748 33.272C56.527 32.8537 56.7718 32.3557 56.8877 31.8213C56.9327 31.7843 56.9822 31.7461 57.0332 31.7061L57.0879 31.667C57.1039 31.653 57.1227 31.6414 57.1387 31.6284C56.8623 38.4906 53.9633 44.9847 49.0391 49.772C44.0164 54.7084 37.2533 57.4694 30.2109 57.458ZM16.1426 13.2324C16.0127 13.4178 15.8719 13.5948 15.7207 13.7632L15.6143 13.8853C15.4792 13.6535 15.2846 13.4621 15.0508 13.3306C14.817 13.1991 14.5524 13.1322 14.2842 13.1372C14.0177 13.136 13.755 13.2019 13.5205 13.3286C13.286 13.4553 13.0865 13.6387 12.9414 13.8623C12.7061 14.0623 12.4591 14.2467 12.2002 14.415C9.73174 16.0197 7.73586 18.254 6.41895 20.8872C6.12455 21.677 5.57078 22.3437 4.84863 22.7783C6.71419 16.8731 10.5108 11.7663 15.6279 8.27832C15.6751 8.35262 15.7281 8.4231 15.7861 8.48926C15.898 8.62182 16.0281 8.73741 16.1729 8.83301C14.8859 10.641 14.8766 12.0414 16.1426 13.2324ZM19.6221 39.3423C19.8434 40.28 19.7032 41.2669 19.2305 42.1064C18.702 43.1607 18.4911 44.3451 18.6221 45.5171L18.5557 45.5552L18.4736 45.6001C17.3796 46.2121 15.7314 47.1383 15.2354 50.8003C15.1574 51.3823 15.0931 52.0003 15.0361 52.6543C11.5502 50.1367 8.70503 46.8345 6.73047 43.0146C4.7559 39.1948 3.70704 34.9639 3.66895 30.6641C3.66895 30.3691 3.67657 30.0642 3.68457 29.7642C3.94971 30.2279 4.34234 30.6059 4.81543 30.854C5.28852 31.1021 5.82226 31.2097 6.35449 31.1641C7.09249 31.1771 8.21022 31.1974 10.4492 33.1484C12.4354 34.8749 14.6618 36.3027 17.0596 37.3872C18.7836 38.2182 19.3941 38.5473 19.6201 39.3413L19.6221 39.3423ZM30.29 5.6001C27.5565 6.11731 24.8868 6.92797 22.3271 8.01807C22.4335 7.75557 22.5966 7.5202 22.8057 7.3291C23.1695 7.06707 23.4388 6.69432 23.5732 6.2666C23.7077 5.83889 23.7002 5.37912 23.5518 4.95605C23.5151 4.86215 23.4708 4.77149 23.4189 4.68506C26.3799 3.87414 29.4555 3.56513 32.5186 3.771C32.3186 4.22883 32.0135 4.63304 31.6279 4.95068C31.2423 5.26833 30.7874 5.49055 30.2998 5.59912L30.3252 5.69922L30.29 5.6001ZM54.9453 25.4004C54.7363 25.809 54.6457 26.2677 54.6826 26.7251C54.7195 27.1825 54.8825 27.6205 55.1543 27.9902C55.6853 28.8982 55.6856 28.8984 55.2676 29.2134C54.9054 29.4328 54.594 29.7265 54.3545 30.0757C54.115 30.4249 53.9532 30.8214 53.8789 31.2383C53.7789 31.3063 53.6083 31.4193 53.3193 31.5933C52.2003 32.2553 49.8751 33.634 50.4961 36.873C51.0761 39.888 50.2378 41.9951 46.4258 47.1211C45.3438 48.5741 44.1701 49.4621 43.2891 49.4961C43.1234 49.5074 42.9574 49.4784 42.8057 49.4111C42.6539 49.3439 42.5208 49.2407 42.418 49.1104C41.6 48.1734 41.3355 46.1551 41.6885 43.5771C42.9035 34.7771 38.7689 32.4504 38.5889 32.3564C38.3688 32.2369 38.1225 32.1742 37.8721 32.1743C37.6378 32.174 37.4058 32.2271 37.1953 32.3301C36.1228 32.8135 34.9659 33.0798 33.79 33.1133C31.446 33.1133 29.89 31.686 29.167 28.874C28.167 25 30.0539 23.6034 31.8779 22.2524C32.9779 21.4344 34.0208 20.663 34.1338 19.332C34.1555 18.8839 34.0773 18.4369 33.9043 18.0229C33.7313 17.609 33.4679 17.2389 33.1338 16.9395C32.9184 16.7597 32.7447 16.5345 32.626 16.2803C32.5072 16.0261 32.4468 15.7488 32.4473 15.4683C32.6221 14.8381 33.0064 14.2864 33.5371 13.9043C35.1371 13.7443 37.9314 13.2434 38.8584 11.7114C39.0599 11.3858 39.1785 11.0154 39.2031 10.6333C39.2277 10.2512 39.1581 9.86875 39 9.52002C38.975 9.46102 38.9506 9.40645 38.9316 9.35645C39.1206 9.29445 39.3185 9.23527 39.4395 9.19727L39.9521 9.04102C41.1769 8.66868 42.2362 7.88638 42.9521 6.8252C46.2921 8.64253 49.2086 11.1473 51.5098 14.1743C53.8109 17.2013 55.4441 20.6818 56.3018 24.3862C56.019 24.4563 55.7536 24.5821 55.5205 24.7568C55.2874 24.9315 55.0909 25.1516 54.9443 25.4033L54.9453 25.4004Z" fill="#6546BD"/>
</svg>
