<svg width="25" height="24" viewBox="0 0 25 24" fill="none" xmlns="http://www.w3.org/2000/svg">
<g opacity="0.5">
<path d="M12.75 0.5C6.39873 0.5 1.25 5.64873 1.25 12C1.25 18.3513 6.39873 23.5 12.75 23.5C19.1013 23.5 24.25 18.3513 24.25 12C24.25 5.64873 19.1013 0.5 12.75 0.5Z" stroke="#8C8C8C"/>
<path d="M14.2411 12L10.9331 15.0245C10.689 15.2477 10.689 15.6095 10.9331 15.8326C11.1771 16.0558 11.5729 16.0558 11.8169 15.8326L15.5669 12.4041C15.811 12.1809 15.811 11.8191 15.5669 11.5959L11.8169 8.16737C11.5729 7.94421 11.1771 7.94421 10.9331 8.16737C10.689 8.39053 10.689 8.75233 10.9331 8.97549L14.2411 12Z" fill="#8C8C8C" stroke="#191919"/>
</g>
</svg>
