<svg width="49" height="60" viewBox="0 0 49 60" fill="none" xmlns="http://www.w3.org/2000/svg">
<path d="M23.3448 10.8047C21.7357 10.8047 20.1627 11.2818 18.8248 12.1757C17.4869 13.0696 16.4441 14.3402 15.8283 15.8267C15.2125 17.3132 15.0514 18.9489 15.3653 20.527C15.6792 22.105 16.4541 23.5546 17.5919 24.6923C18.7297 25.83 20.1794 26.6048 21.7576 26.9187C23.3358 27.2326 24.9716 27.0715 26.4583 26.4558C27.9449 25.84 29.2155 24.7973 30.1095 23.4595C31.0035 22.1217 31.4806 20.5488 31.4806 18.9399C31.4806 16.7823 30.6235 14.7131 29.0977 13.1874C27.5719 11.6618 25.5026 10.8047 23.3448 10.8047ZM23.3448 24.0273C22.5071 24.0275 21.6822 23.8208 20.9434 23.4258C20.2047 23.0308 19.5748 22.4596 19.1097 21.7628C18.6446 21.0661 18.3587 20.2653 18.2773 19.4316C18.1959 18.5979 18.3215 17.7569 18.643 16.9834C18.9645 16.2098 19.4719 15.5275 20.1203 14.9971C20.7687 14.4666 21.538 14.1043 22.3599 13.9424C23.1819 13.7805 24.0311 13.8239 24.8323 14.0687C25.6335 14.3136 26.3618 14.7524 26.9527 15.3462C27.4256 15.8164 27.8004 16.3759 28.0553 16.9921C28.3103 17.6083 28.4402 18.269 28.4377 18.9359C28.4356 20.2859 27.8982 21.58 26.9433 22.5344C25.9884 23.4889 24.695 24.0258 23.3448 24.0273Z" fill="#6546BD"/>
<path d="M47.6785 46.7736L38.3397 31.4682L38.7337 31.1072C38.9 30.9581 39.0507 30.7926 39.1837 30.6133L39.2197 30.5683C39.74 29.9475 40.0466 29.1757 40.0941 28.3671C40.1417 27.5586 39.9276 26.7562 39.4837 26.0787C39.3131 25.7756 39.2083 25.44 39.1763 25.0937C39.1442 24.7473 39.1856 24.3982 39.2977 24.0689C39.4093 23.7403 39.5879 23.4384 39.8221 23.1823C40.0564 22.9262 40.3412 22.7214 40.6587 22.5811C41.3862 22.2883 42.0093 21.7843 42.4477 21.1342C42.8861 20.4841 43.1198 19.7176 43.1186 18.9334C43.144 18.1694 42.9371 17.4156 42.5252 16.7716C42.1133 16.1275 41.5159 15.6234 40.8117 15.3258C40.4734 15.1831 40.1695 14.9697 39.9206 14.6997C39.6717 14.4298 39.4835 14.1097 39.3687 13.761C39.1815 13.0855 39.2643 12.3637 39.5997 11.7482C40.0154 11.1071 40.2325 10.3575 40.2237 9.59349C40.215 8.82949 39.9809 8.08507 39.5507 7.45361L39.5157 7.40362C39.0574 6.74139 38.409 6.23382 37.656 5.94799C36.9031 5.66216 36.0811 5.61152 35.2988 5.80278C34.9505 5.88414 34.5881 5.88425 34.2397 5.8031C33.8914 5.72195 33.5663 5.56173 33.2898 5.33483C33.0146 5.13798 32.7847 4.88439 32.6159 4.59115C32.447 4.29791 32.343 3.97186 32.3109 3.635C32.2567 2.85553 31.968 2.11068 31.4827 1.49824C30.9975 0.885807 30.3384 0.434418 29.5919 0.203348C28.8614 -0.0340487 28.0775 -0.0528221 27.3365 0.149336C26.5955 0.351494 25.9297 0.765772 25.421 1.34123C25.1763 1.60929 24.8781 1.82314 24.5457 1.96901C24.2133 2.11487 23.854 2.18952 23.491 2.18815C23.1512 2.19452 22.8138 2.13087 22.4996 2.00117C22.1855 1.87146 21.9014 1.67847 21.6651 1.43422L21.6371 1.40323C21.1403 0.799874 20.4717 0.361946 19.7201 0.147625C18.9685 -0.0666946 18.1695 -0.0472597 17.4292 0.203348C16.7032 0.415185 16.0569 0.83883 15.573 1.42006C15.0892 2.00129 14.7898 2.71367 14.7132 3.46602L14.7082 3.51701C14.6269 4.22373 14.2736 4.87103 13.7233 5.32183L13.6943 5.34283C13.3858 5.55187 13.0385 5.69684 12.673 5.76915C12.3075 5.84146 11.9311 5.83964 11.5663 5.76378C10.8369 5.63072 10.0852 5.69662 9.39012 5.95457C8.69505 6.21252 8.08232 6.65298 7.61639 7.22963C7.09782 7.85164 6.79275 8.62374 6.74612 9.43219C6.6995 10.2406 6.91377 11.0427 7.35739 11.7202C7.53024 12.0215 7.63662 12.3562 7.66939 12.702C7.70216 13.0478 7.66056 13.3966 7.54739 13.725C7.43702 14.0544 7.25891 14.357 7.02451 14.6134C6.79011 14.8699 6.50463 15.0744 6.18642 15.2138C5.46099 15.5075 4.83979 16.0111 4.40241 16.6601C3.96504 17.3091 3.73141 18.0739 3.73147 18.8564C3.70518 19.6205 3.91082 20.3747 4.32135 21.0197C4.73187 21.6647 5.32803 22.1703 6.03142 22.4701C6.37202 22.6127 6.67775 22.8273 6.92768 23.0991C7.1776 23.371 7.3658 23.6936 7.47939 24.0449C7.6594 24.7171 7.57531 25.4326 7.2444 26.0447C6.83973 26.699 6.63157 27.4557 6.64468 28.2249C6.6578 28.994 6.89165 29.7432 7.31839 30.3833C7.59841 30.8123 7.96273 31.18 8.38921 31.464C8.8157 31.7479 9.29545 31.9422 9.79934 32.0351L10.6993 32.2161L1.53252 47.4985C1.16327 48.0074 0.968358 48.622 0.976827 49.2507C0.985297 49.8793 1.19669 50.4884 1.57952 50.9872L1.61252 51.0292C1.96625 51.5413 2.46708 51.934 3.0488 52.1553C3.63051 52.3767 4.26571 52.4164 4.87045 52.269L12.0023 50.5982L13.8623 57.6265C14.0118 58.2209 14.3306 58.7591 14.7801 59.1758C15.2295 59.5925 15.7902 59.8699 16.3942 59.9743C16.4762 59.9813 16.7682 59.9913 16.8652 59.9913C17.4208 59.9745 17.9626 59.8145 18.4382 59.5266C18.9137 59.2388 19.3067 58.8329 19.5791 58.3484L24.354 49.2684L29.6859 57.7125C30.0169 58.206 30.4741 58.6019 31.01 58.8588C31.5458 59.1157 32.1408 59.2243 32.7329 59.1733C33.3438 59.0904 33.9157 58.8252 34.3737 58.4125C34.8318 57.9998 35.1549 57.4586 35.3008 56.8596L37.1608 49.8013L44.2546 51.4591C44.858 51.6042 45.4907 51.5675 46.0733 51.3536C46.6558 51.1397 47.162 50.7583 47.5281 50.2573C47.8942 49.7562 48.1038 49.1581 48.1306 48.5382C48.1574 47.9183 48.0001 47.3043 47.6785 46.7736ZM10.3873 28.7004C10.3423 28.6655 10.2703 28.6105 10.2303 28.5855L9.40335 28.4005L9.85234 27.6336C10.2346 26.9653 10.4804 26.2278 10.5753 25.4637C10.6702 24.6997 10.6125 23.9245 10.4053 23.183C10.175 22.425 9.78508 21.7251 9.26178 21.1302C8.73848 20.5354 8.09391 20.0594 7.37139 19.7344C7.22151 19.6755 7.09821 19.5641 7.02458 19.4209C6.95096 19.2777 6.93205 19.1126 6.9714 18.9564L6.17942 18.5565L7.41039 17.9915C8.14044 17.6764 8.79312 17.2061 9.32309 16.6133C9.85306 16.0205 10.2476 15.3195 10.4793 14.5589C10.8939 12.9084 10.7891 11.1702 10.1793 9.58139L9.81234 8.4815L10.9403 8.73448C11.7182 8.89756 12.5212 8.89991 13.3 8.74137C14.0788 8.58283 14.817 8.26676 15.4692 7.81257C16.7847 6.70961 17.7506 5.24762 18.2492 3.605L18.6232 2.6131L19.3371 3.39702C21.5031 5.77578 25.078 5.76578 28.2369 3.37103L29.1939 2.6451L29.2769 3.84498C29.3342 4.6296 29.5652 5.39168 29.9531 6.07613C30.341 6.76057 30.8761 7.35027 31.5199 7.80257L31.5529 7.82557C32.9731 8.80818 34.6804 9.28949 36.4048 9.19343L37.5848 9.14444L36.9928 10.1673C36.2289 11.5197 36.0315 13.1194 36.4438 14.6169C36.6756 15.3774 37.068 16.0793 37.5943 16.6753C38.1206 17.2713 38.7687 17.7474 39.4947 18.0715C39.6381 18.1338 39.7548 18.245 39.8241 18.3852C39.8933 18.5255 39.9105 18.6857 39.8727 18.8375L40.6587 19.2304L39.4327 19.7964C38.7045 20.1145 38.0539 20.5866 37.5257 21.1802C36.9974 21.7738 36.6041 22.4748 36.3728 23.235C35.9576 24.881 36.0585 26.6148 36.6618 28.2015L36.9508 29.0584H35.9268L35.8628 29.0454C35.092 28.8974 34.2996 28.9029 33.531 29.0618C32.7624 29.2207 32.0327 29.5298 31.3839 29.9713C30.0651 31.0776 29.0962 32.5432 28.5949 34.1899L28.2199 35.1788L27.509 34.3999C26.985 33.8138 26.3431 33.3451 25.6254 33.0244C24.9076 32.7038 24.1302 32.5384 23.3441 32.5391C21.6032 32.6181 19.9405 33.2846 18.6272 34.4299L17.6722 35.1598L17.5852 33.9599C17.5184 33.1527 17.2718 32.3707 16.8635 31.6711C16.4551 30.9716 15.8953 30.3724 15.2252 29.9173C14.6819 29.4818 14.0485 29.1724 13.3709 29.0116C12.6933 28.8507 11.9885 28.8425 11.3073 28.9874L11.1833 29.0294L11.0533 29.0204C10.8043 28.9837 10.5724 28.8721 10.3883 28.7004M16.8512 57.0336L14.5712 48.3984C14.4862 48.0741 14.2961 47.7871 14.0308 47.5821C13.7654 47.3772 13.4396 47.2659 13.1043 47.2656C12.9905 47.2656 12.8772 47.2804 12.7673 47.3096L3.96746 49.3663L14.2702 32.2001L14.5282 34.0099C14.5373 34.0675 14.543 34.1256 14.5452 34.1839C14.5992 34.9606 14.8881 35.7025 15.3735 36.3113C15.8589 36.9201 16.5179 37.3669 17.2632 37.5925C17.9936 37.8267 18.7763 37.8438 19.5162 37.6416C20.2561 37.4394 20.9213 37.0267 21.4311 36.4537C21.6761 36.1833 21.9753 35.9676 22.3092 35.8205C22.6431 35.6733 23.0042 35.5981 23.3691 35.5997C23.7085 35.5943 24.0454 35.6594 24.3585 35.7907C24.6715 35.922 24.954 36.1167 25.188 36.3627L25.211 36.3897C25.5264 36.7756 25.9152 37.095 26.355 37.3296L26.922 37.6295L16.8512 57.0336ZM36.4258 46.5146C36.0407 46.428 35.6371 46.4928 35.2986 46.6958C34.9602 46.8987 34.7128 47.2241 34.6078 47.6045L32.3329 56.2136L25.979 46.1617L30.6899 36.9346L30.7899 36.8486C31.1715 36.5458 31.4864 36.1675 31.7151 35.7373C31.9438 35.3072 32.0812 34.8345 32.1189 34.3489L32.1249 34.2919C32.2116 33.5839 32.5645 32.9354 33.1118 32.4781L33.1488 32.4521C33.6167 32.1474 34.1625 31.9842 34.7208 31.9821H35.0848L45.2166 48.5654L36.4258 46.5146Z" fill="#6546BD"/>
</svg>
