<svg width="50" height="61" viewBox="0 0 50 61" fill="none" xmlns="http://www.w3.org/2000/svg">
<path d="M34.3306 13.4892C34.3306 13.4892 39.2103 9.73595 39.0854 4.98091C38.9604 0.225869 32.4541 3.60719 32.4541 3.60719C32.4541 3.60719 30.5776 4.48301 29.4549 3.10729C28.3822 1.79755 27.5354 0.632787 25.416 0.51881V0.507812C25.356 0.507812 25.302 0.507812 25.244 0.513811C25.186 0.51981 25.1321 0.507812 25.0731 0.507812V0.51881C22.9536 0.632787 22.1069 1.79755 21.0372 3.10729C19.9114 4.48401 18.0379 3.60719 18.0379 3.60719C18.0379 3.60719 11.5287 0.226869 11.4037 4.98191C11.2787 9.73695 16.1584 13.4902 16.1584 13.4902C16.1584 13.4902 0.769531 21.1216 0.769531 41.7675C0.769531 61.4055 23.0706 60.5837 25.244 60.4567C27.4185 60.5837 49.7195 61.4055 49.7195 41.7675C49.7195 21.1226 34.3306 13.4892 34.3306 13.4892ZM16.2004 6.44161C17.1192 5.48581 19.0467 6.39662 19.0467 6.39662C19.4692 6.61052 19.9494 6.68265 20.4161 6.60234C20.8828 6.52203 21.3113 6.29354 21.638 5.95071C22.0213 5.34893 22.5567 4.85903 23.1901 4.53057C23.8235 4.2021 24.5323 4.0467 25.245 4.08009C25.9577 4.0467 26.6666 4.2021 27.3 4.53057C27.9333 4.85903 28.4687 5.34893 28.8521 5.95071C29.1788 6.29354 29.6073 6.52203 30.074 6.60234C30.5407 6.68265 31.0209 6.61052 31.4434 6.39662C31.4434 6.39662 33.7298 5.28185 34.7485 6.21166C35.7163 7.09448 33.2809 9.74994 31.1305 11.6556H19.3596C17.2082 9.74994 15.2917 7.38542 16.2004 6.44161ZM25.416 56.9544V56.9364L25.244 56.9464L25.0731 56.9364V56.9544C22.3428 57.0624 4.14763 57.1394 4.14763 40.1398C4.14763 26.1166 14.2719 17.9783 19.0707 14.9079H31.4184C36.2171 17.9783 46.3424 26.1166 46.3424 40.1398C46.3424 57.1364 28.1463 57.0614 25.416 56.9544Z" fill="#6546BD"/>
<path d="M28.5674 31.5792C28.6526 31.7533 28.7724 31.9083 28.9193 32.0348C29.0663 32.1613 29.2373 32.2566 29.4222 32.315C29.7045 32.4005 30.0065 32.3955 30.2858 32.3006C30.5651 32.2058 30.8077 32.0259 30.9796 31.7862C31.1515 31.5465 31.244 31.259 31.2442 30.9641C31.2445 30.6691 31.1524 30.3815 30.9809 30.1415C30.5011 29.3729 29.8706 28.7094 29.1275 28.1912C28.3843 27.6729 27.5438 27.3106 26.6567 27.1261V26.0953C26.6567 25.7209 26.508 25.3618 26.2433 25.0971C25.9785 24.8323 25.6194 24.6836 25.245 24.6836C24.8706 24.6836 24.5115 24.8323 24.2468 25.0971C23.9821 25.3618 23.8333 25.7209 23.8333 26.0953V27.0951C22.843 27.26 21.9098 27.6705 21.1189 28.2889C20.5437 28.7558 20.0807 29.346 19.7642 30.0159C19.4477 30.6858 19.2857 31.4182 19.2902 32.1591C19.2859 32.9081 19.4789 33.645 19.8497 34.2958C20.2206 34.9466 20.7562 35.4882 21.4028 35.8663C22.1744 36.3028 22.9888 36.6586 23.8333 36.9281V41.8271C23.0559 41.5156 22.3901 40.9774 21.9227 40.2824C21.8375 40.108 21.7176 39.9527 21.5705 39.8261C21.4234 39.6994 21.252 39.604 21.0669 39.5456C20.7846 39.4604 20.4828 39.4657 20.2037 39.5607C19.9246 39.6556 19.6822 39.8355 19.5105 40.0752C19.3388 40.3148 19.2463 40.6021 19.2461 40.8969C19.2459 41.1918 19.3379 41.4792 19.5092 41.7192C19.9883 42.4906 20.6182 43.1574 21.3613 43.6795C22.1043 44.2016 22.9451 44.5683 23.8333 44.7575V45.7903C23.8333 46.1647 23.9821 46.5238 24.2468 46.7886C24.5115 47.0533 24.8706 47.202 25.245 47.202C25.6194 47.202 25.9785 47.0533 26.2433 46.7886C26.508 46.5238 26.6567 46.1647 26.6567 45.7903V44.7905C27.6481 44.6153 28.5808 44.198 29.3722 43.5758C29.949 43.1156 30.4135 42.5301 30.7303 41.8637C31.0472 41.1973 31.2081 40.4674 31.2008 39.7295C31.2072 38.977 31.0153 38.2361 30.6444 37.5813C30.2736 36.9265 29.7369 36.3809 29.0883 35.9993C28.3169 35.5626 27.5024 35.2071 26.6577 34.9385V30.0565C27.4351 30.3591 28.1017 30.8917 28.5684 31.5832M27.5806 41.3742C27.3042 41.5904 26.9918 41.7559 26.6577 41.8631V37.9569C26.9924 38.086 27.3167 38.2408 27.6275 38.4198C27.8817 38.5222 28.0939 38.7072 28.2299 38.9451C28.366 39.1829 28.4179 39.4596 28.3774 39.7306C28.3834 40.0482 28.3141 40.3628 28.1751 40.6485C28.036 40.9342 27.8313 41.1829 27.5776 41.3742M22.8785 30.5124C23.1764 30.3118 23.4952 30.1442 23.8293 30.0125V33.9117C23.4947 33.7828 23.1705 33.6284 22.8595 33.4498C22.6072 33.3521 22.3956 33.1715 22.2593 32.9377C22.1231 32.7039 22.0703 32.4308 22.1097 32.1631C22.1013 31.8482 22.1664 31.5357 22.2998 31.2504C22.4333 30.9651 22.6314 30.7148 22.8785 30.5194" fill="#6546BD"/>
</svg>
