<svg width="62" height="60" viewBox="0 0 62 60" fill="none" xmlns="http://www.w3.org/2000/svg">
<path d="M39.4337 18.9423L45.8787 12.7358C46.0826 12.5392 46.2269 12.2892 46.2951 12.0143C46.3633 11.7395 46.3526 11.451 46.2643 11.1819C46.176 10.9128 46.0136 10.6741 45.7958 10.4932C45.5779 10.3123 45.3135 10.1964 45.0328 10.1589L36.2092 8.96604L32.2707 0.84866C32.1474 0.594274 31.9549 0.379765 31.7153 0.229681C31.4757 0.0795964 31.1987 0 30.9159 0C30.6332 0 30.3562 0.0795964 30.1166 0.229681C29.877 0.379765 29.6845 0.594274 29.5611 0.84866L25.6227 8.96604L16.8001 10.1579C16.5196 10.1959 16.2556 10.3121 16.0381 10.4932C15.8207 10.6743 15.6587 10.9131 15.5707 11.182C15.4827 11.451 15.4723 11.7394 15.5407 12.014C15.609 12.2886 15.7534 12.5384 15.9572 12.7348L22.4022 18.9413L20.8504 27.7756C20.8018 28.053 20.832 28.3385 20.9375 28.5996C21.043 28.8607 21.2195 29.087 21.4472 29.2528C21.6748 29.4186 21.9444 29.5172 22.2252 29.5375C22.5061 29.5578 22.787 29.4989 23.0361 29.3675L30.9129 25.1898L38.7938 29.3675C39.0429 29.4996 39.324 29.5592 39.6053 29.5393C39.8866 29.5195 40.1566 29.4211 40.3847 29.2553C40.6127 29.0895 40.7897 28.863 40.8954 28.6016C41.0011 28.3402 41.0312 28.0543 40.9824 27.7766L39.4337 18.9423ZM36.3291 18.6743L37.487 25.2638L31.6258 22.155C31.4086 22.0398 31.1664 21.9796 30.9204 21.9796C30.6745 21.9796 30.4323 22.0398 30.215 22.155L24.3539 25.2638L25.5118 18.6743C25.5543 18.4313 25.5366 18.1816 25.46 17.9471C25.3835 17.7126 25.2505 17.5005 25.0728 17.3294L20.2935 12.7298L26.8306 11.8458C27.0767 11.8125 27.3107 11.7189 27.5118 11.5732C27.713 11.4275 27.875 11.2343 27.9834 11.0109L30.9199 4.95935L33.8565 11.0109C33.9649 11.2343 34.1269 11.4275 34.328 11.5732C34.5292 11.7189 34.7632 11.8125 35.0093 11.8458L41.5464 12.7298L36.7671 17.3294C36.5894 17.5005 36.4564 17.7126 36.3799 17.9471C36.3033 18.1816 36.2866 18.4313 36.3291 18.6743Z" fill="#6546BD"/>
<path d="M59.525 47.4862H42.9615V34.7871C42.9615 34.3877 42.8028 34.0047 42.5204 33.7223C42.2381 33.4399 41.8551 33.2812 41.4557 33.2812H20.3759C19.9765 33.2812 19.5935 33.4399 19.3111 33.7223C19.0287 34.0047 18.8701 34.3877 18.8701 34.7871V41.8866H2.30656C2.10873 41.8866 1.91284 41.9256 1.73009 42.0013C1.54734 42.0771 1.3813 42.1881 1.24146 42.328C1.10162 42.4679 0.990728 42.6341 0.915115 42.8169C0.839501 42.9997 0.80065 43.1956 0.800782 43.3935V58.4923C0.800782 58.8917 0.959425 59.2747 1.24181 59.5571C1.5242 59.8395 1.9072 59.9982 2.30656 59.9982H59.525C59.9244 59.9982 60.3074 59.8395 60.5897 59.5571C60.8721 59.2747 61.0308 58.8917 61.0308 58.4923V48.993C61.0308 48.5937 60.8721 48.2106 60.5897 47.9282C60.3074 47.6458 59.9244 47.4872 59.525 47.4872M3.81233 44.8994H18.8701V56.9834H3.81233V44.8994ZM21.8816 36.289H39.9499V56.9874H21.8816V36.289ZM58.0192 56.9874H42.9615V50.5019H58.0192V56.9874Z" fill="#6546BD"/>
</svg>
