<svg width="50" height="37" viewBox="0 0 50 37" fill="none" xmlns="http://www.w3.org/2000/svg">
<path d="M38.8554 11.9986C38.9553 12.0291 39.0592 12.0446 39.1637 12.0444C39.3157 12.0411 39.4654 12.0076 39.6043 11.9459C39.7432 11.8842 39.8684 11.7955 39.9726 11.6849L47.8232 5.56125C48.002 5.46442 48.1484 5.31737 48.2446 5.13824C48.3407 4.95912 48.3823 4.75576 48.3642 4.55327C48.3407 4.31081 48.2506 4.07957 48.1038 3.88517C47.957 3.69078 47.7592 3.54081 47.5324 3.4519C47.3377 3.38256 47.127 3.37181 46.9262 3.42098C46.7254 3.47015 46.5435 3.57709 46.4029 3.72856L38.3725 9.86983C38.2066 10.0018 38.0809 10.1774 38.0096 10.3771C37.9383 10.5767 37.9242 10.7922 37.969 10.9994C38.0161 11.229 38.1229 11.4423 38.2784 11.6176C38.434 11.793 38.633 11.9244 38.8554 11.9986Z" fill="#6546BD"/>
<path d="M47.8362 27.5075L39.975 21.3769C39.8423 21.2334 39.6723 21.1297 39.484 21.0774C39.2957 21.0252 39.0966 21.0263 38.9089 21.0808C38.6716 21.1646 38.4603 21.309 38.2961 21.4998C38.132 21.6905 38.0206 21.9209 37.9732 22.1681C37.9237 22.3846 37.936 22.6107 38.0086 22.8207C38.0811 23.0306 38.2111 23.216 38.3838 23.3558L46.4317 29.5094C46.623 29.6395 46.8489 29.7094 47.0802 29.7103C47.2922 29.7055 47.4999 29.6502 47.6862 29.549C47.8725 29.4479 48.0321 29.3038 48.1516 29.1288C48.4724 28.6653 48.497 27.9833 47.8344 27.5075H47.8362Z" fill="#6546BD"/>
<path d="M32.241 0.672491H31.1379C29.9749 0.672491 28.923 1.47782 28.6939 2.52456C21.79 8.14246 16.0773 8.54953 7.50827 8.54953C6.20785 8.54953 4.90919 9.1804 3.92418 10.2818H2.46693C0.944481 10.2818 0 11.1065 0 12.4352V20.3122C0 21.5845 1.10659 22.6207 2.46693 22.6207H3.93475C5.5083 24.1468 7.08537 24.1943 9.04658 24.1961L12.2941 34.868C12.4879 35.6416 12.8862 36.2443 13.3866 36.5192C13.5543 36.615 13.7433 36.6671 13.9364 36.6707C14.0125 36.6707 14.0884 36.6606 14.1619 36.6408H20.2676L20.3099 36.6372C20.8103 36.5544 21.1257 36.3835 21.3054 36.1015C21.5169 35.7667 21.5169 35.3103 21.3054 34.5684L18.2852 24.9045C22.3186 25.7204 25.7265 27.4086 28.6886 30.0537C28.7929 30.6252 29.096 31.1414 29.5442 31.511C29.9925 31.8806 30.557 32.0797 31.1379 32.0731H32.241C33.6013 32.0731 34.7079 31.037 34.7079 29.7629V3.13957C34.7153 2.81357 34.6565 2.48946 34.5351 2.18681C34.4138 1.88416 34.2323 1.60925 34.0018 1.37867C33.7712 1.1481 33.4963 0.966645 33.1937 0.845272C32.8911 0.723898 32.567 0.665122 32.241 0.672491ZM32.137 3.24354V29.5021H31.2419V3.24354H32.137ZM18.6553 34.2283H14.6342L11.6404 24.1961C12.9672 24.1961 14.0262 24.2067 15.6597 24.3388L18.657 34.2283H18.6553ZM5.4061 13.3797C5.4061 12.2572 6.12855 11.1206 7.50827 11.1206C15.769 11.1206 21.7495 10.7382 28.671 5.70534V26.7108C21.9257 21.6251 15.2333 21.6233 7.50827 21.6233C6.95514 21.6093 6.42852 21.3833 6.03728 20.9921C5.64603 20.6008 5.42007 20.0742 5.4061 19.521V13.3762V13.3797ZM2.83521 12.659V20.0849C2.69496 20.1041 2.55379 20.1158 2.4123 20.1201V12.7207C2.54551 12.6637 2.69127 12.6424 2.83521 12.659Z" fill="#6546BD"/>
<path d="M48.6256 15.3244H39.1732C39.0141 15.3216 38.8565 15.3561 38.713 15.4249C38.5696 15.4937 38.4441 15.5951 38.3467 15.7209C38.1721 15.9547 38.0798 16.2397 38.0841 16.5315C38.0841 17.1306 38.4577 17.7386 39.1732 17.7386H48.6256C49.4961 17.7386 49.9508 17.1324 49.9508 16.5315C49.9508 15.9306 49.4961 15.3244 48.6256 15.3244Z" fill="#6546BD"/>
</svg>
