<svg width="62" height="61" viewBox="0 0 62 61" fill="none" xmlns="http://www.w3.org/2000/svg">
<path d="M44.306 13.763L44.315 13.736C44.4445 13.3486 44.4149 12.9255 44.2325 12.5599C44.0501 12.1943 43.73 11.9161 43.3425 11.7865C42.955 11.657 42.5319 11.6867 42.1663 11.869C41.8007 12.0514 41.5225 12.3716 41.393 12.759C40.636 15.265 38.241 21.228 35.585 23.885L24.279 35.298L23.164 36.423V20.223C23.1691 20.0252 23.1346 19.8284 23.0625 19.6442C22.9903 19.4599 22.882 19.292 22.7439 19.1503C22.6059 19.0086 22.4408 18.896 22.2585 18.8191C22.0762 18.7422 21.8803 18.7025 21.6825 18.7025C21.4846 18.7025 21.2888 18.7422 21.1065 18.8191C20.9242 18.896 20.7591 19.0086 20.621 19.1503C20.4829 19.292 20.3746 19.4599 20.3025 19.6442C20.2304 19.8284 20.1958 20.0252 20.201 20.223V37.613C20.1923 37.8982 20.2652 38.1798 20.411 38.425L20.711 38.87L20.333 39.248L1.33998 58.237C1.05224 58.5252 0.890625 58.9158 0.890625 59.323C0.890625 59.7303 1.05224 60.1209 1.33998 60.409C1.47396 60.5484 1.63423 60.6599 1.81154 60.7369C1.98884 60.814 2.17967 60.8552 2.37298 60.858C2.56628 60.8551 2.75709 60.8139 2.93439 60.7369C3.11169 60.6598 3.27197 60.5484 3.40598 60.409L37.65 26.162C41.308 22.505 43.837 15.192 44.306 13.763Z" fill="#6546BD"/>
<path d="M60.824 7.692C60.7852 7.3095 60.6104 6.95361 60.3315 6.689C60.0526 6.42439 59.688 6.26862 59.304 6.25C59.264 6.25 59.224 6.25 59.184 6.256C58.7801 6.29309 58.4058 6.4838 58.1384 6.78877C57.871 7.09375 57.7309 7.48972 57.747 7.895C58.615 17.871 58.482 36.195 47.847 46.823C41.574 53.097 35.804 56.147 30.209 56.147C26.4136 56.0128 22.75 54.7218 19.709 52.447C19.4625 52.2852 19.1738 52.1996 18.879 52.201C18.6321 52.198 18.3888 52.2595 18.173 52.3795C17.9573 52.4995 17.7766 52.6737 17.649 52.885L17.641 52.898L17.632 52.911C17.5194 53.0814 17.4424 53.2728 17.4056 53.4737C17.3689 53.6745 17.3731 53.8808 17.418 54.08C17.4589 54.2662 17.5374 54.442 17.6486 54.5968C17.7599 54.7515 17.9015 54.8819 18.065 54.98L18.083 54.991L18.1 55.003C21.649 57.6141 25.9188 59.0633 30.324 59.152C36.76 59.152 43.388 55.736 50.024 48.998C55.092 43.976 58.481 36.922 60.102 28.027C61.2364 21.31 61.4791 14.4726 60.824 7.692Z" fill="#6546BD"/>
<path d="M6.64238 43.6822H6.69538C6.96309 43.6825 7.22582 43.6099 7.45538 43.4722C7.7806 43.2468 8.00861 42.9067 8.09373 42.5203C8.17884 42.1338 8.11479 41.7294 7.91438 41.3882C5.54612 38.1037 4.38723 34.101 4.63438 30.0592C5.10538 24.8722 8.16038 19.5492 13.9724 13.7852C17.7354 10.0212 22.8724 7.25022 29.2364 5.55122C34.5003 4.20687 39.9167 3.55239 45.3494 3.60422C47.0904 3.60422 48.8334 3.66422 50.5304 3.78222H50.5424C50.5824 3.78222 50.6224 3.78722 50.6624 3.78722C51.0462 3.76886 51.4106 3.61344 51.6895 3.34921C51.9684 3.08497 52.1433 2.72944 52.1824 2.34722C52.1973 2.15019 52.1717 1.9522 52.1072 1.76543C52.0427 1.57867 51.9407 1.40707 51.8074 1.26122C51.5392 0.951121 51.1639 0.753635 50.7564 0.708219C49.0944 0.619219 47.4334 0.574219 45.8194 0.574219C35.3334 0.574219 20.9194 2.49022 11.7944 11.6142C6.23638 17.1742 3.01438 22.4132 1.94238 27.6352C0.882384 32.8052 1.96938 37.8352 5.26338 43.0182C5.42094 43.2328 5.62864 43.4054 5.86832 43.5212C6.10801 43.6369 6.3724 43.6922 6.63838 43.6822" fill="#6546BD"/>
<path d="M49.2055 31.543H38.7515C38.3585 31.543 37.9815 31.6991 37.7036 31.977C37.4257 32.255 37.2695 32.6319 37.2695 33.025C37.2695 33.418 37.4257 33.795 37.7036 34.0729C37.9815 34.3508 38.3585 34.507 38.7515 34.507H49.2055C49.5986 34.507 49.9755 34.3508 50.2535 34.0729C50.5314 33.795 50.6875 33.418 50.6875 33.025C50.6875 32.6319 50.5314 32.255 50.2535 31.977C49.9755 31.6991 49.5986 31.543 49.2055 31.543Z" fill="#6546BD"/>
</svg>
