<svg width="27" height="37" viewBox="0 0 27 37" fill="none" xmlns="http://www.w3.org/2000/svg">
<path d="M4.17923 11.582H1.69992C1.45576 11.582 1.22159 11.679 1.04894 11.8517C0.876291 12.0243 0.779297 12.2585 0.779297 12.5027C0.779297 12.7468 0.876291 12.981 1.04894 13.1536C1.22159 13.3263 1.45576 13.4233 1.69992 13.4233H4.17923C4.42339 13.4233 4.65756 13.3263 4.83021 13.1536C5.00286 12.981 5.09986 12.7468 5.09986 12.5027C5.09986 12.2585 5.00286 12.0243 4.83021 11.8517C4.65756 11.679 4.42339 11.582 4.17923 11.582Z" fill="#6546BD"/>
<path d="M11.9245 0.808594C11.6804 0.808832 11.4464 0.905903 11.2738 1.0785C11.1012 1.2511 11.0041 1.48513 11.0039 1.72922V3.67667C11.0039 3.92083 11.1009 4.155 11.2736 4.32765C11.4462 4.5003 11.6804 4.59729 11.9245 4.59729C12.1687 4.59729 12.4029 4.5003 12.5755 4.32765C12.7482 4.155 12.8452 3.92083 12.8452 3.67667V1.72922C12.8449 1.48513 12.7479 1.2511 12.5753 1.0785C12.4027 0.905903 12.1686 0.808832 11.9245 0.808594Z" fill="#6546BD"/>
<path d="M22.7007 11.6094H20.2214C19.9772 11.6094 19.7431 11.7064 19.5704 11.879C19.3978 12.0517 19.3008 12.2858 19.3008 12.53C19.3008 12.7742 19.3978 13.0083 19.5704 13.181C19.7431 13.3536 19.9772 13.4506 20.2214 13.4506H22.7007C22.9449 13.4506 23.179 13.3536 23.3517 13.181C23.5243 13.0083 23.6213 12.7742 23.6213 12.53C23.6213 12.2858 23.5243 12.0517 23.3517 11.879C23.179 11.7064 22.9449 11.6094 22.7007 11.6094Z" fill="#6546BD"/>
<path d="M6.96715 5.98315L5.37248 4.62516C5.18614 4.4711 4.94667 4.39653 4.70581 4.41755C4.46495 4.43858 4.24202 4.55351 4.08519 4.73752C3.92836 4.92154 3.85021 5.15986 3.86763 5.40101C3.88504 5.64216 3.99663 5.86678 4.17827 6.02635L5.77115 7.38344C5.86309 7.46197 5.9696 7.52162 6.0846 7.55899C6.1996 7.59636 6.32083 7.61071 6.44138 7.60122C6.56192 7.59174 6.67941 7.55861 6.78715 7.50371C6.89489 7.44882 6.99076 7.37324 7.06929 7.2813C7.14782 7.18935 7.20748 7.08284 7.24485 6.96784C7.28221 6.85285 7.29656 6.73161 7.28708 6.61107C7.27759 6.49053 7.24446 6.37303 7.18957 6.26529C7.13467 6.15755 7.0591 6.06168 6.96715 5.98315Z" fill="#6546BD"/>
<path d="M20.4429 3.94558C20.2651 3.78157 20.0304 3.69331 19.7887 3.69953C19.5469 3.70574 19.317 3.80595 19.1479 3.97888L17.438 5.74994C17.2716 5.92704 17.181 6.16225 17.1857 6.40527C17.1904 6.64828 17.29 6.87981 17.4632 7.05033L17.4713 7.05843C17.6419 7.21883 17.8672 7.30828 18.1013 7.30861C18.2254 7.30787 18.3481 7.28242 18.4623 7.23375C18.5765 7.18508 18.6798 7.11416 18.7663 7.02514L20.4762 5.25408C20.6434 5.07521 20.7336 4.83779 20.7274 4.59301C20.7212 4.34823 20.619 4.11571 20.4429 3.94558Z" fill="#6546BD"/>
<path d="M25.8048 22.4929C25.6566 21.7434 25.2823 21.0574 24.7322 20.5274C24.1821 19.9973 23.4827 19.6487 22.7284 19.5285H22.7068C22.39 19.5265 22.0735 19.5521 21.7611 19.605C21.5907 19.2081 21.3212 18.8616 20.9783 18.5989C20.4932 18.2431 19.9062 18.0537 19.3047 18.0589C18.9057 18.0694 18.5168 18.1872 18.179 18.4C18.0541 18.1966 17.8949 18.0164 17.7085 17.8672C17.2148 17.5123 16.6212 17.3232 16.0132 17.3273C15.7015 17.3311 15.3927 17.3877 15.1 17.4947V11.6289C15.1043 11.218 15.0266 10.8102 14.8713 10.4297C14.7161 10.0491 14.4865 9.70341 14.196 9.41274C13.9054 9.12208 13.5598 8.89234 13.1794 8.73698C12.7989 8.58162 12.3913 8.50376 11.9804 8.50797H11.9723C11.1432 8.50917 10.3485 8.83915 9.7623 9.42556C9.17614 10.012 8.84644 10.8069 8.84549 11.6361V21.0062C8.40022 20.188 7.66629 19.565 6.78676 19.2585C6.40042 19.1713 6.0005 19.1625 5.6107 19.2327C5.2209 19.3029 4.84915 19.4506 4.51748 19.6671C3.83875 20.0591 3.32337 20.6818 3.06521 21.422C2.88203 22.3244 2.99763 23.262 3.39453 24.0929C5.12986 28.566 7.54118 32.7462 10.5443 36.4877C10.631 36.5863 10.7375 36.6655 10.8569 36.7203C10.9763 36.775 11.1058 36.804 11.2371 36.8053H21.1565C21.3545 36.8041 21.5467 36.7388 21.7044 36.6191C22.9031 35.6067 23.8246 34.306 24.3822 32.8394C25.1214 31.1519 25.6395 29.3761 25.9236 27.5559C26.2274 25.8788 26.187 24.1574 25.8048 22.4965M4.8396 21.9259C4.95439 21.6401 5.1588 21.3993 5.42214 21.2396C5.68548 21.0799 5.99351 21.01 6.29997 21.0404C6.54408 21.1417 6.76504 21.2915 6.94942 21.4809C7.13381 21.6703 7.27776 21.8952 7.37252 22.1419C7.41121 22.2139 7.45081 22.2868 7.4886 22.3534L8.94716 25.2836C9.04132 25.4682 9.19486 25.6158 9.38307 25.7026C9.57129 25.7894 9.78322 25.8103 9.98476 25.762C10.1863 25.7136 10.3657 25.5989 10.4942 25.4362C10.6226 25.2735 10.6925 25.0724 10.6928 24.8651V11.6361C10.7016 11.3022 10.8404 10.985 11.0797 10.752C11.3189 10.519 11.6397 10.3886 11.9736 10.3886C12.3076 10.3886 12.6283 10.519 12.8676 10.752C13.1068 10.985 13.2456 11.3022 13.2545 11.6361V19.3494C13.2522 19.5601 13.322 19.7653 13.4522 19.9309C13.5825 20.0966 13.7655 20.2127 13.9708 20.2601C14.1761 20.3074 14.3914 20.2832 14.5811 20.1914C14.7707 20.0996 14.9233 19.9457 15.0136 19.7553C15.1297 19.5928 15.279 19.4568 15.4517 19.3564C15.6243 19.256 15.8164 19.1935 16.015 19.173C16.2329 19.1819 16.4444 19.2487 16.6278 19.3665C16.7988 19.4907 16.9292 19.6221 16.9292 20.0865C16.9293 20.294 16.9992 20.4954 17.1278 20.6583C17.2563 20.8212 17.436 20.9361 17.6378 20.9843C17.8396 21.0326 18.0518 21.0114 18.2401 20.9243C18.4284 20.8372 18.5819 20.6891 18.6757 20.504C18.9709 19.9137 19.0851 19.9119 19.3335 19.9083C19.5391 19.9273 19.7375 19.9938 19.913 20.1027C20.0309 20.1783 20.1241 20.2867 20.1814 20.4146C20.2386 20.5425 20.2572 20.6843 20.2351 20.8226C20.2337 21.0029 20.285 21.1797 20.3827 21.3312C20.4804 21.4828 20.6201 21.6025 20.7849 21.6757C20.9478 21.7446 21.1266 21.7668 21.3015 21.7398C21.4763 21.7128 21.6401 21.6376 21.7746 21.5227C22.02 21.4117 22.2886 21.3617 22.5574 21.377C23.316 21.4769 23.7272 21.9322 24.0313 22.9968C24.3375 24.4023 24.3592 25.8548 24.0952 27.2688C23.8377 28.9281 23.3671 30.5473 22.6951 32.0861C22.256 33.1607 21.6079 34.1374 20.7885 34.9596H11.6807C8.9498 31.4511 6.74044 27.5661 5.12124 23.4252C4.88211 22.9627 4.78358 22.4402 4.8378 21.9223" fill="#6546BD"/>
</svg>
