<svg width="43" height="61" viewBox="0 0 43 61" fill="none" xmlns="http://www.w3.org/2000/svg">
<path d="M5.79797 18.4575H1.66597C1.46116 18.4523 1.25738 18.4881 1.06663 18.5629C0.875885 18.6377 0.702035 18.7498 0.555328 18.8929C0.408622 19.0359 0.292028 19.2068 0.212419 19.3956C0.13281 19.5843 0.0917969 19.7872 0.0917969 19.992C0.0917969 20.1969 0.13281 20.3997 0.212419 20.5885C0.292028 20.7773 0.408622 20.9482 0.555328 21.0912C0.702035 21.2342 0.875885 21.3464 1.06663 21.4212C1.25738 21.4959 1.46116 21.5318 1.66597 21.5265H5.79797C6.00278 21.5318 6.20657 21.4959 6.39731 21.4212C6.58806 21.3464 6.76191 21.2342 6.90862 21.0912C7.05532 20.9482 7.17192 20.7773 7.25153 20.5885C7.33114 20.3997 7.37215 20.1969 7.37215 19.992C7.37215 19.7872 7.33114 19.5843 7.25153 19.3956C7.17192 19.2068 7.05532 19.0359 6.90862 18.8929C6.76191 18.7498 6.58806 18.6377 6.39731 18.5629C6.20657 18.4881 6.00278 18.4523 5.79797 18.4575Z" fill="#6546BD"/>
<path d="M18.7088 0.503906C18.3018 0.504171 17.9115 0.665979 17.6237 0.95379C17.3359 1.2416 17.1741 1.63188 17.1738 2.03891V5.28491C17.184 5.6851 17.3502 6.06547 17.6369 6.3449C17.9235 6.62434 18.308 6.78073 18.7083 6.78073C19.1087 6.78073 19.4931 6.62434 19.7798 6.3449C20.0665 6.06547 20.2326 5.6851 20.2428 5.28491V2.03891C20.2426 1.63205 20.0809 1.24193 19.7933 0.954143C19.5057 0.666361 19.1157 0.504436 18.7088 0.503906Z" fill="#6546BD"/>
<path d="M36.6731 18.5044H32.5371C32.3323 18.4992 32.1285 18.535 31.9377 18.6098C31.747 18.6845 31.5731 18.7967 31.4264 18.9397C31.2797 19.0827 31.1631 19.2537 31.0835 19.4424C31.0039 19.6312 30.9629 19.834 30.9629 20.0389C30.9629 20.2438 31.0039 20.4466 31.0835 20.6354C31.1631 20.8241 31.2797 20.9951 31.4264 21.1381C31.5731 21.2811 31.747 21.3933 31.9377 21.468C32.1285 21.5428 32.3323 21.5786 32.5371 21.5734H36.6701C37.0703 21.5632 37.4506 21.397 37.7301 21.1104C38.0095 20.8237 38.1659 20.4392 38.1659 20.0389C38.1659 19.6386 38.0095 19.2541 37.7301 18.9674C37.4506 18.6808 37.0703 18.5146 36.6701 18.5044" fill="#6546BD"/>
<path d="M10.444 9.12959L7.78604 6.87059C7.63266 6.73986 7.45502 6.64062 7.26329 6.57853C7.07155 6.51645 6.86946 6.49274 6.66856 6.50876C6.46767 6.52478 6.27189 6.58021 6.09241 6.67189C5.91293 6.76357 5.75327 6.8897 5.62254 7.04309C5.49181 7.19647 5.39257 7.3741 5.33049 7.56584C5.26841 7.75758 5.2447 7.95966 5.26071 8.16056C5.27673 8.36146 5.33216 8.55724 5.42384 8.73672C5.51552 8.91619 5.64166 9.07585 5.79504 9.20659L8.45004 11.4686C8.76026 11.7274 9.15998 11.8534 9.56252 11.8194C9.96506 11.7854 10.338 11.5941 10.6004 11.2869C10.8628 10.9798 10.9935 10.5816 10.9643 10.1786C10.935 9.77573 10.7481 9.40059 10.444 9.13459" fill="#6546BD"/>
<path d="M32.9086 5.73075C32.6122 5.45742 32.2209 5.31038 31.8178 5.32083C31.4147 5.33129 31.0315 5.49842 30.7496 5.78675L27.8996 8.73875C27.622 9.03398 27.471 9.42614 27.4788 9.83131C27.4867 10.2365 27.6528 10.6225 27.9416 10.9068L27.9556 10.9208C28.2399 11.1881 28.6154 11.3372 29.0056 11.3378C29.2126 11.3365 29.4173 11.2941 29.6077 11.2129C29.7981 11.1317 29.9705 11.0133 30.1146 10.8648L32.9646 7.91275C33.2433 7.61463 33.3937 7.21896 33.3834 6.811C33.3731 6.40304 33.203 6.01546 32.9096 5.73175" fill="#6546BD"/>
<path d="M41.8463 36.6416C41.5992 35.3925 40.975 34.2492 40.058 33.3658C39.141 32.4823 37.9751 31.9013 36.7176 31.701H36.6816C36.1533 31.6978 35.6257 31.7407 35.1048 31.829C34.8207 31.1674 34.3714 30.59 33.7998 30.1521C32.9913 29.5592 32.0127 29.2435 31.01 29.2522C30.3446 29.2695 29.6962 29.4661 29.1332 29.8211C28.9267 29.4819 28.6632 29.1808 28.3542 28.9312C27.5313 28.3396 26.5419 28.0245 25.5284 28.0313C25.0087 28.0375 24.4938 28.1319 24.0055 28.3102V18.5319C24.0125 17.8472 23.8827 17.1679 23.6239 16.5339C23.3651 15.8999 22.9823 15.324 22.4981 14.8397C22.0139 14.3555 21.4379 13.9728 20.8039 13.7139C20.1699 13.4551 19.4907 13.3253 18.8059 13.3323H18.7919C17.4098 13.3341 16.0849 13.8841 15.1077 14.8614C14.1305 15.8388 13.5809 17.1639 13.5793 18.5459V34.1638C12.837 32.8002 11.6136 31.7618 10.1475 31.251C9.50352 31.1057 8.83689 31.091 8.18712 31.208C7.53736 31.325 6.91768 31.5711 6.36479 31.932C5.23341 32.5853 4.37431 33.6232 3.94397 34.8568C3.63866 36.3609 3.83135 37.9236 4.49293 39.3085C7.38558 46.7637 11.4051 53.731 16.4111 59.967C16.5557 60.1312 16.7333 60.2632 16.9323 60.3544C17.1312 60.4455 17.3472 60.4937 17.566 60.4959H34.0978C34.428 60.4941 34.7486 60.3854 35.0118 60.186C37.0099 58.4987 38.546 56.3309 39.4754 53.8864C40.7078 51.0739 41.5716 48.1139 42.0453 45.08C42.5511 42.2848 42.4831 39.4158 41.8453 36.6476M6.89676 35.6967C7.08819 35.2203 7.42903 34.8189 7.86808 34.5528C8.30713 34.2866 8.82068 34.1702 9.33158 34.2208C9.73849 34.3896 10.1068 34.6394 10.4142 34.955C10.7215 35.2706 10.9615 35.6454 11.1195 36.0567C11.1845 36.1767 11.2504 36.2987 11.3134 36.4097L13.7453 41.2933C13.9023 41.6013 14.1585 41.8474 14.4725 41.992C14.7865 42.1366 15.14 42.1712 15.4761 42.0904C15.8122 42.0095 16.1113 41.8179 16.3251 41.5463C16.539 41.2747 16.6552 40.939 16.6551 40.5934V18.5459C16.6671 17.9876 16.8974 17.4562 17.2966 17.0656C17.6957 16.675 18.232 16.4563 18.7904 16.4563C19.3489 16.4563 19.8851 16.675 20.2843 17.0656C20.6834 17.4562 20.9137 17.9876 20.9258 18.5459V31.402C20.9221 31.7532 21.0385 32.0951 21.2557 32.3711C21.4729 32.647 21.7778 32.8405 22.12 32.9195C22.4622 32.9985 22.8211 32.9582 23.1373 32.8054C23.4535 32.6525 23.7079 32.3962 23.8586 32.079C24.0521 31.808 24.3011 31.5812 24.589 31.4138C24.8769 31.2464 25.1971 31.1422 25.5284 31.108C25.8917 31.1228 26.2445 31.2343 26.5504 31.431C26.8353 31.638 27.0503 31.857 27.0503 32.6309C27.0493 32.9773 27.1651 33.314 27.3791 33.5864C27.5931 33.8587 27.8927 34.051 28.2295 34.1319C28.5663 34.2129 28.9206 34.1779 29.235 34.0325C29.5494 33.8871 29.8056 33.6399 29.9621 33.3309C30.4541 32.3469 30.6451 32.344 31.062 32.338C31.4048 32.3697 31.7354 32.4806 32.028 32.6619C32.2245 32.788 32.38 32.9687 32.4754 33.1818C32.5708 33.3949 32.6019 33.6313 32.5649 33.8618C32.5628 34.1624 32.6484 34.457 32.8113 34.7096C32.9742 34.9622 33.2072 35.1617 33.4819 35.2837C33.7535 35.3985 34.0516 35.4354 34.343 35.3904C34.6344 35.3454 34.9075 35.2201 35.1317 35.0288C35.5408 34.8437 35.9885 34.7604 36.4367 34.7858C37.7016 34.9528 38.3865 35.7117 38.8935 37.4856C39.4037 39.8282 39.4397 42.2493 38.9995 44.6061C38.5703 47.3718 37.7859 50.0706 36.6656 52.6355C35.9336 54.4267 34.8531 56.0548 33.4869 57.4252H18.3019C13.7492 51.5759 10.0664 45.099 7.36772 38.1955C6.96894 37.4247 6.80453 36.5539 6.89476 35.6907" fill="#6546BD"/>
</svg>
