<svg width="61" height="60" viewBox="0 0 61 60" fill="none" xmlns="http://www.w3.org/2000/svg">
<path d="M46.0607 25.1953H39.7619C39.3709 25.1958 38.9961 25.3514 38.7196 25.6278C38.4432 25.9043 38.2876 26.2791 38.2871 26.6701V52.5265C38.2876 52.9175 38.4432 53.2923 38.7196 53.5687C38.9961 53.8452 39.3709 54.0007 39.7619 54.0013H46.0607C46.4517 54.0007 46.8265 53.8452 47.103 53.5687C47.3794 53.2923 47.535 52.9175 47.5355 52.5265V26.6701C47.535 26.2791 47.3794 25.9043 47.103 25.6278C46.8265 25.3514 46.4517 25.1958 46.0607 25.1953ZM44.586 51.0518H41.2356V28.1448H44.586V51.0518Z" fill="#6546BD"/>
<path d="M58.7385 21.1992H52.4396C52.0486 21.1997 51.6738 21.3553 51.3974 21.6317C51.1209 21.9082 50.9654 22.283 50.9648 22.674V52.5257C50.9654 52.9167 51.1209 53.2915 51.3974 53.568C51.6738 53.8444 52.0486 53.9999 52.4396 54.0005H58.7385C59.1294 53.9999 59.5042 53.8444 59.7807 53.568C60.0572 53.2915 60.2127 52.9167 60.2132 52.5257V22.674C60.2127 22.283 60.0572 21.9082 59.7807 21.6317C59.5042 21.3553 59.1294 21.1997 58.7385 21.1992ZM57.2637 51.051H53.9093V24.1487H57.2597L57.2637 51.051Z" fill="#6546BD"/>
<path d="M8.04417 43.1758H1.74527C1.35414 43.176 0.97908 43.3315 0.702411 43.608C0.425742 43.8844 0.270061 44.2594 0.269531 44.6505L0.269531 52.5251C0.27006 52.9161 0.425604 53.2909 0.702057 53.5674C0.97851 53.8438 1.35331 53.9994 1.74427 53.9999H8.04317C8.43413 53.9994 8.80893 53.8438 9.08538 53.5674C9.36184 53.2909 9.51738 52.9161 9.51791 52.5251V44.6505C9.51738 44.2596 9.36184 43.8848 9.08538 43.6083C8.80893 43.3319 8.43513 43.1763 8.04417 43.1758ZM6.56843 51.0504H3.21901V46.1253H6.56843V51.0504Z" fill="#6546BD"/>
<path d="M33.3908 29.1914H27.0919C26.701 29.1919 26.3262 29.3475 26.0497 29.6239C25.7733 29.9004 25.6177 30.2752 25.6172 30.6662V52.5263C25.6177 52.9173 25.7733 53.2921 26.0497 53.5685C26.3262 53.845 26.701 54.0005 27.0919 54.0011H33.3908C33.7818 54.0005 34.1566 53.845 34.433 53.5685C34.7095 53.2921 34.865 52.9173 34.8656 52.5263V30.6662C34.865 30.2752 34.7095 29.9004 34.433 29.6239C34.1566 29.3475 33.7818 29.1919 33.3908 29.1914ZM31.9161 51.0556H28.5657V32.1409H31.9161V51.0556Z" fill="#6546BD"/>
<path d="M20.717 35.1836H14.4181C14.0271 35.1841 13.6523 35.3397 13.3759 35.6161C13.0994 35.8926 12.9439 36.2674 12.9434 36.6583V52.5246C12.9439 52.9155 13.0994 53.2903 13.3759 53.5668C13.6523 53.8432 14.0271 53.9988 14.4181 53.9993H20.717C21.108 53.9988 21.4828 53.8432 21.7592 53.5668C22.0357 53.2903 22.1912 52.9155 22.1917 52.5246V36.6583C22.1912 36.2674 22.0357 35.8926 21.7592 35.6161C21.4828 35.3397 21.108 35.1841 20.717 35.1836ZM19.2423 51.0508H15.8918V38.1331H19.2423V51.0508Z" fill="#6546BD"/>
<path d="M58.5304 56.8956H1.94891C1.73492 56.8784 1.51969 56.9057 1.31677 56.9758C1.11386 57.0459 0.92765 57.1572 0.769886 57.3028C0.612121 57.4484 0.486217 57.6251 0.400103 57.8217C0.313988 58.0183 0.269531 58.2307 0.269531 58.4453C0.269531 58.66 0.313988 58.8723 0.400103 59.069C0.486217 59.2656 0.612121 59.4423 0.769886 59.5879C0.92765 59.7335 1.11386 59.8448 1.31677 59.9149C1.51969 59.985 1.73492 60.0123 1.94891 59.9951H58.5304C58.7443 60.0123 58.9596 59.985 59.1625 59.9149C59.3654 59.8448 59.5516 59.7335 59.7094 59.5879C59.8671 59.4423 59.993 59.2656 60.0792 59.069C60.1653 58.8723 60.2097 58.66 60.2097 58.4453C60.2097 58.2307 60.1653 58.0183 60.0792 57.8217C59.993 57.6251 59.8671 57.4484 59.7094 57.3028C59.5516 57.1572 59.3654 57.0459 59.1625 56.9758C58.9596 56.9057 58.7443 56.8784 58.5304 56.8956Z" fill="#6546BD"/>
<path d="M45.674 3.73667L34.0445 0.0773136C33.6615 -0.0428119 33.2464 -0.00618525 32.8903 0.179167C32.5342 0.364518 32.2661 0.683477 32.1448 1.06614C32.0595 1.44853 32.112 1.84872 32.2929 2.19623C32.4738 2.54374 32.7715 2.81627 33.1336 2.96581L41.2326 5.51336L14.8281 18.868C14.6123 18.9312 14.413 19.0411 14.2445 19.1899C14.0759 19.3387 13.9422 19.5228 13.8528 19.7292C13.7634 19.9355 13.7205 20.1589 13.7272 20.3837C13.7339 20.6084 13.79 20.829 13.8915 21.0296C13.9931 21.2302 14.1375 21.406 14.3146 21.5446C14.4917 21.6831 14.6972 21.7809 14.9164 21.8311C15.1355 21.8814 15.3631 21.8827 15.5828 21.8351C15.8026 21.7874 16.0092 21.692 16.1879 21.5556L42.7134 8.1209L40.1217 16.3595C40.001 16.7425 40.0374 17.1578 40.2228 17.514C40.4083 17.8702 40.7276 18.1383 41.1106 18.2591C41.4936 18.3697 41.9045 18.3287 42.2582 18.1446C42.6119 17.9605 42.8812 17.6475 43.0103 17.2703L46.6668 5.63434C46.7623 5.25157 46.7145 4.84708 46.5324 4.49714C46.3502 4.14721 46.0463 3.876 45.678 3.73467" fill="#6546BD"/>
</svg>
