<svg width="13" height="8" viewBox="0 0 13 8" fill="none" xmlns="http://www.w3.org/2000/svg">
<path d="M6.90199 6.56202L11.6589 1.80507C11.7051 1.75439 11.73 1.68785 11.7284 1.61929C11.7269 1.55073 11.6989 1.48542 11.6504 1.43693C11.6019 1.38844 11.5366 1.3605 11.4681 1.35891C11.3995 1.35732 11.333 1.38221 11.2823 1.42841L6.71366 5.99597L2.15139 1.4337C2.12659 1.4089 2.09714 1.38922 2.06474 1.3758C2.03233 1.36238 1.9976 1.35547 1.96253 1.35547C1.92745 1.35547 1.89272 1.36238 1.86032 1.3758C1.82791 1.38922 1.79847 1.4089 1.77367 1.4337C1.74887 1.4585 1.72919 1.48794 1.71577 1.52035C1.70235 1.55275 1.69544 1.58748 1.69544 1.62256C1.69544 1.65763 1.70235 1.69236 1.71577 1.72477C1.72919 1.75717 1.74887 1.78662 1.77367 1.81142L6.52427 6.56202C6.54904 6.58688 6.57848 6.6066 6.61088 6.62006C6.64329 6.63352 6.67804 6.64044 6.71313 6.64044C6.74822 6.64044 6.78297 6.63352 6.81538 6.62006C6.84779 6.6066 6.87722 6.58688 6.90199 6.56202Z" fill="white" stroke="black" stroke-width="1.58706"/>
</svg>
