<svg width="123" height="28" viewBox="0 0 123 28" fill="none" xmlns="http://www.w3.org/2000/svg">
<g clip-path="url(#clip0_393_3521)">
<g clip-path="url(#clip1_393_3521)">
<g clip-path="url(#clip2_393_3521)">
<path d="M49.4 22.4503C50.1298 22.4501 50.8432 22.2335 51.4499 21.8279C52.0566 21.4223 52.5294 20.8458 52.8085 20.1715C53.0876 19.4972 53.1605 18.7552 53.0179 18.0395C52.8753 17.3237 52.5237 16.6663 52.0075 16.1504C51.4913 15.6345 50.8337 15.2832 50.1179 15.141C49.4021 14.9988 48.6601 15.0721 47.986 15.3516C47.3118 15.6311 46.7356 16.1042 46.3303 16.7111C45.925 17.318 45.7088 18.0315 45.709 18.7613C45.7085 19.2461 45.8036 19.7262 45.9889 20.1741C46.1742 20.6221 46.4461 21.029 46.789 21.3717C47.1319 21.7144 47.539 21.9861 47.987 22.1712C48.4351 22.3562 48.9152 22.4511 49.4 22.4503Z" fill="black"/>
<path d="M73.363 27.2835C69.6074 27.2835 66.1817 25.7757 63.464 21.6931C60.7463 17.6106 57.3827 12.2242 55.5379 9.48345C53.7481 6.81874 52.0722 5.44488 49.1875 5.44488C46.3029 5.44488 44.622 6.81774 42.8362 9.48345C40.9864 12.2242 37.6308 17.6126 34.9151 21.6931C32.1994 25.7737 28.7747 27.2835 25.0041 27.2835C21.2335 27.2835 17.8179 25.7757 15.0922 21.6931C12.3665 17.6106 9.16983 12.7911 7.33702 10.0554C5.53621 7.39368 3.85639 5.96583 0.970703 5.96583V1.42731C5.13626 1.42731 8.67688 3.4201 11.5876 7.82663C14.4983 12.2332 16.678 15.4478 18.6088 18.4135C20.5236 21.3712 22.3594 22.781 25.0001 22.781C27.6409 22.781 29.4757 21.3712 31.3994 18.4135C33.3232 15.4558 35.66 11.6672 38.5707 7.25869C41.4814 2.85016 45.017 0.859375 49.1825 0.859375C53.3481 0.859375 56.8817 2.85216 59.7944 7.25869C62.7071 11.6652 65.0499 15.4478 66.9756 18.4135C68.9014 21.3792 70.7222 22.831 73.363 22.831V27.2835Z" fill="black"/>
<path d="M84.1191 0C81.8794 2.23976 80.5195 4.19055 80.5195 9.86694V27.3651H85.43V9.62397C85.43 6.83827 85.63 5.49841 87.0458 4.04057L84.1191 0Z" fill="black"/>
<path d="M94.6816 14.0739C94.6822 11.3199 95.4995 8.62795 97.0299 6.33843C98.5604 4.0489 100.735 2.26463 103.28 1.21124C105.825 0.157844 108.624 -0.117363 111.325 0.420418C114.026 0.958199 116.507 2.28482 118.454 4.23251C120.401 6.18021 121.727 8.66151 122.264 11.3627C122.8 14.0638 122.524 16.8635 121.47 19.4076C120.416 21.9518 118.631 24.1262 116.34 25.6559C114.05 27.1855 111.358 28.0018 108.604 28.0014C106.776 28.0014 104.965 27.6412 103.276 26.9414C101.586 26.2416 100.052 25.2159 98.7588 23.9229C97.4659 22.6298 96.4404 21.0948 95.7409 19.4054C95.0413 17.716 94.6814 15.9054 94.6816 14.0769M108.604 23.3759C111.035 23.3398 113.352 22.3401 115.047 20.5965C116.741 18.8528 117.674 16.5079 117.64 14.0769C117.674 12.869 117.465 11.6667 117.026 10.5409C116.587 9.41516 115.927 8.38885 115.084 7.52263C114.242 6.65641 113.234 5.96787 112.121 5.49771C111.008 5.02755 109.812 4.78531 108.604 4.78531C107.395 4.78531 106.199 5.02755 105.086 5.49771C103.973 5.96787 102.966 6.65641 102.123 7.52263C101.281 8.38885 100.62 9.41516 100.181 10.5409C99.7424 11.6667 99.5335 12.869 99.5671 14.0769C99.5335 16.5079 100.466 18.8528 102.161 20.5965C103.855 22.3401 106.173 23.3398 108.604 23.3759Z" fill="black"/>
</g>
</g>
</g>
<defs>
<clipPath id="clip0_393_3521">
<rect width="121.56" height="28" fill="white" transform="translate(0.970703)"/>
</clipPath>
<clipPath id="clip1_393_3521">
<rect width="121.56" height="28" fill="white" transform="translate(0.970703)"/>
</clipPath>
<clipPath id="clip2_393_3521">
<rect width="121.56" height="27.997" fill="white" transform="translate(0.970703)"/>
</clipPath>
</defs>
</svg>
